<svg id="svg2" xmlns="http://www.w3.org/2000/svg" viewBox="0 0 857.73 699.73">
	<defs>
		<style>
			.cls-1{fill:none;}.cls-1,.cls-2,.cls-3,.cls-4{stroke:#fff;stroke-width:0.73px;}.cls-2{fill:gray;}.cls-3{fill:#fcc;}.cls-4{fill:#fff;}.cls-5{fill:#dcdcf3;}.cls-6,.cls-7{fill:#b3b4c1;}.cls-7{stroke:#b3b3b3;stroke-width:0.34px;}
		</style>
	</defs>
	<title>
		cn2
	</title>
	<polygon id="_39118320" data-name=" 39118320" class="cls-1" points="857.37 0.37 857.37 699.37 0.37 699.37 0.37 0.37 0.37 0.37 857.37 0.37" />
	<path id="Hei_Long_Jiang" data-name="Hei Long Jiang" class="cls-2" d="M822.46,145.15c1-8.78,19.83,1,19.29-5.95-.87-11.38,1.66-5.42,1.56-11.84-.05-3.35,4.53-9.24,2.88-14-.65-1.87,0-3.62-.78-8-.56-3.17,1.49-4.64.36-7.45-2-5.1,10.67-7.43,2.52-14.12-2.49-2,1.59-8.65-1.74-9.31-5.22-1-11,7.6-15.74,9.31-6.33,2.28-7.42,9.44-8.71,9.86-11.54,3.75-12.17,2.32-14.9,3-6.44,1.61-.16,4.71-8.17-3.55-3.45-3.56-.19-1.24-.6-6.07-.46-5.34-4-.53-3.76-7.67.21-5.67-3.06,3-12.9-6.44-6.61-6.31-5.18,2.09-9.25-1.15-6.81-5.41-8.43-.34-15.85-1.15C750.49,70,752.51,60.37,750.5,59c-3.59-2.45-1-2.57-5.09-9.16-3-4.8-4.24-1.68-4.87-7.47-.19-1.73-2.17-2.62-2.56-4.5-.86-4.2-5.34-8.39-5.42-8.71-.41-1.51.39-3.27-.27-4.69-.37-.8-2.34,1-2.89-2.39-.13-.82-5.13-8.66-5.27-8.74-4.64-2.49-8.73-8.34-14.29-4.66-3.75,2.49-11-9.4-24.26-3.08-2.48,1.18-6.36-.29-7.35,1s-6.3,2.07-9.56,2.81c13.88,8.11-7.61,13,3.16,17.79,4.12,1.84,4,4.33,7-.66,1.93-3.19,4.68,2.41,6.43,3.19,4.26,1.89-1.54-.69,1.62,6,2.57,5.45,4,15,12.32,10.64,3.72-1.95,5.5-.13,13.58-3.37,6.37-2.55-.19-12.41,11.84-1.26,7.72,7.15,6.88,7-.18,24.22-2.78,6.79,5.87,16.48-2.88,19.83-3.29,1.26-.12,9.15-2.28,11.54-1.06,1.17,3.4,6.48.66,7.93-3.08,1.63-2.39-11.88-6.19-4.45-3.57,7-16.74,17.65-18.19,21.28s5.05,5.64,6.9,9.52c4,8.44,4.85-5.54,7.14-.06.31.75,3.54-1.24,2.92,1.84-.75,3.74-11.47,1.35-5.39,9.06a4.89,4.89,0,0,1,.45.92,16.13,16.13,0,0,0,5.56,0c9.17-2.36,3.82,3,8.05,8.6,6.77,9,10.34,1.39,13.4,3.49,3.28,2.25,5.26-3.25,8.05-2.46.16,0,4.8,8.66,9,5.23,4.62-3.77,12-1.87,11.06,2.46-2.1,10.12,7.48,2.21,7.75,5.59.81,10,10.13,9.13,8.89,5.71-1.58-4.39,2.47-10.78,4.21-5,1.9,6.34,2.49,5.35,5.53,10.52,3.93,6.68,8,3.19,7.27,1.5-1.93-4.74,3.21-3.11,5.35-6.13,3.58-5.06,4.63,1.51,6.67-2.16s3.39,3.94,6,4.81c5.93,2,3,2.1,9.46.69q-.08-.36-.19-.73c-2.2-7.45,2.2-7.52-8-24.24-.59-1,6.6-3.89,6.85-6.13h0Z" transform="translate(0.37 0.37)" />
	<path id="Ji_Lin" data-name="Ji Lin" class="cls-2" d="M779.31,172c1.23,3.43-8.08,4.32-8.89-5.71-.27-3.38-9.85,4.53-7.75-5.59.9-4.34-6.43-6.23-11.06-2.46-4.21,3.43-8.85-5.18-9-5.23-2.79-.78-4.77,4.71-8.05,2.46-3.06-2.1-6.64,5.54-13.4-3.49-4.24-5.65,1.12-11-8.05-8.6a16.13,16.13,0,0,1-5.56,0c0,6.34-6.34,2.42-3.53,6.44.72,1,1.55,7.6-4.31,2.63-3.17-2.69.91,3.86-5.79-.94-4.21-3-2,.92-4.31,3.84-1.7,2.13,3.06-.9,3.83,2.75.47,2.23,5.83,3.89,3.19,7.89-1.63,2.48,2.1,2.49.27,5.08-1.43,2,4.09,6.77,4.67,10.85.43,3,3.83-1.2,8.89-4.66,4.6-3.14-1.14.26,3.74,3.17,2,1.18,0,2.33,3.5,6.5,0,.05,2,4.74,1.12,5.5-3.81,3.18-.58,2.26,1.08,3.6,1,.83.36-.05,2.56.3.94-2.92,1.63-1.52,1.9-1.24,3.33,3.46,7.46,1.9,8,5.2,1.42,9.39,4.34.17,4.37.12,3-4.85,2.68-.36,2.65,1.93,0,1.1,6.34,9.47,7.5,11.55,2.1,3.77,5.44-.2,3.26,1.93,0,0-3.17,6.48-.57,8.37,3.54,2.59,3.16,4.48,5,6.26,7.17,7-2,3.87,3.07,8.69a2.92,2.92,0,0,1,1.21-.62c3.3-.68,5-6.49,7-9.73,1.57-2.51,3.18-13,7.69-7.5,4.84,5.91,8.78,1.18,14.16,2.51,2.69.66,4.71-1.84.42-7-.9-1.09-2.85-4.73.18-5.2,16.4-2.56,11.61-11,14.74-11.21s.27,1.58,3.62-.7c2.51-1.7-1.34-4.3-.27-7,.29-.74,1.57-3.94,2.29-4s9.75,7.81,9.95,8.19.68-2.28-1.72-3.72c-5.49-3.3,7-2.15,6.87-9.46-.07-2.82.71-4.77.13-7.46-6.42,1.41-3.54,1.28-9.46-.69-2.62-.87-3.93-8.54-6-4.81s-3.09-2.89-6.67,2.16c-2.14,3-7.28,1.39-5.35,6.13.69,1.68-3.35,5.18-7.27-1.5-3-5.16-3.63-4.18-5.53-10.52-1.74-5.8-5.79.6-4.21,5h0Z" transform="translate(0.37 0.37)" />
	<path id="Liao_Ning" data-name="Liao Ning" class="cls-2" d="M746.83,213.94c-1.16-2.08-7.52-10.44-7.5-11.55,0-2.29.34-6.79-2.65-1.93,0,0-2.95,9.27-4.37-.12-.5-3.3-4.63-1.74-8-5.2-.27-.28-1-1.68-1.9,1.24,0,14.87-2.63.82-6.12,10.94-1.69,4.89-11.88-.2-10.64,2.3.53,1.07,3.82.89-4.28,2.09-4.23.62.73,5.8-6.24,4.81-2.23-.32-3.31,4-8.89,6-7,2.51-9.22,13.29-10.82,10.1-5.36-10.71-3.41-6.07-7.45-9.37-1.06-.86-6.69,0-3.61,3.61,2.21,2.57-.39,4.13,2.16,11.54.35,1,2,1.68-1.8,3.85,0,1.7-.48,2.44-1.62,4.21-6,9.23-.5,5.74,2.7,9.07s4.34-1.6,5.95,3.12c2.74,8,2.81,2.51,3.9,7.55a59.84,59.84,0,0,1,6-4.12c4.55-2.8,9.06-18.36,15.47-16.39,5.15,1.59,3.48-3.93,6.33-1.81,1.38,1-.12,1.91,3.35,5,4,3.6,1.21,7.3-.81,11.3-1.77,3.5-8,6.21-5.61,8.86,1.09,1.21-7.17,4.37-1.51,6.26,1.79.6,6.45-1.08,4,1.63-.61.67,2.34,6.26,4.82,3.39l3.89-4.72c2.09-2.8,8.46-8.16,11.81-9.1,2.21-.62,2-2.43,4.31-2.57,2.44-.16,5.08-1.84,7.75-2.15,5-.58,2.62-2.65,6.93-7.47,2.93-3.28,2.06-3.59,6.12-6.35,1.9-1.29.13-1.44,4.52-4,1.67-1,3-3.54,4.55-4.76-5.05-4.82,4.1-1.69-3.07-8.69-1.82-1.77-1.43-3.67-5-6.26-2.6-1.9.57-8.37.57-8.37,2.19-2.13-1.15,1.84-3.26-1.93h0ZM698.5,282.55c-3.45,3.31-1.65.2-1.85,4.26-.1,2.11,1.73-.47,3.18-.82a30,30,0,0,0,4.75-2.45c.1-.57-1.07-2.13-1.25-2.24,0,0-4,.42-4.82,1.24ZM720.06,278a1,1,0,0,0,0,2c.68-.76,4.3-2.16.65-2A4.78,4.78,0,0,0,720.06,278Zm5-.91c-.35.8.42,1.9,1.57.76a1.31,1.31,0,0,1,.33-.17c0-.71-1.74-.95-1.9-.59h0Zm-11-1c-2.63,2.21.84,3.33.84.47C714.91,276,714.2,276,714.06,276.1Zm2.82-1c1.9,2.55,4.73,0,3.53-.09-3.82-.21-3.45-1.41-4.72-.94-.45.17,1.06.85,1.19,1h0Zm5.32-1c-1.29,1,3.07,1.51,1.55-.85-.15-.23-.72-.14-.72-.14-.56.54,1.31-.69-.83,1h0Zm1.16-4c-.51.2-.52,2.69.65,1.68C724,271.49,724.13,269.75,723.36,270.05Zm-.47-.94c-2.75-1.34-2,2.18,0,.67A.51.51,0,0,0,722.89,269.11ZM690,256.25s2.67-1.21-.89-1.21c-.05,0-.13,0-.15,0S688.55,257.79,690,256.25Z" transform="translate(0.37 0.37)" />
	<path id="He_Bei" data-name="He Bei" class="cls-2" d="M665.85,255.54c-3.21-3.33-8.68.15-2.7-9.07,1.14-1.77,1.62-2.5,1.62-4.21l-1.2.18h-1l-1.68.06h-1.62l-.78-.72-.72.48-1.08.18h-1.08l-1.74.18-.6.72H652l-.42-1.32v-1.38l-.18-1.2-1-1.14-1.62-.54-.6-1.2.12-1.38,1.08-.84,1.14-.54.18-1-1.56-1-.84-1.38-1-1.08-.42-1.5-1.08-1.14-.3-1.62-.06-1.32-.66-1.08-.9-.84-.78-1-1-1-1.26-.42h-1.44l-1.32.3-.72.78-.84.84-.66.6-1.44.48H631.3l-.84,1-.6,1.08-.12.9.18.66.42.54v.78l-.42.78-.66.72.36.66.48.54.36.6-.72,1.08-.42.9-1.26.48-1.5.18-1.44-.18H624l-1-.78-.68,0-.54.24-.33.67-.87.88-.9.88-.45.66-.63.42-.54.39-1.33-.7-.54-.91-.57-.88-1.82.44-1.2,1.2-1.2.84-1.33,1.2-1.2.84-1.08,1-.84,1.2-.6,1.33-1.08.72H602l-.72-1.93V239l.6-1.81.6-1.93-1-1.08-1.2-1.33-1.08-.84-1.2-.36-1.33,1.2-1.08,1.57-1.08,1.33-1.2,1.33-.6,1.08-.36,1.45-.48,1.2-.36,1.45-.72,1.33H589l-.6,1.57-.09,1.93-.66,1,.66,1,.48,1.14-.18.9-.42.72-.06.9.6.78.66.9.6.84.48,1.2c2.77,5.37,2.07,2.44,4,8,.86,2.54,8.41-.42-2.83,4.66-7.19,3.24,4.15,5.18,4.67,7.16,2.61,10,3.57-2.76,1.09,11.27-.81,4.59-8.17.5-10,5.14-.53,1.32,3.55,3-.54,5.83-1.61,1.12-4.14,7.14.28,8.74,1.86.68,7.15,10.22,7.15,10.28,0,.41-5.72,10.5-5.89,14.12-.24,5.24-7.74.93,1.05,10.81,1.31.12,18.06,4,18.06,4,2.85,1.69,2.11-5.37,5.59-1.14,1.44,1.75,1.6.33,3.36-.75.66-2.54-8.18-7.2,1.5-12.29,4.23-2.22,2.63-9.11,7.63-10.94,1.66-.61,1.23-4.21,2.88-3.85s-1,4,5.41-4.27c2.09-2.72,9.9-.39,10.76-3.73,1-4,.49-1.48,3.18-3.31,1-.7.54-1.31,1.35-2.49-2.46-1.69,1.18.35-3.63-6.46a2.8,2.8,0,0,1-.38-.83c-7.69,1.15-17.92-3.47-12-7.83,3.32-2.44-.67-1.88-.65-10.09-1.39-.19-3.3-.57-4.46.39-7.34,6.08-.7.92-6.81.6-6.49-.33,0,2.74-7,0-5-2-1-2.88-1.84-5-2.29-6.27-1.79-1.69,4.61-7.07,3-2.54-5.92-7.1.36-7.89,1.42-.18,6.93-4.71,6.93-4.72,4.58-9.36,5.15,2,10.13,1.81,14-.64-3.47,2.31,5.72,8.81,1.85-.1,6.61,3.69,4.21,4.09-4.44.74-.88,7.44,2.52,8,4.76.77-1.22,2.46,2.16,4.21.84.43.67.74.86,1.45a1.41,1.41,0,0,1,1.19.21c7.92,5.26,2.05,4,8.32.33,1.1-.64,4.55,2,8-3,2.26-3.28-.74-7.22,8.41-14.52-1.09-5-1.16.48-3.9-7.55-1.61-4.72-2.84.11-5.95-3.12h0Zm-28.24,18.33c-.11-2.17-1.58-.4-1.19-4.44-1.85.06-7.06-.45-4.89,3.07,1,1.67,2.69.48,1.88,3.46-.09.34,0,.37.1.67,1.08.19,4.36,2.88,4.09-2.76h0Z" transform="translate(0.37 0.37)" />
	<path id="Shan_Dong" data-name="Shan Dong" class="cls-2" d="M625.63,345.51C625.74,345.24,625.78,345.29,625.63,345.51Zm39.92-39.92c-3.65-3.28-2.58,2.65-6.67.84-3.69-1.63-4,3.84-6.55.24a7.57,7.57,0,0,0-2-2l-1.29-.87c-.81,1.18-.32,1.79-1.35,2.49-2.7,1.82-2.17-.67-3.18,3.31-.86,3.34-8.67,1-10.76,3.73-6.36,8.3-3.66,4.65-5.41,4.27s-1.22,3.24-2.88,3.85c-5,1.83-3.41,8.72-7.63,10.94-9.69,5.08-.85,9.75-1.5,12.29,1.43,2.51-1.46,4-1.81,4.75-2.14,4.6,3.13.36,3.32.33,3.95-.63,1.25-1.39,3.89-2s3.61-1.73,3.9-2.17a4.93,4.93,0,0,0-.2.63c-.91,3.52-9.82,7.7-9.91,9.61-.2,4-4,2.59-4.91,4.75-.79,1.93-6.49,7.1-1.81,7.1,7.68,0,3,.53,5.67,1.54,8,3-4.87,6.1,15,5.44,2.14-1.23,1.19-1,2.47-2,1.7-1.35-1-4.9,2.42-5.13,3.57-.24,2.54-2.13,3.56-1.3l.18.14c-3.12-3.46-5.23-3.79-1.92-6.46,1.5-1.21.3,1.75,4.7,6.17l2.46,2.84c.72.62,1.66,1.46,2.88,2.62l.87.82c6.83,6.54,8.19-7,12.12-.45,2.81,4.7,4.95,2.4,5.15,1.12,1.28-8,2.25-2.16,3.83-4.87,3.57-6.11-.75-5.13,7.89-7.38a1.54,1.54,0,0,1,.58-.35c3-1,2.87-10.23,6.48-11,2.06-.43,6.61-6.61,4.76-8.46-2.93-2.94,3.11-5,2.62-1-.25,2.07,4.94-.62,5.09-1.81.21-1.68-1.69-4.19.45-5.59.5-.33,4.43,1.68,2.2-2.48-.65-1.22-4.78,0-1-1.06a38.66,38.66,0,0,0,14.24-6.82c1.78-1.44,4.48-1.75,5.83-.06,1.52,1.9,5.7-1.54,2.88-3.06-1.29-.7,1.23-3.17,1.26-4.75,0-1.94,2.74-4.39-2-2.7-3.51,1.25-5.11-2.94-7-1.08-2.32,2.24-3.63,1.45-6.25,2-2,.41-1.51-2.34-4.63-2.1-3.27.25-5.16-6.11-9.37-3-2.32,1.71-4.8,1.41-5.59,4.39-.9,3.39-4.29,3.05-5.35,7.39-1.56,6.41-18.65,2.56-14.36-2.46.89-1,1.72-5.26.84-5.89-2.89-2.06,1.58-1.81-2.16-5.17h0ZM694,295s-.72,3.47,1.42.91C696.38,294.74,694,295,694,295Zm-.33,2.15c-.34-.08-1.33-.28-1.57,0S695.39,300.5,693.64,297.18Zm.12,3c-3.07-1.69-6,3.37-1.6,1C692.88,300.81,694.68,300.71,693.76,300.2Zm1.06,1.93c-.37.37.69,2.36,1.21.82S695,301.93,694.81,302.14Zm-2.41,3.57c1.54,2.51,1.88-3-2.53-1.78-.15,0-.14.3-.12.45.17,1.45,1.66-.3,2.65,1.33h0Z" transform="translate(0.37 0.37)" />
	<path id="_40567464" data-name=" 40567464" class="cls-2" d="M703.1,433.63C703.18,433.6,703.17,433.63,703.1,433.63Zm-34.94-65.54c-1.58,2.71-2.54-3.17-3.83,4.87-.21,1.28-2.35,3.58-5.15-1.12-3.92-6.57-5.28,7-12.12.45l-.87-.82c1.47,3.66-1.45,4.11-1.91,2.21a54.16,54.16,0,0,0-3.71-5.8l-.62-.29a8.89,8.89,0,0,1-1.89-1.29l-.18-.14c-1-.83,0,1.06-3.56,1.3-3.37.23-.72,3.78-2.42,5.13,7.48,5.52,6.45,1.16,11.4,8.14,3.58,5,8.19-1.89,11.16,7,.91,2.73,10.39-6,4.52,7.71-2.33,5.41,2.73,3.08,4.14,2.4-2.64-1.81,1.64-.66,2.88-1.61,2.6-2,5.23.68,2.68-1.27-1.43-1.1-3.79-6.87-.48-5.59a1.84,1.84,0,0,1,1.12,1.27c1.19,3.65,5.37,2.66,3.92,6.08-2.7,6.32-3.83,3.9-3.86,3.9-1.07-.13-2.07,2.86-2.8.82a3.14,3.14,0,0,1-.31-1.78c-.22-.1-.5-.23-.84-.42-.67-.37-1.22-.69-1.65-1,.82,2.66-.28,11.52,7,7.76,1.45-.75,4.34-9.8,8.56-1.12,1.18,2.42,1,6.53-3.47,4.44-2.37-1.1-9.11-1.66-4.49,1.81,4.85,3.65-3.87,5.56-3.92,6.56-.51,10,13.18,7.22,7.62,14-3.65,4.46,7.73.29,9.25,1.33a6.64,6.64,0,0,0,5,1.36c1-1.1,1.89-1.09,4.11-1.09-.08-5.75,5.72-7.61,8.16-5.8.91.67-2-.41-.36,1.48,1.31,1.51-2,.73.09,1.9,2.92,1.61.46,1.25,1.05,2.21.28.45.55.5.67.49a3.62,3.62,0,0,0-.88.56l-.1.08c.24.32.47,1.22.4,3.34l-.06.7,1.18,1.27h.9c1-1.61,2.79-2.1,3.13-3.69,1.35-.64,1.52-1.45,2.86-1.69l.06-1.54c4.09-2.31.79-5.89,4.85-7.38l1.46-1c-.89-1.22-.4-2.14-8.61-3.85-3.22-.67-2.21-8.66-8.38-2.69-.64.62-4.37,1-4.28.85.42-.73,2.69-.92,3.56-1.69,6.85-6.14,8.75,3.87,12.69,1.72,5.94-3.24,14.55,6.34,12.57-.63-1.9-6.66-9.47-3-10.07-8.46-.5-4.59-7.32-1.18-8-9.22-.26-3.27-7.83-13.74-9-19.31,0-.09-3.89-8.22-6.28-8.49-5.88-.67-12.32-5.9-13.92-6-2.38-.13-2.66-4.43-1.21-5.81-8.64,2.26-4.33,1.28-7.89,7.38h0Z" transform="translate(0.37 0.37)" />
	<path id="Zhe_Jiang" data-name="Zhe Jiang" class="cls-2" d="M729.6,466.92C729.32,465,729.85,465.6,729.6,466.92Zm8-28.7c.33,1.46,2.56-.64-.89-2.3-.42.24-.73.32-.8.83-.22,1.54.82,1,1.93,1.27-.1.25-.29,0-.24.2h0Zm1.63-4.22c-1,.11-.48,1.27,1.66.88,0-.38-.06-1.54-.61-1.53-.29,0-.54.6-1,.65h0Zm3,1.8c-2.41.75.05,1.43,1.37,1.15C743.93,436.35,742.44,435.75,742.29,435.8Zm2.74,5.26c-1.32,1.86,2.19.76.69-.57C745.38,440.19,745.14,440.89,745,441.06Zm-2,6,.18,1.66C744,448.71,744.35,446.93,743,447.1ZM740.89,446c-.51,1.14,1.4.91,1.93.82C742.54,446.1,741.05,445.62,740.89,446Zm-6.75-3c.42.48,3.63.14,3.89-.33,0,0-1.94-.25-2.14-1.63a2.88,2.88,0,0,0-1.84.33s-.15,1.36.09,1.63h0Zm-4.37,3.93c.19.19.3-1.44.3-1.48l-.87-.3c-.31.42-.32,2.24.57,1.78Zm3.38-2.33c-2.9-.13-1.27,4.39,4.37,2-.16-.18-1.41-2-1.15-1-.76,1.15-1.22-.12-2-.54a7.37,7.37,0,0,0-1.21-.39h0Zm-1.87,7c2.56-.15,3.18,1.34,5.58,1.45,5.4.26-3.6-4.59-4.76-4.87-1.59-.37-4.45,3.62-.81,3.42Zm3.74,6.39c1-.45,3.19-.66,1-1.32-.11-1.17,1-.3,1-1.56,0-.65-1-1.09-1.5-.84s-.49,2-1.5,2.16c-2.11.3-1.07.48-.06,1.62.76.87.14.33,1-.06h0Zm-.36,4.93c2.89.52.92-2.2.3-1.74-.24.18,0,.61-.12.9a2.91,2.91,0,0,0-.18.84Zm-1.94,3.67c-1,.85,1.18,2.77,1.18,1.3C733.9,467.46,733.21,466.14,732.72,466.54Zm-3,3.48c3.26,2.41,3.29-1.5,1.36-.92l-.21.07a3.1,3.1,0,0,0-1.15.85h0Zm.32,6.48c-1.21,1,1.7,2.13,1.25.94C730.91,476.44,730.78,476.66,730,476.5Zm1.88,3.91c.07,1.47,1.72,6.28,2.23,2.21.16-1.32-.15-2.14-1.36-2.6l-.87.39h0Zm-4.07,5c-.52,2.6,2.5,1.45,1.15.09C728.77,485.24,728,485.35,727.84,485.37Zm-7.69,7c.47.74,4.68,1.72,2.59-2a3.69,3.69,0,0,0-.72.27l-1.87,1.72h0Zm-.39,3.2c.49-1.08.68-2-.87-1.84C718.67,494.55,719.26,495.12,719.76,495.62Zm2.38-1.36c-.64.3-.28.69-1.21.73-2.16.09,2.28,3.47,2,.12,0-.41-.17-1.13-.78-.85h0Zm-20-60C701.16,435,701.68,433.68,702.12,434.27Zm-.47-6.72c-2.44-1.81-8.24,0-8.16,5.8-2.21,0-3.06,0-4.11,1.09l-.06.67.06.67.12.79-.54,1.09-.18.82-.42.88v.57l-.18,1-.24.54-.33.57-.18,1-.57.57-.87.3-.87.36-.66.57-.84.54,1,.67.42.45.75.79.51.79.09.67-.33.82-.69.73-.48.6-.9.54-1.08,0-.81-.33-.86-.56-.69-.17-.86.24-.75.62-.51.8-.12.79,0,1.18,0,.26.41,1.15.38.67.39.65.12.27-.08.8-.14.92-.38.35-.5.59-.33.5-.15.74-.29.36-.3.39-.29.32-.23.51-.26.36-.39.68-.6.6-.33.67-.54.51-.6.79-.6.54-.51.6-.72.6-.78.42-.54.36-.72.39-.63.36-.63.21-.66.07c.16,1.62-1.91,3.57-1.92,3.6-1.53,4,7.32,6.82,8.1,14.22.21,2,.61,3,1.11,3.44,1.79,1.67,4.85-3.46,5,4.6.05,3.32,3,5.92,3,9.52,0,2.76,2.77-.13,4.49,1.09,3.08,2.18,6.34-6.89,8.29-4,3.85,5.67,1.59,6.22,8.77,3.42,2.76-1.08,4.33,1.25,6,3,3.52-1,1.33-7.09,1.61-7.81,1.11-2.76,4.72-5.33.78-7.09-7.15-3.21,4.19.43,4.93-2.22.89-3.19,2.33-1.7.66-4.51-1.1-1.85,1.93-2.65,3.91.54,1.62,2.61,1.83-3.08,4.87-3,.88,0,2.71,1.14-.78-3.61-3.23-4.38-7.57-2.56-.48-3.73,2.11-.35,2.62-2.43.48-3-6.13-1.63,7.79,1.28-2.46-4.21-1.41-.76.91-2.43,1.44-3.43.91-1.72,1.81,4.68,3.25,1.38a4.41,4.41,0,0,0,.29-.93c0,.21.07.44.12.71.14.76,3,2.51,1.91-2.87-1.75-8.93-.22-4.61-5.17-2.48-.21.09-4.9,3.77-3.9.67,0,0,2.62-.61,6.72-5.08,3.29-3.59,4.84-2.21-2.83-4.56-5.67-1.74-5.61-9.64-12.63-3.2-6.13,5.62-4-4.46-11.32.23-4.23,2.69.47-2.91,5-2.77,7.19.23,3-2,7.28-4.94a31.53,31.53,0,0,0,3.48-3c-1.35-.16-1.4,0-2.07-1.11-1.32.05-1.4,0-1.81-.82l-1.45-.15c-1.65-1.65,1.05-2.72-2.41-3.29-1.35.25-1.51,1.05-2.86,1.69-.35,1.59-2.13,2.08-3.13,3.69h-.9l-1.18-1.27.06-.7c.07-2.12-.16-3-.4-3.34h0l.09-.07.45-.33.16-.1a1.56,1.56,0,0,1,.27-.13c-.11,0-.39,0-.67-.49-.6-1,1.87-.6-1.05-2.21-2.14-1.18,1.22-.4-.09-1.9-1.64-1.89,1.27-.81.36-1.48h0Z" transform="translate(0.37 0.37)" />
	<path id="An_Hui" data-name="An Hui" class="cls-2" d="M678.24,452.82l.12-.79.51-.8.75-.62.86-.24.69.17.86.56.81.33,1.08,0,.9-.54.48-.6.69-.73.33-.82-.09-.67-.51-.79-.75-.79-.42-.45-1-.67.84-.54.66-.57.87-.36.87-.3.57-.57.18-1,.33-.57.24-.54.18-1v-.57l.42-.88.18-.82.54-1.09-.12-.79-.06-.67.06-.67a6.64,6.64,0,0,1-5-1.36c-1.52-1-12.91,3.13-9.25-1.33,5.56-6.78-8.13-4-7.62-14,.05-1,8.77-2.91,3.92-6.56-4.62-3.48,2.12-2.92,4.49-1.81,4.48,2.09,4.64-2,3.47-4.44-4.22-8.68-7.11.37-8.56,1.12-7.26,3.76-6.17-5.1-7-7.76l-.66-.42c-1.41.68-6.47,3-4.14-2.4,5.87-13.67-3.62-5-4.52-7.71-3-8.94-7.58-2-11.16-7-5-7-3.92-2.62-11.4-8.14-1.27,1-.33.78-2.47,2-.17,8,5.57,2.43,6,7.27.53,5.43,4.58,2-3.12,7.69-6,4.39-4.9-7.75-10.94-4.93-5,2.31,3.87,8.38-3.25,9.8-4.86,1,3.78,8.83-5.47,8.83-1.06,0-4-2.19-2.22,1.86,1.06,2.44,4.44.5,4.75,5s1.64.2,5.53,4.75c3.42,4,5-8.44,7.33,6,1.89,11.9-6.59.92-8.63,14.75a6.57,6.57,0,0,1,3.16,2.67c.64,1.15,3.79-.1,6.49,2,4.09,3.16,1.28.74-1.56,6.19-1,1.93,1.74,4.78,2.16,7.33.73,4.36,1.06-2.28,3.67,8.17a4.58,4.58,0,0,0,1.15,2.36c2.46,2.16,6.79-5.77,9.13-4.82,6.66,2.7-1.27,3.51-.54,7.75.59,3.44,8.21-1.76,6.73-3.79-.81-1.12,1.6-2.93,2.52-1.68.67.91-.42.92,1.2.84,4.89-.24-1.23,5.1,9.13,4.93,4.17-.07,5.47.93,5.59,2.11l.66-.07.63-.21.63-.36.72-.39.54-.36.78-.42.72-.6.51-.6.6-.54.6-.79.54-.51.33-.67.6-.6.39-.68.26-.36.23-.51.29-.32.3-.39.29-.36.15-.74.33-.5.5-.59.38-.35.14-.92.08-.8-.12-.27-.39-.65-.38-.67-.41-1.15,0-.26,0-1.18h0Z" transform="translate(0.37 0.37)" />
	<path id="He_Nan" data-name="He Nan" class="cls-2" d="M628.11,420.86c-2.3-14.45-3.91-2-7.33-6-3.89-4.54-5.22-.28-5.53-4.75s-3.69-2.54-4.75-5c-1.75-4.05,1.16-1.86,2.22-1.86,9.25,0,.61-7.86,5.47-8.83,7.12-1.42-1.71-7.48,3.25-9.8,6-2.82,5,9.32,10.94,4.93,7.71-5.68,3.66-2.26,3.12-7.69-.47-4.84-6.21.71-6-7.27-19.88.65-7-2.42-15-5.44-2.68-1,2-1.54-5.67-1.54-4.67,0,1-5.17,1.81-7.1.88-2.16,4.72-.75,4.91-4.75.09-1.91,9-6.09,9.91-9.61l0-.17c0-.15.08-.27.12-.37l0-.09c-.3.44-1.32,1.55-3.9,2.17s.06,1.4-3.89,2c-.19,0-5.45,4.27-3.32-.33.36-.77,3.25-2.24,1.81-4.75-1.77,1.08-1.92,2.51-3.36.75-3.48-4.23-2.74,2.83-5.59,1.14,0,0-16.74-3.85-18.06-4-1.22,12.09-.18,16.33-10.19,19.71-6.33,2.14,4.09,1.73-10.7,2.16-8.55.25.15,1.1-6.25,2.94-8.7,2.51.3,3.93-10.76,5.59-4.28.64-2.85,2.52-13.22,4.51a4.93,4.93,0,0,0-.91.38c2,2.46,2,5.79,3,6.63.7.59,3,4.7,1.93,5.83-.34.35,1,.87,2.38,3.14,3.08,5,2.55-2,2.77,7.95a1.76,1.76,0,0,0,.13.64v0c.56,1.32,2.78,1.34,4.06,5.6.66,2.2,4.81,6.78,7,6.83,3.84.09,8.32,6.08,12,4.33,3.86-1.86,4.15.67,7.75-.84,6.62-2.78,5.92,4.52,12.08-.24,3.77-2.91,1.59,5.9,2,6.49.76,1,2,3,3.06,3.67,3,1.88-.38,2.18,4.33.24.4-.16,6.7,1.66,6.79,2,.73,3.1,1.71,2.59,4.57,4,3.66,1.75,5.45-7,6.43.54,0,.25.86.47,1.88.93,2-13.84,10.53-2.85,8.63-14.75h0Z" transform="translate(0.37 0.37)" />
	<path id="Shan1_Xi" data-name="Shan1 Xi" class="cls-2" d="M579.14,362.27c10-3.39,9-7.63,10.19-19.71-8.79-9.88-1.29-5.57-1.05-10.81.17-3.62,5.9-13.71,5.89-14.12,0-.06-5.29-9.6-7.15-10.28-4.42-1.61-1.89-7.62-.28-8.74,4.09-2.84,0-4.52.54-5.83,1.87-4.64,9.22-.55,10-5.14,2.49-14,1.53-1.28-1.09-11.27-.52-2-11.86-3.92-4.67-7.16,11.25-5.07,3.69-2.11,2.83-4.66-1.89-5.59-1.18-2.67-4-8,1.05,8.77-2.26,4.74-5.9,9-2.6,3.06-7.75-1.07-10.2,2.33-3.27,4.52-7.78-3.09-10.82,3.25a94.37,94.37,0,0,0-3,9.39c-1,3.46-4-2.22-8.08,2.12-3.38,3.62-1.77.88-4.82,2.09,0,4.33,3.71.21-1.05,8.71-1.41,2.52.09,8.64-5.88,12.5-2.26,1.46-1.34,6.48-.06,8.11,6.07,7.75-.35,5.56,1.08,10.64.68,2.43-6.11,4.25-2.76,15.62,1.12,3.81-1.88,8.62,1,12.14,4.2,5.2-8.81,20-3.56,24.44a6.83,6.83,0,0,1,1,1,4.93,4.93,0,0,1,.91-.38c10.37-2,8.94-3.87,13.22-4.51,11.06-1.66,2.06-3.08,10.76-5.59,6.4-1.84-2.3-2.69,6.25-2.94,14.78-.44,4.36,0,10.7-2.16Z" transform="translate(0.37 0.37)" />
	<path id="Shan3_Xi" data-name="Shan3 Xi" class="cls-2" d="M517.13,311.52C517.42,311.67,517.41,311.77,517.13,311.52Zm19.21,65.34c-5.25-4.4,7.75-19.24,3.56-24.44-2.84-3.52.16-8.33-1-12.14-3.35-11.38,3.45-13.2,2.76-15.62-1.43-5.08,5-2.89-1.08-10.64-1.28-1.64-2.2-6.65.06-8.11,6-3.86,4.47-10,5.88-12.5,4.76-8.49,1-4.37,1.05-8.71,1.36-4.31-3.16-2.39-5.45,1.66-1.56,2.75,0-.89-4.58-.18-.29,0-5.54-2.58-5-.82.07.24,4.35,2.35-.15,3-3,.41.53-1.6-4.73,3.57-1.84,1.81,1.36,1.71-4,4.56-.34.18-9.54,10.28-8.17,12.76a9.53,9.53,0,0,0,1.62,2.31,4.59,4.59,0,0,0-3.21,0c-3,.82,4.49,9.4-5.36,6.11-3.32-1.11-.37,3.78-8.17-1.36-1.58-1-2.83-1.68-4.2-1.28-1.13.33-2.34,1.38-3.88,3.49-2.3,3.15-1.69,6.38-2,9.94-.64,7.18,2.05,2.66,10.79,9.14,7.42,5.5,13,3.13,10.12,12-1.58,4.89-5.63-.25-1.57,10.12,2.76,7-15.55,1.37-14.58,5.06.1.37,6.48,5.66-5.78,5.66-4.16,0-6.68-6.89-12.17-3.49-3.85,2.38,2.56,2.14-1.45,6.51-5.7,6.22,3.29,2.59,4.22,7.23.35,1.73-4.7-1.37-4.7,8.55,0,7.26,8.64,6.23-4,5.78-2.75-.1-2.24-3-8.19,3.61.6,1.56,8.08,7.06.48,8.67-2.41.51-4.72-1.53-4.65,2.37.47-.23.62.44,2.33,2,.39.35,7.11-5.75,8.29-.3.94,4.35,13.63-1.81,14.72,2.22,1.82,6.67,5.66,1.14,6.19,3.18.65,2.51,2.63,1,4.87,3.49,3,3.32,2.59,2.15,5.17,1,1.15-.51,2.91-.26,4.87.41,10.85,3.69,4,3.82,9,5.16,2.84.76,1.88.56,2.83,1.82,3.17,4.22,6.6,2.83,8.34,2.91.43-5.53-2.85-2.56-.23-6.58,1.47-2.26-4.79-4.1-.12-9.43,1.65-1.89,9.77,1.54,9.43-2.58-.41-5.18-5.4-1.9-5.89-5.41-.54-3.9-5.4-3-5.65-3.61-1.13-2.55,10-1,11.3-.72,8.7,1.69,3-3.55,6.85.66,2.07,2.27,4.07-.85,6.29-1.85v0a1.76,1.76,0,0,1-.13-.64c-.22-10,.31-3-2.77-7.95-1.41-2.27-2.72-2.79-2.38-3.14,1.09-1.14-1.23-5.25-1.93-5.83-1-.84-1-4.16-3-6.63a6.83,6.83,0,0,0-1-1h0Z" transform="translate(0.37 0.37)" />
	<path id="Gan_Su" data-name="Gan Su" class="cls-2" d="M475.37,362.32c-.81,0-6.78-5.6-6.84-5.62-5.4-1.67,2-.76-5.06-3.33-7.2-2.63-.13-7.39-.09-8.58.22-6.87-7.53-5.42-2.44-10.94,1.61-1.75-4.7-4.9-6.09-8-1-2.26-6.29-.17-3.26-2,2.85-1.71-.69-3.45-2.65-3.66-8.6.3-7.71-2.58-13.83-7.07-.71-.52-1.91-1.16-2.32-2-1.84-3.59,3.7-5.44,2-9-1.1-2.25,4.91-.91,9.67-8.71,3.85-6.29.19-3.54,0-9-.24-6.92-14.76,5.58-18.2,3.6-6-3.44-6.69-1.72-8.83-1.66-10.05.28-.7,3.24-2.5,5.14-5.17,5.45-4.05,6.37-13.38-2-3.12-2.78-5.08.16-3.89-4.23,1.61-5.91-2.28-4.62-5-7.5-1.16-1.25-1.68-.59-2-2.46-.25-1.29-3-2.54-4.45-3.67-7.5-5.76-12.08,2,1.84-11.26,8.44-8,1.21-11.79-10.42-10.32-14.58,1.84-7.52.76-9.07,4.75-.68,1.75-6.77.62-4.49-4,1.18-2.37-4.91-8.67-6.51-11.09-4.54-6.86-.38-2.86,1-7.92.54-2.05-5-17.47-6.15-20.58-4.2-.51-7.82-.87-10-1-1.18,0-1.74-.1-2.07-.39-4.86,4.1-5.07,3.62-3.58,9.76.47,1.93,1.74,4.68-4.93,4.81-5.78.11-5.3,3.56-7.93,1.8-6-4-16.69,5.32-20.37,9.74-1.93,2.32-9.68,10.62-12.74,9.31-8.66-3.71-5.38.17-8.65,9-1.89,5.12,1.1,9.44-3.91,13.16-3.08,2.29-2.56,3.1-2.59,3.19,2.59,2.37,7.75,2.45,8.06,6.25.2,2.46,13.9,1,9.07,3.06-3.88,1.68,1.92,2.18,4.63,1.56,4.39-1,2.07,8.74,7.33,8.05,13.54-1.77,5,1.08,16.47,3.43,3.08.63,3.69-1.78,6.31,1.38,3.4,4.1,3.65-.65,6.13.12,3.72,1.15.19-4.68,3.06-6.07,6.77-3.28-1.24-19.49,12.56-7.27l6.73,5.41c2.42.54,2.25-4.53,5.17-2.94,3.89,2.12,5.16-3.58,7.87.66,1.23,1.93,16.47,19.63,16.35,13.88-.13-6,2.72,1.71,4.93,2.46s-.18,1.26,5.29,5.17c3.83,2.73,1.66.27,7.39,5.83,7.65,7.42,5.2.9,8.47.78,2.34-.08.46,4.85,1.86,5.77,12.52,8.19,1.57,6.56,7.51,12.5,1.44,1.45-2.46,1.27.36,4.09,2,2,.55,3.67,3.06,5.53,3.05,2.25-.76,3.74-.66,6.61.12,3.4-3.18,1.13-3.18,5.53,0,4.69-8.74,1.44-6.73,8.23,1,3.25-12.57,4.85-7.75,10.52,5.85,6.89,5.67,2.29.3,8.47-4.48,5.15-15.58-11-18.75-2.22-.24.67,6.66,10.72,7.51,10.94,3.86,1,3.87-.58,6,3.37a1.32,1.32,0,0,1,1.82-.9c2.69.67-3.82,11.65,2.64,7,5.91-4.28,8.26-4.45,6.25-6.79-5.66-6.59,0-7.12.72-7.75s-.36-1.21,1.5-1.5c4.68-.75,3.16-5.92,7.51-2.16,1.87,1.61,3.48,2.13,2.7,4.45-1.92,5.77,4.42,5.32,5.23,5.89,2.48,1.73,4.44.57,7.21,1.08,3.3.61,6.9,11.18,4.63,14.78-2.12,3.35,10.85,7.94,14.08,6,2-1.21,3.12-2,3.72-2.25-.06-3.9,2.24-1.86,4.65-2.37,7.6-1.61.12-7.12-.48-8.67,6-6.65,5.45-3.71,8.19-3.61,12.61.45,4,1.48,4-5.78,0-9.92,5-6.82,4.7-8.55-.93-4.64-9.92-1-4.22-7.23,4-4.37-2.4-4.12,1.45-6.51,5.48-3.39,8,3.49,12.17,3.49,12.27,0,5.88-5.29,5.78-5.66-1-3.69,17.34,2,14.58-5.06-4.07-10.37,0-5.23,1.57-10.12,2.88-8.91-2.7-6.55-10.12-12-8.74-6.48-11.43-2-10.79-9.14-13.2,1-9-2.54-9.79,5.41-.2,2-5,3.47-3.13,5.26,3.31,3.17-2.44,4.19,1.75,4.59,8.44.82,5.55,10.82,2.26,10.61-3.78-.24-3.43-3-4.79,3.51-.08.38,2.28,4.59-1.27,4.53h0Z" transform="translate(0.37 0.37)" />
	<path id="Hu_Bei" data-name="Hu Bei" class="cls-2" d="M525.17,415.57c-4.67,5.33,1.59,7.18.12,9.43-2.62,4,.66,1.05.23,6.58a1.68,1.68,0,0,1,1.57.87c1.39,2.48-.82,2.1,1.26,2.08,1.33,0,7.58,4,5.78,8.49-1.14,2.81,0,6-4.09,4.87s-7.37,9.73-13.76,5.47c-1.05-.7-1.69-1.15-2.58.06-2.09,2.82-2.64.07-6.6,1.73-2.94,1.23-1.53,2.23,0,3.8,1,1,.58,5.79-.46,6.91-2.46,2.67-.33,4.51,1.12,2.33s1.54,1.46,2.38,2.12c2.26,1.75,2.28,5.63,5,6.14,1.83.34,1,3.41,2.59,4.44q.3.19.53.38c1.26-1.12,4.37-9,5.5-9.14,3.7-.53,8.5-6.09,12.21-2.06,2.56,2.79,6.15-.92,6.09-1,.22-1.39-2-1.72-1.6-5.14,1.1-.4,2.39-.27,3.47-.63.83-1.79,3.41-.08,4.76.06,3.79.4,6.52,3,10.37,3,3.4,0,9,3.69,9.95,4.87,1.92,2.4,2.77.12,5.15.12,5.21,0,3.28-2.9,5.45-3.39,4.06-.9,1.9,2.29,1.9,3.45,0,8.47,7.3-2.18,8.71-4,2.56-3.3.11,1.35,1.57,2.21,6.13,3.63,1.46,4,1.73,9.4.05,1.1,2.61,1.8,4.88,3.44-.24-4.38,2.74-3.18,5-6.23.16-.21,5.71-1.81,5.73-1.81,5.53,0,5.45-6.48,8.14-3.69,1.77,1.84.19-2.18,2-2.18,5.16,0,3-2.74,4.85-3.75,4.9-2.68,3.18,5.58,10.33-.49A4.58,4.58,0,0,1,633.4,462c-2.61-10.45-2.94-3.82-3.67-8.17-.43-2.56-3.17-5.4-2.16-7.33,2.84-5.45,5.65-3,1.56-6.19-2.7-2.08-5.85-.83-6.49-2a6.57,6.57,0,0,0-3.16-2.67c-1-.47-1.85-.68-1.88-.93-1-7.56-2.77,1.21-6.43-.54-2.86-1.37-3.84-.87-4.57-4-.09-.39-6.39-2.21-6.79-2-4.71,1.94-1.36,1.64-4.33-.24-1.07-.68-2.31-2.69-3.06-3.67-.46-.59,1.72-9.4-2-6.49-6.16,4.76-5.46-2.54-12.08.24-3.61,1.51-3.9-1-7.75.84-3.64,1.75-8.12-4.24-12-4.33-2.21-.05-6.36-4.63-7-6.83-1.28-4.25-3.49-4.28-4.06-5.6-2.22,1-4.22,4.12-6.29,1.85-3.83-4.21,1.85,1-6.85-.66-1.26-.24-12.43-1.82-11.3.72.25.56,5.11-.29,5.65,3.61.49,3.51,5.47.23,5.89,5.41.33,4.13-7.78.7-9.43,2.58h0Z" transform="translate(0.37 0.37)" />
	<path id="Jiang_Xi" data-name="Jiang Xi" class="cls-2" d="M601.85,488.1c.32,3.32,3.43,6.6-.18,8.89-1.8,1.15-.81,3.39-2.79,4.69-4,2.62-2.1,2.79-4.25,6-1.2,1.8-2.71,6.85.75,6.8,7-.1-.4,2.18,3.44,7,1.24,1.54-2,6.8,1,7,3.17.22,2,.93,2.53,3.33.3,1.25-1.72,4.59-1.48,5,1.42,2.54,3.57-1.66,4.34-1.12s-2.68,3-2.68,3.36c0,2.83-.89,3.56-2.17,5.65a44.53,44.53,0,0,0,1.26,6.61c.48,1.65,1.1,3,1.81,2.94,8.08-.25,5.88-5.11,11.18-.24l0,1c.4,3.88-3.2,1.67-5,7.1-.41,1.24-3.68,4.22-3.65,4.35.66,3,6.9,1.15,8.5,1,5.08-.4,4.56-2.76,6.36-2.84,3.73-.17,5.18-2,7-2,.69.73,4.73,4.67,5.55,4.72,2.54.13.43-2.87.31-3.42-.62-2.78.31-3.91,1.83-4.27.28-9.86.52-5.07,2-12.77,2.4-12.56,9.28-8.59,6.84-12.15-3.58-5.23,3.6-3.18,2.11-6.5-4.21-9.39.73-8.72,4.49-10.88,4.71-2.7,2.85-6.95,2.85-6.95-.67-5.17-2.58-4.82.13-5.72,1.54-.51,4.91-8.12,7-5.61,3.67,4.36,2.45-.76,6.71-1.57,3.57-.68,2.1-2,3.59-2.07,5.17-.39-1.17-1.32,4.45-4.57-.5-.47-.9-1.47-1.11-3.44-.78-7.4-9.63-10.19-8.1-14.22,0,0,2.08-2,1.92-3.6-.12-1.18-1.42-2.18-5.59-2.11-10.36.17-4.24-5.16-9.13-4.93-1.62.08-.53.07-1.2-.84-.92-1.25-3.34.56-2.52,1.68,1.48,2-6.14,7.23-6.73,3.79-.73-4.24,7.2-5,.54-7.75-2.34-.95-6.67,7-9.13,4.82-7.14,6.07-5.42-2.19-10.33.49-1.84,1,.31,3.75-4.85,3.75-1.86,0-.28,4-2,2.18-2.69-2.8-2.61,3.69-8.14,3.69,0,0-5.57,1.6-5.73,1.81-2.29,3-5.27,1.85-5,6.23a7.67,7.67,0,0,1,3.42,5.64h0Z" transform="translate(0.37 0.37)" />
	<path id="_40484744" data-name=" 40484744" class="cls-3" d="M515.74,637.8c.2-.32-.44-1.15-1.39-.77C513.14,638.23,514.33,640.07,515.74,637.8Z" transform="translate(0.37 0.37)" />
	<path id="_40547016" data-name=" 40547016" class="cls-3" d="M516.22,640.93c1.72.75,1.85-1,0-.6Z" transform="translate(0.37 0.37)" />
	<path id="Hu_Nan" data-name="Hu Nan" class="cls-2" d="M601.62,551.32a44.54,44.54,0,0,1-1.26-6.61c1.28-2.09,2.17-2.82,2.17-5.65,0-.4,3.51-2.78,2.68-3.36s-2.92,3.65-4.34,1.12c-.24-.43,1.78-3.76,1.48-5-.57-2.4.64-3.1-2.53-3.33-3-.21.24-5.47-1-7-3.84-4.77,3.56-7.06-3.44-7-3.47.05-1.95-5-.75-6.8,2.15-3.23.25-3.4,4.25-6,2-1.3,1-3.55,2.79-4.69,3.61-2.3.5-5.57.18-8.89a7.67,7.67,0,0,0-3.42-5.64c-2.27-1.65-4.82-2.35-4.88-3.44-.27-5.4,4.4-5.77-1.73-9.4-1.45-.86,1-5.51-1.57-2.21-1.41,1.81-8.71,12.46-8.71,4,0-1.15,2.16-4.35-1.9-3.45-2.18.49-.24,3.39-5.45,3.39-2.39,0-3.24,2.28-5.15-.12-.94-1.18-6.55-4.87-9.95-4.87-3.85,0-6.58-2.59-10.37-3-1.36-.14-3.93-1.85-4.76-.06-1.08.36-2.37.24-3.47.63-.44,3.42,1.82,3.75,1.6,5.14.07.08-3.53,3.79-6.09,1-3.71-4-8.5,1.52-12.21,2.06-1.13.16-4.24,8-5.5,9.14,2.33,1.85.13,3.15,0,5.91,0,.83,1.41,1.54.75,1.87a2,2,0,0,0-.63,2.51c1.29,1.6.3,1-.15,2.69.63,4.79,3.16,3.52,2.14,5.8-4,8.93,3.48,7.71,1.84,11-2.15,4.32-5.3,1.4-10.88,9.34-3.52,5,7.77-3.6,11.72.7,2.2,2.4-1.58,1.89-.33,3.48,1.8,2.29-3.68,3.34-2.65,4.65,2.82,3.62-1.15,3.94-.55,7a7.16,7.16,0,0,1,2.49.2c.81,1.8.31,3.6.38,5.5,1.09-.67,2.35-.74,3.84.74.08.08,1.34,4.63,2.28-.78.56-3.25,3.06-4.86,4.85-1.63,3.57,6.42,6.29-6.13,10.82-4.38,2.28.88,7.2-2.35,9,.63,1,1.64-2.91,8.83,1.9,6.59,2.7-1.25-.83,4.23-.78,7.47,0,2.32-9.1,9.68-5,10.94,1.19.37,6.08-7.5,8-.76.5,1.73-1.64,8.44,2.53,6.44,3.2-1.54-.62-3.31,6.33-1.57,4.1,1,2.18-7.64,4.37-8.1,9.91-2.08,9,6.94,13,3.81,1.27-1,1.73-5.75-.3-6-2.42-.31,2.25-2.57,3.19-3.66,3.24-3.73,7.1,5.35,13.14.39a4.73,4.73,0,0,1,2-.76h0Z" transform="translate(0.37 0.37)" />
	<path id="Gui_Zhou" data-name="Gui Zhou" class="cls-2" d="M522.48,542c-.08-1.9.42-3.7-.38-5.5a7.16,7.16,0,0,0-2.49-.2c-.61-3.11,3.37-3.42.55-7-1-1.32,4.45-2.37,2.65-4.65-1.25-1.59,2.54-1.08.33-3.48-4-4.3-15.25,4.32-11.72-.7,5.58-7.94,8.73-5,10.88-9.34,1.64-3.29-5.84-2.07-1.84-11,1-2.28-1.51-1-2.14-5.8-.32,1.18-1.34.75-1.75,1.93-2.22,6.36-2,2.45-3.86,2.09-3.82-.75-2.15-5.93-3.83-4.17-1.09,1.14-1.39,4.08-1.3-2.15,0-2-4-.84-4.22-4.05-.58-7.64.24-3.4-3.29-4.9s-4.29,3.53-6.34-1.1c-1.37-3.09-6.15-1.55-6.25-.78-.3,2.3,1.26,2.78-.24,4.33-3.93,4.05-3.9-2.71-6.55.6-2.19,2.73-3.53-1.3-2.22,1.92.6,1.49-3.85,6.95-3.85,2.94,0-2.57-2.31-7.12-2.1-1.38.08,2.21-1.58,2.5-3,2a4.09,4.09,0,0,1-1.66-1c-2.65-2.75-9.51-1.64-10.34,1.56-1.16,4.5,2.69,3.48,4.69,5.95.92,1.14,10.57,2.19,6.37,7.15-1.23,1.45-11,2.44-12.44,1.5a5.63,5.63,0,0,0-3.59-.45c-2.39,1.61-.49,6.36-6.63,7.29-11.16,1.68-7.2-2.48-10.85-2.18-3.08.26-1.12,4.27-5.21.76-1.22-1.05-1.07-.27-2.23-.33-.39,3.12-7.14,4.6-4.22,6.71,2.73,2-1.53,5.08.93,6.32.08.27.13,5.78,4.7,3.36a6,6,0,0,0,1.45-1.57c1.67,0,2.16.66,3.65-.18,2.72-1.54,7.15,4.75,4.25,7-1.51,1.16-7.33,11-5.33,13.33,1.46,1.7,2.76,1.91,3.74,4.08,1.14,2.54,5.38,2.11,2.14,4.53-1,.76-.69,2.84-1.84,4a9,9,0,0,0-1.79,2.42c1.84,8.35,9.39-3.63,12.2-2.64,4.38,1.54,7.23,4.78,11.84,5.53,0,0,4.14,4.41,5.23-3.79.27-2.05,4-.7,7-3.31,1.71-1.45,8.76-1.06,7.27-5.17-1.4-3.86,4.88-5.56,5.65-1.62.21,1.06,2.57,5.07,3.55,4.75,3.56-1.19.69-1.73,3.85,1.14,4.58,4.17,8.22-5.68,10-6.37,2.11-.83,5.17,5.54,5.17,1.92,0-1.54,1.57-4.68,2.88-3.37,2.86,2.86,6.34-.72,3.85-1.5-4.27-1.34,3-1.72,4.45-1.5,1.06.16,2.4-2.79,4.28-4h0Z" transform="translate(0.37 0.37)" />
	<path id="Si_Chuan" data-name="Si Chuan" class="cls-2" d="M457.51,492.19c.83-3.21,7.68-4.31,10.34-1.56a4.09,4.09,0,0,0,1.66,1c0-.18.09-.37.11-.55,1.13-10.43-8.59-6.73-8.86-8.95-1.09-9-3-3.08-5-6.25l-3.31-4.51s5.41-4.51,6.19-4.93c6.52-3.45-1.09-4,.54-7.27,4.94-9.87,9.08,3.15,12.92-.84s2,5.7,10.22,4.39c2-.32,7-8.31,7-9.92,0-7,3-4.33,6.67-4.33,1.87,0,5.55-12.44,8.71-14.3,7.13-4.21-2.65-4.68-.72-7.45,1.31-1.88,1.87-1.8,2-1.67a11.81,11.81,0,0,1-.6-3.32c-2-.67-3.71-.92-4.87-.41-2.58,1.13-2.22,2.3-5.17-1-2.24-2.52-4.22-1-4.87-3.49-.53-2-4.37,3.48-6.19-3.18-1.1-4-13.78,2.12-14.72-2.22-1.18-5.45-7.91.65-8.29.3-1.71-1.56-1.86-2.23-2.33-2s-1.68,1-3.72,2.25c-3.22,1.91-16.19-2.67-14.08-6,2.27-3.6-1.32-14.17-4.63-14.78-2.77-.51-4.73.65-7.21-1.08-.81-.57-7.15-.12-5.23-5.89.77-2.32-.84-2.83-2.7-4.45-4.35-3.76-2.83,1.41-7.51,2.16-1.86.3-.82.91-1.5,1.5s-6.38,1.16-.72,7.75c2,2.34-.34,2.51-6.25,6.79-6.46,4.68,0-6.3-2.64-7a1.32,1.32,0,0,0-1.82.9c-.9,2.69,1.68,9.76-3.65,6.31-4-2.58-7.15,1.84-5.35,5.65,1.61,3.4-4.3,4.46-7,4.09s-.07-.39-2.7,1.74c-.62.5-4,1.27-3-.36.41-.65,4-2.08-.66-4.51-1.49-.77-5.31,5.61-4.87.9.26-2.83,4-1.27-1.68-6-3.53-3-.54,9.12-9.92.6-1.93-1.75-2.66-3.34-5.23-4.57-5.91-2.84.22-16.94-12.14-17.3-6.16-.18-5-3.6-9.64.84s4.59,7.46,3,9c0,0-1.08,0-3.73,3.49-1.18,1.55-.31,2.31-2,3.57-3.77,2.82,1.74,7.72,4.22,8.77a3,3,0,0,1,1,.61c2,.54,5.76,3.85,6.07,6.94.15,1.46,1.91,2.35,1.81,7.19,0,.89,2.52,3.84,3.13,5.2.31.68,5.2,6.94,1,5.38-4.7-1.75.32,5.13-.09,6.89s3,1,1.21,7.5c-1.24,4.62,2.82,10,.06,14.15-.05.08-.26,5.9-.24,12.47,0,7.85.39,16.77,1.74,18.24,3,3.28-1-3,3-5.86,2.87-2.05,4.6-7.16,6.33-.36.94,3.71,7.14,5.28,3.3,9.34-2.13,2.25,3.19,8.9,4.75,7.13.65-.73,4.55-1.42,4.85-.82.93,1.82,5.91,14.12,6.09,15.63.31,2.58,6.35,6.24,5,8.34-3.12,5,2.07,3,2.24,7.15.19,4.61,7.37,5.68,10.84,2.74,8.79-7.44,4.17,4.93,7.44.85,1.39-1.73.75-1.94,3.13-2.42,1.54-.31,2.76-4.82,1.21-10.1-.26-.88-.29-9.38.12-9.58,2.07-1,3.61-.67,5.06-3,2.43-3.83,7.83-3.7,5.58-9.4-.61-1.55,2.07-5.34,3.8-3.26,1.41,1.69,4.55-2.24,2.62-3.82-6.13-5,13.44-4.44,8.62-1.65-5.63,3.26,3.66,4.17.21,9.82-2.56,4.19,5.63,5.85,9.78.94,2.72-3.23,6,0,4.75,3.31-1,2.74,0,2.79,1.57,2.67a5.63,5.63,0,0,1,3.59.45c1.41.94,11.21-.05,12.44-1.5,4.2-5-5.45-6-6.37-7.15-2-2.47-5.85-1.45-4.69-5.95h0Z" transform="translate(0.37 0.37)" />
	<path id="Yun_Nan" data-name="Yun Nan" class="cls-2" d="M424.32,524.91c-2.47-1.24,1.79-4.35-.93-6.32-2.92-2.11,3.83-3.59,4.22-6.71,1.16.06,1-.72,2.23.33,4.09,3.52,2.14-.5,5.21-.76,3.65-.31-.31,3.86,10.85,2.18,6.15-.93,4.24-5.68,6.63-7.29-1.55.12-2.58.06-1.57-2.67,1.22-3.31-2-6.53-4.75-3.31-4.15,4.91-12.33,3.25-9.78-.94,3.45-5.65-5.84-6.56-.21-9.82,4.82-2.79-14.75-3.39-8.62,1.65,1.93,1.58-1.21,5.52-2.62,3.82-1.73-2.08-4.41,1.72-3.8,3.26,2.25,5.7-3.15,5.57-5.58,9.4-1.45,2.29-3,1.93-5.06,3-.41.2-.38,8.71-.12,9.58,1.56,5.27.34,9.79-1.21,10.1-2.39.48-1.75.69-3.13,2.42-3.27,4.08,1.34-8.29-7.44-.85-3.47,2.94-10.66,1.88-10.84-2.74-.17-4.18-5.36-2.14-2.24-7.15,1.31-2.1-4.72-5.76-5-8.34-.18-1.51-5.16-13.81-6.09-15.63-.31-.6-4.21.09-4.85.82-1.56,1.76-6.88-4.88-4.75-7.13,3.84-4.06-2.36-5.63-3.3-9.34-1.72-6.8-3.46-1.69-6.33.36-4,2.88,0,9.15-3,5.86-1.35-1.47-1.72-10.39-1.74-18.24-3.9.14-1.46,5.45-3.29,7.15s-1.73-2.28-2-2.87c-2.25-4.16-2.86,4.78-2.86,4.78-2.24,4,2.63,8.19-1.54,8.95s-4.07,2.17-4.34-1.9c-.31-4.72-3.3.22-4.32,2.17a35.06,35.06,0,0,0,.13,4c.15,1.95,1.72,8.68,3.55,7.69,7.61-4.13,3.25,7.17,3.73,9.07.65,2.61-.55,4.69,0,6.79.69,2.64-3.22,8.65-2.1,9.68,2.86,2.62-4.35,2.22-1.62,4.33,4.39,3.39-2.89,2.19-3.37,3.85-2.16,7.45-3.18-.57-6.66,6s-4.3-.44-7.69,5.92c-1.58,3,2.06,3.28-2.92,5.32-1.12.46-2.28,5.64-.93,6.08,6.9,2.21-1.84,9.17-1.81,9.37.86,5.49,3.7-2.29,18.93-.91,9.41.86,0,1.28.66,5.62.41,2.48,4,2.52,1.69,5.47-.78,1,2.72,2.09,1.08,4.44-4.5,6.47,17.07,3.78,8.53,9.61-3.47,2.37-.66,6.23-3.59,8.58-10.52,8.46,13.42,5.15,11.3,10.34s3.68,5.08,2.23,6.44c-3.82,3.57,5,2.57,6.21,3.36,3.66,2.45,11-7.5,12.24-2.54.8,3.24-3.49,11.79,4.61,8.67.74-.28,8.56,5.63,5.42-.33-2.25-4.28,4-6.84-.6-12.42-3-3.65-.29-12.81,3.62-9.64,1.26,1,7,1.7,8.26-.18,9.22-14.27,8,9.51,17-1.81,4.59-5.79,3.71,4.57,6.48-1.24,2-4.26,4.92,9.62,7.29,2s5.86,1.21,7.56-.39c3.34-3.13,6.53-1.62,7-5.29s5-3.85,7.5-6c1.26-1.1,3.15.83,4.94,2.91,1.66-1.42,4.68-3.72,5.52-5.63,1.8-.38,2.85,1.81,3.89.7,5.48-5.9.94-14.44-1.27-12.91-4.86,3.37-5.93.06-7.14,1.06s-2.14-.08-3.77-.36c-3.66-.64-.75-4.33-2.65-5.83-4.29-3.39-8.8,1.41-9.52-1-.9-3-1.57-5.3-.44-7.65a9,9,0,0,1,1.79-2.42c1.15-1.15.83-3.23,1.84-4,3.24-2.42-1-2-2.14-4.53-1-2.18-2.28-2.38-3.74-4.08-2-2.33,3.83-12.17,5.33-13.33,2.91-2.23-1.53-8.52-4.25-7-1.49.85-2,.18-3.65.18a6,6,0,0,1-1.45,1.57c-4.57,2.42-4.62-3.09-4.7-3.36h0Z" transform="translate(0.37 0.37)" />
	<path id="_40529352" data-name=" 40529352" class="cls-4" d="M391.47,329.49c-.09-1.53,1-2.1-1.05-2.9-4.18-1.62-.11-6.59-10.37-7.28l-1.45.12c-4.48,2.3,4,3.48-2.53,4.11-3.72.36,2,6.59,8.47,7.13,2,.17,7.31,5,6.93-1.18h0Z" transform="translate(0.37 0.37)" />
	<path id="Qing_Hai" data-name="Qing Hai" class="cls-2" d="M344.65,378.38c12.36.36,6.23,14.46,12.14,17.3,2.57,1.23,3.3,2.82,5.23,4.57,9.37,8.52,6.39-3.57,9.92-.6,5.63,4.74,1.95,3.17,1.68,6-.44,4.71,3.37-1.67,4.87-.9,4.71,2.42,1.08,3.86.66,4.51-1,1.63,2.39.86,3,.36,2.64-2.14.1-2.1,2.7-1.74s8.64-.68,7-4.09c-1.8-3.8,1.36-8.22,5.35-5.65,5.33,3.45,2.75-3.62,3.65-6.31-2.12-3.94-2.13-2.37-6-3.37-.85-.22-7.75-10.26-7.51-10.94,3.17-8.8,14.27,7.37,18.75,2.22,5.37-6.18,5.55-1.59-.3-8.47-4.82-5.67,8.72-7.26,7.75-10.52-2-6.79,6.73-3.54,6.73-8.23,0-4.4,3.3-2.13,3.18-5.53-.1-2.87,3.71-4.36.66-6.61-2.52-1.86-1-3.49-3.06-5.53-2.82-2.82,1.08-2.64-.36-4.09-5.94-5.94,5-4.31-7.51-12.5-1.41-.92.48-5.85-1.86-5.77-3.27.12-.82,6.64-8.47-.78-5.73-5.56-3.57-3.09-7.39-5.83-5.47-3.91-2.94-4.37-5.29-5.17s-5.06-8.46-4.93-2.46c.13,5.74-15.11-12-16.35-13.88-2.71-4.24-4,1.46-7.87-.66-2.91-1.59-2.75,3.49-5.17,2.94l-6.73-5.41c-13.8-12.22-5.79,4-12.56,7.27-2.87,1.39.65,7.22-3.06,6.07-2.48-.77-2.73,4-6.13-.12-2.62-3.16-3.23-.75-6.31-1.38-11.48-2.35-2.92-5.19-16.47-3.43-5.26.69-2.94-9.06-7.33-8.05-2.71.62-8.51.12-4.63-1.56,4.83-2.09-8.87-.6-9.07-3.06-.32-3.8-5.47-3.87-8.06-6.25,0,.09-.6-.54-5.85-1.13-3.86-.43-32.16,3-32.34,5.32-.25,3.27,4.64.75,2.32,5.89-3.32,7.37,7.48,10.73,7.9,17.26.18,2.9,5.72,6.52-1.9,6.14-3.33-.17-12.69,4.14-3.5,7.34,2.57.9,3,13.66-5.06,7.19-2.64-2.12-5.82-1.67-8.32-4.05-2.25-2.15.46,2-6.93,1.72l-.53,0c-9.57-.25.93,3.9,1,4.82,0,0-.6.38-.6.91,0,1.3-1.13,2.33-1.27,4.2-.29,3.82-7.39,1.3-4.52,7.92,1,2.24-2,3.56,1.69,4.11,4.18.63-2.28,3.68-1.09,5s1.36,2.14,1,5.32c-.4,3.86-6.27,4-3.22,7.71,2.57,3.11,6.1,14.11,8,15.23,11.26,6.61,10.89-.15,13.61.65.83.24,3.67,8.88,10.8,11.71,5,2,2.38,2.13,12.06,4.47,7.65,1.85,8,7.9,10.91,5.68,2.42-1.85,5.68,5.37,12.45,1.72,7.83-4.21,6.54,7.77,12.42,7.77,5.54,0,1,6.23,1.75,7.35,2.38,3.58,2.11,2.14,6.24,4.05,3.08,1.42,3.41-.64,5.15,2.54,1.33,2.43,3.91,0,2-1.9-.77-.8-.85-6.26,4,.09,3.3,4.32,5.06,1.14,4.73-3.08-.06-.73,7.36.9,9.1-3.17,2.33-5.45,3.24-5.51,9.55-4.84a2.13,2.13,0,0,1,.35.07,3,3,0,0,0-1-.61c-2.48-1-8-5.95-4.22-8.77,1.68-1.26.81-2,2-3.57,2.65-3.49,3.73-3.49,3.73-3.49,1.57-1.57-7.68-4.57-3-9s3.48-1,9.64-.84h0Zm31.42-54.85c6.55-.63-2-1.82,2.53-4.11l1.45-.12c10.25.7,6.19,5.66,10.37,7.28,2.07.8,1,1.38,1.05,2.9.38,6.22-4.94,1.35-6.93,1.18-6.43-.54-12.19-6.77-8.47-7.13h0Z" transform="translate(0.37 0.37)" />
	<path id="_40521080" data-name=" 40521080" class="cls-4" d="M666.3,399.68C666.55,399,667.87,400.37,666.3,399.68Zm2.42-4.69c2.55,2-.09-.72-2.68,1.27-1.24,1-5.53-.2-2.88,1.61l.35-.16a1.39,1.39,0,0,1,.31.59c.44.27,1,.58,1.65,1,.34.19.62.33.84.42a3.14,3.14,0,0,0,.31,1.78c.73,2,1.73-.95,2.8-.82,0,0,1.16,2.42,3.86-3.9,1.46-3.41-2.73-2.43-3.92-6.08a1.84,1.84,0,0,0-1.12-1.27c-3.31-1.28-.95,4.5.48,5.59h0Z" transform="translate(0.37 0.37)" />
	<path id="Hai_Nan" data-name="Hai Nan" class="cls-2" d="M516.57,662.56c-.91,3.3,2.6-.15-4.88,5.44-6.95,5.19-4.41,2.16-5.06,9.61-.27,3.09,1.14,3.91.87,6-.84,6.9,11.17,5.71,14.26,8.37,5.44,4.7,3.79-5.38,9-3.29,2.64,1.05,2.05-4.13,8-5.35.54-.11,3.73-12.39,6.4-14.63,2.43-2-.4-2.68,3.06-3,2.59-.24,1-5.94-.18-7.33-.14-.16-.42,0-.64,0-2.12-.15-4.23-4-6-1-1.2,2-4.35-1.32-7.35.27-3.19,1.69-4.19,1.05-4.25,1.09-2.28,1.55-4.64-1.48-7.11,1.42-1.5,1.76-5.18-1.18-6.15,2.36h0Z" transform="translate(0.37 0.37)" />
	<path id="Chong_Qing" data-name="Chong Qing" class="cls-2" d="M505.94,425C506,425.08,506,425.15,505.94,425Zm4.24,45.3c-.85-.65-1-4.26-2.38-2.12s-3.57.34-1.12-2.33c1-1.12,1.43-5.94.46-6.91-1.58-1.58-3-2.57,0-3.8,4-1.66,4.51,1.09,6.6-1.73.9-1.21,1.53-.76,2.58-.06,6.39,4.26,9.52-6.6,13.76-5.47s2.95-2.06,4.09-4.87c1.81-4.47-4.44-8.5-5.78-8.49-2.08,0,.14.4-1.26-2.08a1.68,1.68,0,0,0-1.57-.87c-1.74-.09-5.17,1.31-8.34-2.91-.95-1.26,0-1.06-2.83-1.82-5-1.34,1.84-1.47-9-5.16a11.81,11.81,0,0,0,.6,3.32c-.17-.13-.73-.21-2,1.67-1.93,2.77,7.85,3.24.72,7.45-3.16,1.87-6.85,14.3-8.71,14.3-3.72,0-6.67-2.68-6.67,4.33,0,1.61-5,9.59-7,9.92C474.05,464,476,454.18,472,458.3s-8-9-12.92.84c-1.63,3.26,6,3.82-.54,7.27-.78.41-6.19,4.91-6.19,4.93l3.31,4.51c2,3.17,4-2.71,5,6.25.27,2.22,10-1.48,8.86,8.95,0,.19-.07.37-.11.55,1.45.45,3.11.17,3-2-.2-5.73,2.1-1.19,2.1,1.38,0,4,4.45-1.46,3.85-2.94-1.31-3.22,0,.81,2.22-1.92,2.65-3.31,2.62,3.45,6.55-.6,1.5-1.55-.06-2,.24-4.33.1-.77,4.88-2.31,6.25.78,2.06,4.63,2.73-.44,6.34,1.1s2.7-2.74,3.29,4.9c.24,3.21,4.25,2.07,4.22,4.05-.1,6.22.21,3.29,1.3,2.15,1.67-1.76,0,3.42,3.83,4.17,1.86.37,1.64,4.27,3.86-2.09.41-1.18,1.43-.75,1.75-1.93.45-1.69,1.44-1.09.15-2.69a2,2,0,0,1,.63-2.51c.65-.34-.78-1-.75-1.87.08-2.76,2.29-4.06,0-5.91q-.23-.18-.53-.38c-1.6-1-.77-4.1-2.59-4.44-2.73-.51-2.74-4.39-5-6.14h0Z" transform="translate(0.37 0.37)" />
	<path id="Tian_Jin" data-name="Tian Jin" class="cls-2" d="M633,288.65c-5.93,4.36,4.31,9,12,7.83-1.06-3.61,1.88-12.53,4.73-13.29-.19-.71,0-1-.86-1.45-3.38-1.75,2.6-3.43-2.16-4.21-3.4-.55-7-7.26-2.52-8,2.41-.4-2.36-4.18-4.21-4.09-.85.71-3.5,3-3.59,4-.39,4,1.08,2.27,1.19,4.44.28,5.64-3,3-4.09,2.76a1.71,1.71,0,0,0-1.13,1.93c0,8.21,4,7.65.65,10.09Z" transform="translate(0.37 0.37)" />
	<path id="Bei_Jing" data-name="Bei Jing" class="cls-2" d="M621.12,279.56c6.11.31-.53,5.48,6.81-.6,1.16-1,3.07-.58,4.46-.39a1.71,1.71,0,0,1,1.13-1.93c-.12-.3-.2-.33-.1-.67.8-3-.85-1.79-1.88-3.46-2.17-3.51,3-3,4.89-3.07.09-.94,2.74-3.27,3.59-4-9.19-6.5,8.33-9.45-5.72-8.81-5,.23-5.55-11.18-10.13-1.81,0,0-5.51,4.54-6.93,4.72-6.28.79,2.66,5.35-.36,7.89-6.4,5.38-6.9.8-4.61,7.07.79,2.17-3.15,3.09,1.84,5,7,2.74.53-.33,7,0h0Z" transform="translate(0.37 0.37)" />
	<path id="Ning_Xia" data-name="Ning Xia" class="cls-2" d="M451.59,323.87c-3,1.83,2.24-.26,3.26,2,1.38,3.08,7.7,6.22,6.09,8-5.08,5.52,2.66,4.07,2.44,10.94,0,1.2-7.11,6,.09,8.58,7,2.57-.34,1.66,5.06,3.33.06,0,6,5.61,6.84,5.62,3.55.06,1.19-4.15,1.27-4.53,1.36-6.49,1-3.75,4.79-3.51,3.29.21,6.18-9.79-2.26-10.61-4.18-.4,1.57-1.42-1.75-4.59-1.87-1.79,2.93-3.25,3.13-5.26.8-7.95-3.41-4.39,9.79-5.41.27-3.57-.34-6.79,2-9.94,1.54-2.11,2.75-3.15,3.88-3.49-5.21-4.23-.44,2.57-4.55-3.79-3.89-6-6.31,2.14-11.6-5.11-.75-1,4.72-10.28,6.31-11.66,1.13-1,1.69.62-2.1-7-1.62-3.23-8.47,2.88-8.47,2.88-3.05,1.5,1-1.87-4.27,6.13-4.42,6.72,1,6.23-1.86,10.22-3.29,4.51,5.95,6.48-11.54,11.78l-9.17,1.75c2,.2,5.5,1.95,2.65,3.66h0Z" transform="translate(0.37 0.37)" />
	<path id="Nei_Meng_Gu" data-name="Nei Meng Gu" class="cls-2" d="M426.22,288.05c3.44,2,18-10.52,18.2-3.6.19,5.47,3.85,2.72,0,9-4.77,7.79-10.77,6.45-9.67,8.71,1.74,3.56-3.8,5.42-2,9,.41.81,1.61,1.44,2.32,2,6.12,4.5,5.23,7.37,13.83,7.07l9.17-1.75c17.49-5.3,8.25-7.27,11.54-11.78,2.91-4-2.56-3.5,1.86-10.22,5.27-8,1.21-4.63,4.27-6.13,0,0,6.86-6.12,8.47-2.88,3.79,7.59,3.23,6,2.1,7-1.59,1.38-7.06,10.62-6.31,11.66,5.29,7.25,7.71-.91,11.6,5.11,4.11,6.36-.66-.44,4.55,3.79,1.36-.4,2.61.24,4.2,1.28,7.8,5.14,4.85.25,8.17,1.36,9.85,3.29,2.33-5.28,5.36-6.11a4.6,4.6,0,0,1,3.21,0,5.65,5.65,0,0,1-.72-.87,15.26,15.26,0,0,1-.89-1.44c-1.37-2.48,7.83-12.57,8.17-12.76,5.34-2.85,2.14-2.75,4-4.56,5.26-5.17,1.72-3.16,4.73-3.57,4.5-.61.22-2.73.15-3-.5-1.77,4.74.86,5,.82,4.54-.71,3,2.93,4.58.18,2.29-4.05,6.82-6,5.45-1.66,3-1.2,1.44,1.54,4.82-2.09,4-4.34,7.07,1.35,8.08-2.12a94.39,94.39,0,0,1,3-9.39c3-6.33,7.55,1.28,10.82-3.25,2.46-3.4,7.61.73,10.2-2.33,3.64-4.29,7-.26,5.9-9l-.48-1.2-.6-.84-.66-.9-.6-.78.06-.9.42-.72.18-.9-.48-1.14-.66-1,.66-1,.09-1.93.6-1.57h1.81l.72-1.33.36-1.45.48-1.2.36-1.45.6-1.08,1.2-1.33,1.08-1.33,1.08-1.57,1.33-1.2,1.2.36,1.08.84,1.2,1.33,1,1.08-.6,1.93-.6,1.81v1.93l.72,1.93h3.25l1.08-.72.6-1.33.84-1.2,1.08-1,1.2-.84,1.33-1.2,1.2-.84,1.2-1.2,1.82-.44.57.88.54.91,1.33.7.54-.39.63-.42.45-.66.9-.88.87-.88.33-.67.54-.24.68,0,1,.78h1.14l1.44.18,1.5-.18,1.26-.48.42-.9.72-1.08-.36-.6-.48-.54-.36-.66.66-.72.42-.78v-.78l-.42-.54-.18-.66.12-.9.6-1.08.84-1h3.12l1.44-.48.66-.6.84-.84.72-.78,1.32-.3h1.44l1.26.42,1,1,.78,1,.9.84.66,1.08.06,1.32.3,1.62,1.08,1.14.42,1.5,1,1.08.84,1.38,1.56,1-.18,1-1.14.54-1.08.84-.12,1.38.6,1.2,1.62.54,1,1.14.18,1.2V242l.42,1.32h1.26l.6-.72,1.74-.18h1.08l1.08-.18.72-.48.78.72h1.62l1.68-.06h1l1.2-.18c3.79-2.16,2.16-2.82,1.8-3.85-2.55-7.41,0-9-2.16-11.54-3.08-3.59,2.55-4.47,3.61-3.61,4,3.3,2.1-1.34,7.45,9.37,1.6,3.2,3.81-7.58,10.82-10.1,5.57-2,6.66-6.36,8.89-6,7,1,2-4.18,6.24-4.81,8.1-1.19,4.81-1,4.28-2.09-1.24-2.5,9,2.6,10.64-2.3,3.49-10.12,6.12,3.93,6.12-10.94-2.2-.35-1.53.53-2.56-.3-1.67-1.34-4.9-.41-1.08-3.6.91-.76-1.07-5.45-1.12-5.5-3.52-4.17-1.51-5.32-3.5-6.5-4.88-2.91.86-6.32-3.74-3.17-5.06,3.45-8.46,7.7-8.89,4.66-.58-4.08-6.1-8.83-4.67-10.85,1.83-2.59-1.9-2.6-.27-5.08,2.64-4-2.73-5.66-3.19-7.89-.77-3.65-5.53-.62-3.83-2.75,2.33-2.91.1-6.86,4.31-3.84,6.7,4.8,2.62-1.75,5.79.94,5.86,5,5-1.6,4.31-2.63-2.82-4,3.53-.1,3.53-6.44a4.9,4.9,0,0,0-.45-.92c-6.08-7.7,4.65-5.32,5.39-9.06.62-3.08-2.61-1.09-2.92-1.84-2.3-5.48-3.12,8.5-7.14.06-1.85-3.88-8.4-5.76-6.9-9.52s14.61-14.29,18.19-21.28c3.8-7.44,3.11,6.08,6.19,4.45,2.74-1.45-1.72-6.76-.66-7.93,2.16-2.39-1-10.28,2.28-11.54,8.75-3.35.11-13,2.88-19.83,7.06-17.27,7.9-17.07.18-24.22-12-11.14-5.47-1.29-11.84,1.26-8.08,3.23-9.86,1.42-13.58,3.37-8.27,4.32-9.75-5.19-12.32-10.64-3.17-6.7,2.64-4.12-1.62-6-1.75-.78-4.5-6.38-6.43-3.19-3,5-2.85,2.5-7,.66-10.77-4.81,10.73-9.68-3.16-17.79a6.1,6.1,0,0,0-2.53.94c-4,4.07-.86-4.28-11.63,10-1.15,1.53-4,3.2-1.66,5.65,1.66,1.76,7.78-6.15,7.63,3.32-.07,4.41,6.51,4.06-3.59,12.7-4.15,3.55-2.64,11.28-6.21,15.26L646.2,69.85c.14,1.29,7.66.31-.78,7.57-2.81,2.42-3.55-.59-9.62,6.37-7.68,8.81-19-2-19.41.3-1.76,9.16-9.08,17.58-9.43,27.28-.21,5.89-7.59,2.5.3,12.68,2.58,3.33,4-3.39,13.94-3.55,6-.1,4.48,8.34,10.52-1,2.93-4.51,12.2-1.86,15.26,1.2,1.46,1.46,4.17,1.32,4.45,3.37s19.54,14.52,9.8,17.49c-7.49,2.28-10.42-3.68-13.88-.6-2.49,2.21-3.43-2.07-7.09,1-7.56,6.39-9.72-1.08-9.86,5-.1,4.61-9.67-.28-12.38,6.49-2.06,5.15-2.52-.09-2.52,8.17,0,2.55-8.08,8.17-15.86,8.17s-1.71-.65-11,6.91c-6.06,4.93-8.93,7.35-17.3,5.65-4.79-1-5.31-7.91-13.53-4.84,0,0-7.56,11.68-5.64,15.14,6.22,11.21,11.8,7.71-1.81,16.79-5.31,3.54-.72-4.41-10.88,11.24-3.41,5.26-7.13,1.14-11.66,5.41s-22.68.57-33.29,2.28c-20.49,3.3-27.51,14.79-38,12.92-5-.89,4-5.21-8-3.67-9.07,1.17-14.77-8.29-23.26-8.29-6.74,0-4.65-6.07-9.37-7.69-21.09-7.24-24.1-1.58-33.59-5-4.8-1.75-19.29-4.1-30-5.41,1.12,3.11,6.7,18.53,6.15,20.58-1.34,5.06-5.5,1.06-1,7.92,1.6,2.43,7.69,8.73,6.51,11.09-2.28,4.58,3.81,5.71,4.49,4,1.55-4-5.5-2.91,9.07-4.75,11.63-1.47,18.86,2.29,10.42,10.32-13.92,13.26-9.34,5.5-1.84,11.26,1.46,1.12,4.2,2.38,4.45,3.67.36,1.87.88,1.21,2,2.46,2.67,2.88,6.56,1.59,5,7.5-1.2,4.4.77,1.45,3.89,4.23,9.33,8.33,8.21,7.42,13.38,2,1.8-1.9-7.55-4.86,2.5-5.14,2.14-.06,2.85-1.78,8.83,1.66h0Z" transform="translate(0.37 0.37)" />
	<path id="Guang_Xi" data-name="Guang Xi" class="cls-2" d="M553.13,604.53C547.31,608,554.9,602.93,553.13,604.53Zm-51.27-54.17c-1.76.69-5.4,10.54-10,6.37-3.15-2.88-.28-2.33-3.85-1.14-1,.33-3.34-3.68-3.55-4.75-.77-3.94-7.05-2.24-5.65,1.62,1.49,4.11-5.56,3.72-7.27,5.17-3.07,2.61-6.76,1.26-7,3.31-1.09,8.2-5.18,3.79-5.23,3.79-4.61-.75-7.46-4-11.84-5.53-2.81-1-10.36,11-12.2,2.64-1.13,2.35-.46,4.6.44,7.65.72,2.44,5.23-2.36,9.52,1,1.9,1.5-1,5.2,2.65,5.83,1.63.28,2.53,1.38,3.77.36s2.28,2.31,7.14-1.06c2.21-1.53,6.74,7,1.27,12.91-1,1.12-2.09-1.07-3.89-.7-.84,1.92-3.86,4.21-5.52,5.63,1.36,1.59,2.66,3.27,3.56,3.77,6.29,3.47.76,1.65,6.54,1.18,5.23-.43.49,3.91,7.57,1.07,1.26-.51,8.62,2.1,1.92,7.33-4.05,3.16.67,5,1.2,9.62.28,2.4,3.79,2,5,3.37.25.29,1.74,5.52,10.46,5.77,2.86.08,3.76-1.3,6.19.54,5.11,3.88,7.91-2.33,8.83.36,1,3,3.57-.77,1.92-2.94-2-2.6,2.29-3,2.22-1.86-.16,2.68-.16.8,1.74,3.49s2.29-4.48,2.88-.6c.43,2.83,7.73.82,4.57,4.27-2.07,2.25,7,.91,8.05-.66s-1.85-2.44.12-4.21c1.39-1.25-1.07,1.7,1,2.64,1.83.85.27,2.59,3.31,2.76-1-4.48,2.17-1.33,2.86-6.58.4-3,9.44,1.34,7.56-4.41s1.69.13,6.09-4.05c3.27-3.11-1.11-.56.33-5.29.5-1.65,4.74-1.51,6.09-2.54l1.28-1c.6-.47,1-.79,1.22-1L554,604c6.1-3.73-1.27-12,5.87-17,2-1.4-.48-1,2.1-3,8-6.3-.21-6.49,3.55-8.41,5-2.58-.8-6.51.71-9.89-6.95-1.74-3.13,0-6.33,1.57-4.17,2-2-4.71-2.53-6.44-1.94-6.75-6.82,1.12-8,.76-4.13-1.26,5-8.62,5-10.94,0-3.23,3.48-8.72.78-7.47-4.81,2.24-.92-4.95-1.9-6.59-1.78-3-6.7.25-9-.63-4.53-1.75-7.25,10.81-10.82,4.38-1.79-3.23-4.29-1.62-4.85,1.63-.94,5.41-2.19.87-2.28.78-1.49-1.49-2.75-1.42-3.84-.74-1.87,1.16-3.22,4.11-4.28,4-1.46-.21-8.72.16-4.45,1.5,2.49.78-1,4.37-3.85,1.5-1.31-1.31-2.88,1.83-2.88,3.37,0,3.62-3.06-2.75-5.17-1.92h0Z" transform="translate(0.37 0.37)" />
	<path id="_40431192" data-name=" 40431192" class="cls-4" d="M636.16,359.84c-3.31,2.67-1.2,3,1.92,6.46a8.89,8.89,0,0,0,1.89,1.29c1.25.51,0-1.61,3.35,1.26L640.86,366c-4.4-4.42-3.2-7.38-4.7-6.17h0Zm4.42,8a54.17,54.17,0,0,1,3.71,5.8c.46,1.89,3.37,1.45,1.91-2.21-1.22-1.15-2.16-2-2.88-2.62-3.36-2.87-2.1-.75-3.35-1.26l.62.29h0Z" transform="translate(0.37 0.37)" />
	<path id="Xin_Jiang" data-name="Xin Jiang" class="cls-2" d="M275.53,270.75c0-.09-.49-.9,2.59-3.19,5-3.72,2-8,3.91-13.16,3.27-8.85,0-12.72,8.65-9,3.06,1.31,10.81-7,12.74-9.31,3.68-4.42,14.39-13.72,20.37-9.74,2.63,1.76,2.16-1.7,7.93-1.8,6.67-.12,5.4-2.88,4.93-4.81-1.5-6.14-1.28-5.66,3.58-9.76-.86-.75-.22-3.1-4.9-11.21-1.72-3-1.57-14.08-4-15.44s-3.58-1-.24-3.79c2-1.66-4.95-.51-7.45-3.49-20.26-24.07-25-13.88-34.91-20.37-2.25-1.48-4.94-.48-6.85-2.22-2.32-2.12-14.12-2.39-8.35-14.24,2.31-4.75,4.27-.21,5-9.13.62-7.13,5.68-3.67-.7-15.24-2-3.58-.89-17.43-7.11-17.53-3.27-.05-2.11-4.17-8.17-4.59-4.85-.34-6.31-8.93-9.92-11.7-6.27-4.81,1.41-3.76-3.62-6.56-3.05-1.7,8.05-9.19-4.55-7.74-2.2.25-6.66-6.44-8.17,1.12-2.08,10.46-13.82,4.91-17.69,9.76-5.31,6.66-.9,25.17-10.93,21.11-3.26-1.32-4.68,3.86-6.79-.12-2.53-4.79-5,2.37-16.83-8.77-3.37-3.18-5.12.3-11.6,8.53-1.69,2.14-10.18,13.06-10.22,14.84-.15,6.9,4.46,8.56,1.5,9.43-5.1,1.51-8.82-5.94-9.56-5.89-3.09.22-6.66,2.08-16.11.3-1-.19-10.9-1.26-11.12-.06-.85,4.67,7.05,2.5,3.43,11.42-1.6,3.94,1.16,9.37-1,13-1.16,2,4.34,12.84-3.06,11.36-3.12-.62-3.77,2.2-2.22,3.67,1.72,1.63-6.09-.76-6.37,6.67-.27,7.11-3,5.34-8.89,7.63-1.44.56-14.12,2.67-18.15,3.79-6.27,1.74-6.14-3.09-7.27,0-1.49,4.08-4.07.7-6,2.58-5.36,5.2-11-8.33-17.55,0C50.63,188.94,52.54,180,46,182.4c-3.11,1.15-2.64-3.8-1.92-5.11,3-5.37-6.39,2-9.74-2.46-2.43-3.24-1.26,1.29-9.62,3.55-1.66.45-6.78-5.83-11.72,5.47-2.08,4.76-7.12-1.08-6.67,5.89.2,3.15,2.48,4-.6,6.61-2.84,2.4.19,8.37,3.55,7.09,2.76-1.05,10.66,3.28,9.19,6.73-3.89,9.14-.63,9.88-3.49,13.4s5.64,9.23-3.55,8.29c-1.6-.16-8.87-5.53-7.09.78.49,1.75,3.4.24,4.39,2,1.76,3.19,5.1,1.72,8.47,8.11,1.28,2.43,4.87,1,5,7.57.1,3.85-4.82,6-2.1,9.8,3.06,4.25-4.09,3,6,4.21,3.24.38-3.77.9,3.12,6.13,4.58,3.48,8.23,7.08,14.3,8.17,5.51,1-2.29,3.24-.48,5.53,4.13,5.22-3.44,10.1,2.8,12.73,1.63.69,5.49,4.71,4.74,7.71,24.65,1,11.94,1.71,19.71-6.53,2.11-2.23,4.89-2.47,6.89-5.14,2.58-3.43,6.64,2.39,11.06,3.19,10.67,1.91,5.9,7.93,19.53,1.5,3.49-1.65,9.95-1.19,10.52,3.55.71,5.91,16.69,8.74,20.13,7.39,6.64-2.6,13.32-2.73,17.26-1.34,5.61,2,10.64,2,12.77-2.23,2-4,12.93-1.59,22.92-1.42,18.85.32,13.07,3.79,18.81,5.17,4.48,1.07,7.76,4.53,11,7.63l.53,0c7.39.29,4.68-3.88,6.93-1.72,2.49,2.38,5.68,1.93,8.32,4.05,8.07,6.47,7.63-6.3,5.06-7.19-9.2-3.21.16-7.51,3.5-7.34,7.62.39,2.08-3.24,1.9-6.14-.41-6.53-11.22-9.89-7.9-17.26,2.32-5.15-2.57-2.62-2.32-5.89.18-2.33,28.48-5.75,32.34-5.32,5.26.59,5.83,1.22,5.85,1.13h0Z" transform="translate(0.37 0.37)" />
	<path id="Xi_Zang" data-name="Xi Zang" class="cls-2" d="M217.6,338.38c-3.68-.55-.72-1.87-1.69-4.11-2.87-6.62,4.23-4.1,4.52-7.92.14-1.87,1.27-2.9,1.27-4.2,0-.52.6-.88.6-.91-.06-.92-10.55-5.07-1-4.82-3.28-3.1-6.56-6.56-11-7.63-5.74-1.38,0-4.85-18.81-5.17-10-.17-20.91-2.61-22.92,1.42-2.13,4.28-7.16,4.22-12.77,2.23-3.93-1.39-10.61-1.26-17.26,1.34-3.44,1.34-19.42-1.48-20.13-7.39-.57-4.74-7-5.19-10.52-3.55-13.63,6.43-8.86.41-19.53-1.5-4.42-.79-8.48-6.62-11.06-3.19-2,2.67-4.78,2.9-6.89,5.14-7.76,8.24,4.94,7.49-19.71,6.53a3.18,3.18,0,0,1-1.24,1.78c-4.15,3.12-3.49-1.18-4,5.8-.1,1.46-3.58,2.63-2,7.73,1,3.2,5.22,5.16,2.93,15.36-1.12,5-9.35,7.8-8.89-.6.18-3.27-5.71-1.65-5.39,1.63.49,5.21-4.53-.34.3,9.19,1.13,2.23-3.46,2.08-.57,5.11,2.41,2.53-2.3,2.61-1.23,4.77,1.54,3.09-2-.41,1.44,5.29.94,1.55,1.11,10,4.75,5.71,1-1.22,3,1.76,4.39,2.58,4.78,2.78,2.61,7.3,12.08,13.82,2.53,1.74,6,6,6.13,9.13.23,6.38,7.51-6.22,10.76-3.37.37.33.61.79,1,1.14,2.64,2.64,5.47,2.18,5.47,6.55,0,0,5.61,6.48,8,10.68,2.83,5,5.64.76,7.9,9.4,2.58,9.86,4.77-.48,10.94,5.4,2.61,2.49-1.84,6.9,1.08,7.81,3.16,1,5.71,9.95,10.88,7.09,4.68-2.58-.19,5.59.24,6.31,1.18,2,2.5.23,6.79,2.94,1.9,1.2,2.65-3.89,5,6.85,1.3,5.83,4.5-4.48,5-.12.84,7.53,5.35.13,8.11,2.46,14.55,12.31,6.92,3.09,13.4,7.57,2.8,1.94,3.31-2.44,5.53-.6,3.77,3.13,12.45-2,14.12-.06,6.21,7.34-7.08,10.07,1.14,16.65,2.42,1.94,4.64-.23,2.82-3-1.08-1.65,11.9-14.23,17.37-11.18,2.68,1.5,5.82,1.18,7.93,3.79,1.63,2,2.53-.16,6.79,4,5.47,5.28,7.24-4.46,11.18,4.21,1.47,3.23-3.47,7.43,3.61,8.05,6.37.56-.27,6.16,1.14,8.89,3.14,6.08-2.45,1.61,17.37,5.77,17,3.57,11-7.05,26.38-9.25,21.65-3.09,13.35-12.53,26.56-7.87,3.25,1.15,5.19-.6,11.84,7.09,1.32,1.53,3.8,1.7,4.93,3.43,1.26,1.92,2,.21,4.33-.66,6.49-2.45-2.76-2.1,3.43-7.51,2.56-2.24,4.38-9.34,6-.84.23,1.22,1.69-.77,3.37,1.92,2,3.18,2.26,2.67,2.28,3.23,1-1.95,4-6.9,4.32-2.17.27,4.08.09,2.68,4.34,1.9s-.71-4.91,1.54-8.95c0,0,.62-8.93,2.86-4.78.32.59.09,4.69,2,2.87s-.61-7,3.29-7.15c0-6.57.18-12.39.24-12.47,2.76-4.15-1.3-9.52-.06-14.15,1.75-6.54-1.59-5.86-1.21-7.5s-4.61-8.64.09-6.89c4.2,1.56-.69-4.7-1-5.38-.61-1.36-3.15-4.31-3.13-5.2.1-4.84-1.66-5.73-1.81-7.19-.31-3.09-4.12-6.4-6.07-6.94a2.18,2.18,0,0,0-.35-.07c-6.31-.68-7.23-.61-9.55,4.84-1.74,4.08-9.16,2.44-9.1,3.17.33,4.23-1.43,7.4-4.73,3.08-4.85-6.35-4.78-.89-4-.09,1.89,1.95-.69,4.33-2,1.9-1.74-3.18-2.08-1.12-5.15-2.54-4.13-1.91-3.86-.47-6.24-4.05-.74-1.11,3.79-7.35-1.75-7.35-5.88,0-4.59-12-12.42-7.77-6.77,3.64-10-3.58-12.45-1.72-2.9,2.22-3.26-3.83-10.91-5.68-9.68-2.35-7.1-2.5-12.06-4.47-7.13-2.83-10-11.47-10.8-11.71-2.72-.8-2.35,6-13.61-.65-1.92-1.13-5.45-12.12-8-15.23-3-3.68,2.82-3.85,3.22-7.71.33-3.18.23-4-1-5.32s5.27-4.33,1.09-5h0Z" transform="translate(0.37 0.37)" />
	<g id="g28950">
		<path id="_40416824" data-name=" 40416824" class="cls-5" d="M66.77,282.46c-2.31-3-3.36-.93-3-2.35.41-1.85-.88-.37-1.39-.44-1.83-.27-1.83-1.22-2.06-1.21-1.09.09-.8.48-1,.51s-.27-.26-1.12-1-7.42-.92-12.49,1.78c.06,1.16-3.82,2.82-2.48,4.51,4.13,5.22-3.44,10.1,2.8,12.73,1.63.69,5.49,4.71,4.74,7.71,24.65,1,11.94,1.71,19.71-6.53,1.94-2.06,4.46-2.42,6.41-4.56-1.06-1-2.27-1.7-3.08-1.06-2.24,1.78-1.48-2.66-3.26-2.92-3.24-.48-1.84-4.68-3.7-7.11h0Z" transform="translate(0.37 0.37)" />
		<path id="_40415816" data-name=" 40415816" class="cls-5" d="M45.86,313Zm2.14-.32c0-5.49,8.13,5.56,10.13-1.68,2.28-8.27,3.57-.89,5.48-5.76-2.35-.06-6.28-.3-12.91-.56a3.18,3.18,0,0,1-1.24,1.78c-4.15,3.12-3.49-1.18-4,5.8.3.65.37.73.39.74a2.2,2.2,0,0,0,.08.66c.95,5,2.06,1.81,2.06-1h0Z" transform="translate(0.37 0.37)" />
		<path id="_40041992" data-name=" 40041992" class="cls-6" d="M232.9,477.9c-3.72-1.77-5.07,3.65-12.1-1.46,1.47,3.23-3.47,7.43,3.61,8.05,6.37.56-.27,6.16,1.14,8.89,3.14,6.08-2.45,1.61,17.37,5.77,17,3.57,11-7.05,26.38-9.25,21.65-3.09,13.35-12.53,26.56-7.87,3.25,1.15,5.19-.6,11.84,7.09,1.32,1.53,3.8,1.7,4.93,3.43,1.26,1.92,2,.21,4.33-.66,5.38-2-.07-2.14,1.46-5.21-1.08-2.39-1.7-4.86-4.78-4.81-6,.1-5.59-3.74-7.63-2.89-7.29,3-2.67-3.41.47-5s.51-1.82.41-4.19c-.34-7.89-5.65,2.65-6.08-.51-.83-6.18,9.19-5,3.61-6.19-2.29-.47-1.14-4.58-4.34-4.16-11.22,1.49-7.92,7.66-14.27,4.6-6-2.88-5.91-1.15-7-4.76-.72-2.46-2.67-.6-6.33.32-3.42.86-5.11,3.29-7.66,5.14-6.61,4.79-8.87.7-13.55,2.1-1.2.36-3.81,7.12-9,7.43-4.47.26-2.43.34-2.28,2.73.16,2.63-5.86,2-7.15,1.4h0Z" transform="translate(0.37 0.37)" />
		<path id="_40041272" data-name=" 40041272" class="cls-6" d="M34.43,359.91c-1.45,0-.56.27-2.39.79.94,1.55,1.11,10,4.75,5.71.43-.51,1-.29,1.65.2L39,364.8c-.34-1.6-.63.67-1-3.08-.15-1.34-.85-2.88-1.52-2.73-1.29.29.37.84-2,.92Z" transform="translate(0.37 0.37)" />
		<path id="_40009704" data-name=" 40009704" class="cls-6" d="M32.3,341c2.07-1.11-.47-.32-.72-2.26-.87.79-2.26.12-.29,4.49,1.28-.58.28-1.83,1-2.22Z" transform="translate(0.37 0.37)" />
		<path id="_40009104" data-name=" 40009104" class="cls-6" d="M50,328c-3.47-.08,2.1-.14-3.23-1.1a19.2,19.2,0,0,1-.36,8.41A6,6,0,0,1,45,338s-1,4.23,4.49.88c1.09-.67,1.12-5.27.1-5.9-1.55-1,.27,0,.38-2.14,0-.44,2.62-2.75,0-2.81h0Z" transform="translate(0.37 0.37)" />
		<path id="_39996200" data-name=" 39996200" class="cls-5" d="M31.48,261.83c0-.06-6-8.6-9.32-10.22-.77,3.12-4.38,5.21-2,8.56,3.06,4.25-4.09,3,6,4.21,3.24.38-3.77.9,3.12,6.13,2.31,1.75,4.38,3.54,6.65,5a1.33,1.33,0,0,1,.91-.68c4.22-1.23-2.74-5.1-2.91-5.33-4.91-6.62-4.35-3.39-2.5-7.68h0Z" transform="translate(0.37 0.37)" />
	</g>
	<g id="Shang_Hai" data-name="Shang Hai">
		<path id="_40506880" data-name=" 40506880" class="cls-2" d="M723.35,436.55c6.36-1.46.06-9-2.8-10.07-2.4-.9-3.19-1.59-3.63-2.2l-1.46,1c-4.06,1.49-.76,5.07-4.85,7.38l-.06,1.54c3.46.58.76,1.64,2.41,3.29l1.45.15c.41.77.49.87,1.81.82.67,1.11.71.95,2.07,1.11a10.68,10.68,0,0,1,5.07-3h0Zm-5.88-14.48c1.13.69,4.93,2.6,6.81,2.51.79,0,2.46-.52,2.26-1.51-.53-2.58-1.85-.35-6.48-2.84-7.48-4-8-.07-4.85,1,.95.32-.21-.67,2.26.85Z" transform="translate(0.37 0.37)" />
		<path id="_39191984" data-name=" 39191984" class="cls-2" d="M722.81,425.34c-4.06-.33,1.87,2.51,3.29,1.43C727.35,425.81,723.49,425.39,722.81,425.34Z" transform="translate(0.37 0.37)" />
	</g>
	<g id="Fu_Jian" data-name="Fu Jian">
		<path id="_40547808" data-name=" 40547808" class="cls-2" d="M650.87,517.41c-3.76,2.16-8.7,1.49-4.49,10.88,1.49,3.32-5.69,1.27-2.11,6.5,2.44,3.56-4.44-.41-6.84,12.15-1.47,7.7-1.71,2.91-2,12.77,3.12-.74,8.72,1.78,8.53.13-.37-3.14,2.47,5.12,4.1,4,4.39-3.13,2.45,1.12,6,5.43,4,4.78-2,3.09,4.79,13.58a4.07,4.07,0,0,0,2.85-2.46c.5-1.31,2.07-1.18,2.88-2.46.48-.75,14-8.91,11-11.12-1.56-1.14-3.92-1-1.26-3.55,1.25-1.22,3.38-1.21,4.93-2.1,3-1.73,3.9,4.52,6.19-1.8.86-2.38-1.93-2.51,1.14-3.73,5.35-2.12-2.34-4.95,5-7,4.7-1.3-3.23-3.85,2-5.77,1.47-.53,11.41,1.5,4.75-1.62-5.1-2.39,1.38-1.85.84-4.33-1-4.57,2.62-.52-1.44-5.65-1.7-2.15,4.48-2.31.54-6.25-3.08-3.08,7.41-.8-.42-4-3.9-1.58-.76-5.26,2.22-3.49,4.84,2.89,6-5,8.77-6.91,3.13-2.14-.1-.75-1.94-2.56l.89.26a6.23,6.23,0,0,0,3.29.2c-1.66-1.75-3.24-4.08-6-3-7.18,2.81-4.92,2.25-8.77-3.42-1.95-2.87-5.21,6.2-8.29,4-1.72-1.22-4.49,1.67-4.49-1.09,0-3.6-2.93-6.21-3-9.52-.13-8.05-3.19-2.92-5-4.6-5.62,3.24.72,4.18-4.45,4.57-1.48.11,0,1.39-3.59,2.07-4.26.81-3,5.93-6.71,1.57-2.11-2.51-5.48,5.1-7,5.61-2.71.9-.81.54-.13,5.72,0,0,1.86,4.25-2.85,6.95h0ZM662,589.24C660.66,591.94,664.35,589.78,662,589.24Zm2.1-2c-3.69,1.79,2.25,2.33.72.36C664.67,587.41,664.35,587.14,664.11,587.26Zm-5.53.72c.84-.61,4.25-2.63-.6-1.74l-1.26.24c-1.5,1.12,1.26,1.3,1.86,1.5h0Zm43.07-66.19c1.18,2.77,5.69-3.71,5-4.26a4.45,4.45,0,0,0-1-.36,21.51,21.51,0,0,0-4.07,4.62Zm-1.33,4.93c.16,1.75,1.08-.22,1.78-.51,1.66-.71.46-1.14-.57-1.78-.9.81-1.32,1-1.21,2.3Zm-.46,21.9c0-.08-3.13-2.32-2.76-.9C697.38,548.81,699.61,551,699.87,548.62Zm.88-10.54c-.3,1.67.89,2.24.87,3.33s-.63,1.12.24,2.24c1.32,1.69,2.77-2.43,2.23-3.6-.24-.51-1.63-2.3-2.2-2.33a3.42,3.42,0,0,0-1.15.36h0Z" transform="translate(0.37 0.37)" />
		<path id="_38569272" data-name=" 38569272" class="cls-2" d="M666.79,579.42s-1.57.73-.82,1.33c2,1.6,2.55-5,1.2-3.62-.31.31.06,1.61-.38,2.29h0Z" transform="translate(0.37 0.37)" />
	</g>
	<g id="Guang_Dong" data-name="Guang Dong">
		<path id="_40542808" data-name=" 40542808" class="cls-2" d="M543.76,650.22c-.66,1.15-2.37.19-2.65,1.45.89.5,3.83.76,3-.76l-.39-.7Z" transform="translate(0.37 0.37)" />
		<path id="_40540776" data-name=" 40540776" class="cls-2" d="M540.62,639.6a7.68,7.68,0,0,0,1.2,2.52c2-1.35-.65-2.1-.24-4.15.25-1.26,2.3-.67,1.32-2.46-.1-.18-.42,0-.6.06-.92.43-1.51,1.41-2.4,1.8s-1-.22-1.62.6c.63,1.42,2.34.91,2.34,1.62h0Z" transform="translate(0.37 0.37)" />
		<path id="_40524296" data-name=" 40524296" class="cls-2" d="M620.79,564.68c-1.8.08-1.28,2.44-6.36,2.84-1.6.13-7.84,2-8.5-1,0-.13,3.23-3.11,3.65-4.35,1.81-5.44,5.4-3.22,5-7.1l0-1c-5.3-4.87-3.1,0-11.18.24-.72,0-1.33-1.29-1.81-2.94a4.73,4.73,0,0,0-2,.76c-6,5-9.9-4.12-13.14-.39-.94,1.09-5.61,3.34-3.19,3.66,2,.26,1.57,5,.3,6-4,3.13-3.08-5.89-13-3.81-2.19.46-.27,9.13-4.37,8.1-1.51,3.38,4.32,7.31-.71,9.89-3.75,1.92,4.48,2.12-3.55,8.41-2.59,2-.11,1.61-2.1,3-7.14,5,.22,13.29-5.87,17l-.91.55c-.37.33-1.13.95-2.5,2s-5.59.89-6.09,2.54c-1.44,4.73,2.94,2.18-.33,5.29-4.4,4.18-7.93-1.61-6.09,4.05s-7.16,1.37-7.56,4.41c-.69,5.25-3.81,2.1-2.86,6.58,4.43.25,0,2.41-.3,3.79-.43,1.81-1.61,2.62-1.32,4.33.62,3.72-2.22,1.37.9,6.91,3.94,7,3.51,3.21,4.45,5.59,1.18,3,1.57,4.64,5.83,3.25,6.66-2.18.91-6.07.42-9.19-.63-4.05-6.14-3-.12-6.91,1.86-1.22,2.41-9.8,3.67-4.39.89,3.83,2.66-1,4.69-1.38,3.1-.59,5.23-2.5,8.59-1.56,2,.55,1.13-1.26,6.37-1.26,4.93,0,0-7.37,3-4,1.52,1.7,4.52,1.59,3.37-1.32-1-2.52.81.31,2.16.06,3.11-.58,1.06,1,3.49,1.14,2.58.19,3.79-7.47,3.79-3.67,0,7.32,5.1-1.8,6.55-1,7.6,4.4,2.46-5.56,3.43-8.89.52-1.78.18,9.67,4.09,5.77a7.2,7.2,0,0,1,4.41-2.44,1.25,1.25,0,0,0,1-.62c.37-.69.45-2.21.39-5.9-.06-4-5.65-8,2.4-4.27,3.55,1.65.45,4,3.49,2.34,1.1-.59,1.39.24,2.87.47a7.76,7.76,0,0,0,3.13-.29l.85-.24c3.24-1,6.71,7.13,4.33.42-1.27-3.56,3.66-5.16,4.15-2.22.18,1.09,2.56,2.43,2.76,2.28,1.22-.86,2.48-9.13,7.75-3.55,3.89,4.11,3.47-6.71,6.91-2.88,2.33,2.6,6.58-1.68,12.14-2.34,3.82-.46.55-4.29,4.09-5.59,7.08-2.61-3.87-2.08-2.58-3.37,1.67-1.67,5.89,1.69,6.43-2.22.36-2.6,2-2.93,3.58-3.49-6.82-10.49-.83-8.8-4.79-13.58-3.56-4.31-1.62-8.56-6-5.43-1.63,1.16-4.47-7.1-4.1-4,.19,1.65-5.41-.87-8.53-.13-1.52.36-2.45,1.5-1.83,4.27.12.54,2.23,3.54-.31,3.42-.81,0-4.85-4-5.55-4.72-1.78,0-3.23,1.83-7,2h0Z" transform="translate(0.37 0.37)" />
		<path id="_39192064" data-name=" 39192064" class="cls-2" d="M663.82,580c-2.44,1.83,1.46,4.9.95.63C664.69,580,664.73,579.31,663.82,580Z" transform="translate(0.37 0.37)" />
		<path id="_40364056" data-name=" 40364056" class="cls-2" d="M590,618.94c-.57.63-3.35,2.14.28,1.87,1.33-1.71.29-2.52,0-2.6s-.14.53-.32.73h0Zm2.25-1.87c-2.42.67,1.4,1.06,1.71.89S594.52,616.43,592.23,617.07Zm8.46,2c.34-.21-2.77-3.94-4.52-5.38a1.25,1.25,0,0,1-1,.62c1.33,2.19,1.51.66,2.35,1.71,1.75,2.2-.26,5.13,3.19,3.05Zm-18.26,7.71c-.42,2.45,2.56-3.18,1.21-3.33a9,9,0,0,0-1.63.48c-1.26,1.58-2.75-.45-3.38,1.84,1.49,1.83,2.47-.87,3.8,1Z" transform="translate(0.37 0.37)" />
	</g>
	<g id="g29933">
		<g id="g29928">
			<path id="_40546000" data-name=" 40546000" class="cls-2" d="M611,616.19a2.15,2.15,0,0,0-1.9-.06,5.73,5.73,0,0,0-.84.67c1.06.27,2.86,1,2.74-.6h0Z" transform="translate(0.37 0.37)" />
			<path id="_40545208" data-name=" 40545208" class="cls-2" d="M608.82,617.22l-2,0C606.06,621.24,609.45,617.36,608.82,617.22Z" transform="translate(0.37 0.37)" />
			<path id="_40544016" data-name=" 40544016" class="cls-2" d="M605.45,620.91c1.44-1.32.16-2.41-.24-1.75S605.06,620.3,605.45,620.91Z" transform="translate(0.37 0.37)" />
		</g>
		<path id="_39122872" data-name=" 39122872" class="cls-2" d="M610,609.93c-6.86,3.27-1.56,4.83-.84,3.2.4-.9.85-1.08,1.21-2-.17-.38.06-.81-.36-1.24ZM604,611.81c-1.09.36-4.77,2-1.21,2C604.64,613.77,605.54,612.86,604,611.81Zm1.35-5.51c-.08.57-3.56,8.83,3.87,3.21,3-2.25-.22-.26-.54-2.75a6.18,6.18,0,0,0-.19-.75,7.76,7.76,0,0,1-3.13.29Z" transform="translate(0.37 0.37)" />
	</g>
	<g id="g2506">
		<g id="g2508">
			<path id="path2514" class="cls-2" d="M640.25,638.3c1.44-1.32.16-2.41-.24-1.75S639.86,637.7,640.25,638.3Z" transform="translate(0.37 0.37)" />
		</g>
		<path id="path2516" class="cls-2" d="M600.26,612.94c-5,2-.94,3.8-.46,2.66.27-.63.3.79-.18-1.1-.12-.27.92-1.26.63-1.56Zm-5,2.76c-1,.52-2.27-.05.12-.05C596.65,615.64,596.32,616.43,595.27,615.7Zm1.83-5.31c-.05.4-2.38,6.22,2.59,2.26,2-1.58-1.35,1.42-1.57-.33,0-.18-.8-1.33-.29.05-1,.26-.26-1.9-.73-2Z" transform="translate(0.37 0.37)" />
	</g>
	<g id="Tai_Wan" data-name="Tai Wan">
		<g id="g2869">
			<g id="g2456">
				<g id="g5774">
					<path id="path2873" class="cls-7" d="M739.22,541.12h-.08l-.06.06,0,.09h-.37l-.12-.12-.07,0v.11l-.07,0-.31,0,0-.09,0,0,0,.1-.09.06-.21.05-.08.06-.1,0-.22.43h0l-.23,0-.08.06v.1l-.06.06-.06.17,0,.07,0,.11-.05.07-.15.1-.06.07,0,.11-.12.22-.12,0h-.07l0,.06.21.18h.12l.22.1.09.15.09.06.06.07.13.25,0,.43-.05,0,0-.09,0-.09,0-.09-.12-.15V544l0-.1-.31-.25-.19-.09h-.12l-.07.06,0,.14-.23.2-.19.07-.08.05-.09,0-.26.16-.32.09-.08.05h-.74l-.15.13-.1,0h-.12l-.15-.11-.09,0-.22,0-.06.06h-.12l-.51.2h-.13l-.1.06-.22.21-.22.09-.09.07-.75.18H731l-.18.09-.09.07-.11,0-.1.06-.08.08-.16.09-.09,0-.07.07H730l-.24.1-.29.23-.15.2-.07.05-.06.17-.19.22v.1l.06.07v.21l-.11.11-.08,0-.08.07,0,.08-.19.23-.08.06-.37.5,0,.11,0,.09-.34.4,0,.2-.06.05,0,.1-.12.15,0,.08-.07.06-.09,0-.31.4-.08.06,0,.17,0,.06,0,0h.12l0,.09,0,.09,0,.2,0,.06V551l-.12.15,0,.09.08.06,0,.06,0,.1-.14.12-.34.14-.05.07-.08.06-.08.16v.11l0,.09-.05.07,0,.09-.34.27-.09,0-.06.06v.1h.11l0,.09.09,0H726l0,.06-.08,0-.14,0-.06-.06-.24-.08h-.15l-.27.12h-.34l-.12.14h-.1l-.19.3,0,.19-.06.05.09.06.1,0V554h-.15l-.16.09,0,.12,0,.09-.07-.1-.16-.13-.19,0-.07.07v0l-.14.17-.6,1.64-.07.08-.08.18-.32.39,0,.08-.19.23-.23.18-.19.06,0,.13-.56.72-.12.27,0,.22v0l-.08.09,0,.08-.17.07-.06.1-.29.18v.08l0,.07v.12l-.05.06-.15,0,.17.07,0,.07-.06.08-.06,0-.14-.17-.06,0-.07.07-.13.07v.1l0,.07-.17.09-.05.08.26.33v.09l-.05.07,0,.09-.06-.11v-.09l-.09.09h-.09l0-.11.06-.1v-.1l-.08.07-.14.37.1.07,0,.08,0,0h0l.11.06V561l0,.09-.24.32-.07.05-.09.22v.12l-.09,0,0,.09,0,.05-.09,0-.2.24h0l-.16.25-.08,0h-.34l0,.09.09.07v.21l-.06.05,0,.08,0,.1-.05.07v.24l-.06.09v.11l0,.07,0,.11-.08.07-.19.07,0,.1-.14.14,0,.2,0,.08-.16,0-.09.06h-.1l-.15.1-.08,0,0,.09-.25.17,0,.17v.12l-.05.09,0,.09-.08.05,0,.19h-.15l-.12,0-.09.07-.06.28,0,.07h.23v.05l-.29.41h0l0,.12-.05.06,0,.09-.06.06-.08.28-.13.14,0,.11-.12.15,0,.09-.06.06,0,.13-.08,0-.07.06-.09,0-.05.07-.09,0v.08l.06.07,0,0h-.12l-.05.07,0,.21,0,.06h-.23l-.08,0h-.09l0,.09h-.11l-.37.62v0H714l-.08,0-.12.14,0,.09,0,.22-.06.07,0,.09.1.14,0,.1-.1.14h-.19l0,.09v.11l-.13.07v.14h0l0,.09v.11l0,.08h.12l.08.12-.14.16-.08.16,0,.09-.12.18-.06.2-.08.11-.16.43,0,.43,0,.09V573l.11.05v.09l-.09,0-.13.09,0,.12.07,0h.09v.11l-.06.07v.22l.08.05.12.16.08.06-.08,0-.06.09h-.11l0-.08-.06-.05-.09.05-.14.15-.09,0,0,.52.05.09.11,0,.35,0,.09,0v.11l0,.08,0,.1-.05.06v.12l0,.09,0,.12.1.05h.1l-.13.24v.1l.09,0v.09l-.06.18v.11l0,.09.08.06.09-.07,0,.05,0,.2-.06.09-.08.29-.22.09h-.09l-.18.4V578l0,.09h.23l.1,0,0,.09-.06-.06-.44-.07-.24.39,0,.07h.06l0,.11-.08.05,0,.1.17.09h.07l.1,0-.13.18-.21.07-.05.07,0,.1,0,.09-.15.14,0,.1,0,.08-.15,0,0,.07,0,.2v.22l-.3.53,0,.2-.09.15.07-.08.09,0h.09l0,.46.07.05.09,0-.05.3-.2.08h0l-.22.07-.19.17-.2.09,0,.2,0,0,0,.21,0,.05H711V583l0,.14.13.14,0,0,.12,0,.15-.11,0,.09,0,.1.29.16h.06l.11.09.19.09.24.24.09,0,.33.28v0l.21.19.15.21.1,0,.14-.12.08,0-.06.12-.05.06v.07l.2.05-.1.08h-.12l-.06-.08-.05,0,0,.11.07.09,0,.09,0,.55,0,.08,0,.09.11.11,0,.24.19.36v.11h0l0-.09,0-.07h.12l.13.29,0,.09h-.12l-.09-.05,0-.07,0,.05v.1l0,.13v.1l.11.2v.08l.55,1.21v.1l.09.2.08.1.3.6.28.32-.13.14-.24-.22.15.35-.25.22,0,.24,0,.09,0,.1.17.15.05.08v.11l.05.06v.11l-.07,0,0,.06.09,0,.08.2.16.15,0,.08.08.1.07,0,.06.06,0,.08.18.22,0,.1-.16,0,0,0v0l.1,0H716l.2.2.08,0,.14.15,0,.08.75.55.11,0,.17.15.33.09,0,0-.05-.83.05-.17.05-.06.1,0V593l0,.06v.22l0,.07,0,.1V594h.18l.12.11v.1h-.05l.11.14.31.21.06.07.08,0h0v0l.19.07.07.07.09.06.18.06.07.06.09,0,.06.05.1,0,.07.06.59.3.07.08.1,0,.67.5.06.07.12.31,0,0,.33.21.36.42,0,.09v.27l.11.17,0,.2v.1l0,.09v.09l.25.2.05.07.08.06,0,.07.06.2.2.2-.05.1v.11l0,.1.07.07.1.28V600l.06.19v.11l0,.07,0,.12.08.06,0,.07,0,.1.08.08,0,.2,0,.07v.11l0,.07-.32.09,0,.1.11,0,0,.07v0l0,.09,0,.07,0,.07-.05.06-.16.09,0,.09.06.07-.23.2v.21l.09.05v.11l.08.06,0,.09.24.2,0,.08.08.07,0,.07,0,.15-.05.17v.34l-.07.15.05.06h.11l.06.19.06.1.24,0,.09-.14.07-.05,0-.1,0-.18,0-.08.09,0,.12-.12.08,0h.12l0,.08.26.17h.17l.1,0,0,.07.09,0,.08.05.12,0h.12l.23.22v.1l.12,0,.06,0,0,.07v.1l.16.15h.12l.08-.05,0-.09-.06-.05,0-.09v-.1l0-.08-.3-.43v-.42l0-.08,0-.08,0-.17.06,0v-.1l.21,0,.1,0,0-.07.09,0,.08-.06,0-.09v-.1l.05-.06h.11l0-.2.22-.14,0-.08-.12-.14v-.54l-.07-.1v-.11l.16-.26.06-.06v-.09l-.09,0-.12-.12,0-.09,0-.28,0,0h.05l0,0,0,0,0,0-.05-.08V600l-.05-.07,0,0,0,0,0,0v-.2l0-.06,0,0v-.06l0,0,0,0v-.09l.09-.07,0,0V599l0,0v-.07l-.05-.06,0-.19.06-.06,0-.08-.06-.07-.07-.95-.08-.09,0-.31,0-.08v-.2l.18-.52.16-.15,0-.29.05-.07.22-.58.05-.06,0-.08.12-.15,0-.1.06-.07,0-.2.05-.06,0-.2.08-.09V594l.13-.24v-.22l.05-.05v-.11l.18-.39v-.15l.08,0v-.11l0-.09v-.1l.05-.07,0-.09,0-.07.1-.05.05-.07.22-.18.12-.16v-.08l0-.08v-.43l0-.09v-.1l.06-.07,0-.09.07-.07.05-.18.1-.15.07-.06.25-.1.07-.06h.11l.06-.07,0-.09L730,590l.13-.1.08,0,.05-.06h.11l.06-.06.12,0,.08,0,.06-.05.13,0,.12-.07.23-.26.09,0,.07,0,0-.06.16-.12,0-.07.07-.06.17-.07.13-.11.08-.46.08-.08h.1l.13-.11,0-.09-.07-.16,0-.1-.06-.06-.08,0,0-.07,0-.07h.12l0-.07-.11-.11,0-.07,0-.09,0-.07.36-.27.21,0,.09,0,.19,0v-.17l.15-.15.09,0,.07-.06,0-.18.13-.25.13-.12.21-.43,0-.18h0l.05-.09.07-.06h.11l0-.08.2-.2v-.11l0-.09,0-.05.08-.29.06-.09.06-.17.06-.06.07,0,0-.09.07-.09.05-.33.06-.08.09-.28.12-.16v-.11l0-.07v-.11l.08,0,.05-.07h.23l.08,0,.13-.24.08-.06h.22l.05-.17-.19-.18v-.31l.09-.08,0-.21,0-.1-.12-.22,0-.46.18-.12v-.08l-.06-.06.07,0,.05.08h.09l.09-.07,0-.07,0-.08-.05-.06.11-.36v-.11l0-.09.06-.07,0-.23.07-.06v-.09l0-.08.08-.07,0-.07.07-.18.08-.06.09,0h.12l.09-.06.07-.32v-.32l.11-.22.12-.73.09-.05v-.11l.22-.53,0-.21,0-.09v-.11l0-.09-.1-.06,0,0H738l.09,0,.06-.06,0-.09V575l-.1-.15v-.22l0-.09,0,0,0-.12.05-.08v-.21l.08-.19v-.11l.1-.14,0-.09.09-.07.05-.17v-.23l.05-.1v-.73l.08-.09,0-.2.09,0,.06-.06,0-.07v-.07l.06-.06.05-.4,0-.07,0-.09.05-.06,0-.15-.05,0v-.1l0-.08v-.1l.1-.06.22-.31.08-.37,0-.08v-.6l.08-.2.16-.2,0-.1.12-.23,0-.09,0-.08v-.11l.12-.25,0-.2,0-.07v-.32l0-.09,0-.42,0-.08v-.32l-.09-.17.06-.17L740,566l0-.09.06-.05h.09l0,.06h.12l0-.17h-.1l.07-.15.09,0,0-.07,0-.09.09,0,.06-.2v-.11l-.44-.43,0-.19,0-.07v-.68l.09-.15.21-.2.09,0,.2-.21.08,0,.09-.14h0l0,0,0-.3,0,0-.15-.25v-.33l.06-.19.24-.3.08,0,.06-.06.09,0,.2-.17h.1l.08-.06.19-.31.22,0h0l0-.11.09,0,.07-.15.07-.05v-.32l.16-.22.14-.12.06-.09.09,0,0-.07v-.3l0-.07v-.21l.16-.28,0-.09.09-.15,0-.62,0-.09.05-.07v-.12l.06-.2.11-.14,0-.1.16-.09.06-.07.08-.15v-.1l.28-.25.28-.11h.15l-.09,0-.06-.06,0-.07v-.11l-.16-.09,0-.28.11-.06.05-.07.2,0,.17-.1.1,0,0-.09v-.09l0-.1v-.1l0-.06,0-.2,0-.06-.06-.08,0-.09h.12l0-.08-.06-.05,0,0,.09,0-.08,0-.11,0v-.07l-.15-.12,0-.09h.11l.09.05,0,.1h.11l.09,0-.22-.21-.19-.06,0,0h0l-.1-.13v-.07l-.22-.52V553l0-.06,0,0v-.12l0-.09,0-.59-.18-.18-.05-.09v-.09l-.08-.09,0-.2v-.1l-.06-.06,0-.8,0-.12v-.11l.08-.16,0-.21.06-.17v-.1l.15-.3,0-.1.08-.12.09,0,.06-.17.06-.06.08,0,.23-.25.08,0,.19-.21,0-.2,0-.09.17-.09.09,0,.09-.12.07-.05.08,0,.15-.2,0-.11.11-.06h.11l.08,0,.07-.06h.1l.08,0h.12l.24-.1,0-.09h.11l0-.06.17-.07,0-.08h.12l0-.08v-.08l-.12-.12h-.09l-.07.06-.07-.12-.08,0-.05-.06-.09,0h-.11l-.05,0-.1.06-.25,0-.3-.23,0-.08v-.33l0,0,.08-.06,0,0-.26-.24-.08-.17.09-.26.09-.06,0-.09,0-.07-.06-.05,0-.05,0-.07.08,0v-.11h-.11l-.1,0-.06.06-.21.07H745l-.37-.07-.09,0-.09,0h-.27l-.18-.05-.08,0-.08.07h-.1l-.06-.07,0-.09,0-.07,0,0h-.12l-.1,0h-.12l-.05-.06,0-.2h-.11l-.15.09-.13-.11H743l-.05,0v-.12l-.1,0,0,.08-.09,0,0-.09h-.08l0,.09.09.12-.11.13-.17.12h-.08l.14-.12,0-.08v-.18h-.09l-.08,0h-.11l-.12-.12h-.24l-.07,0,0-.08,0-.09-.1,0-.08-.06-.09,0-.1-.06,0-.07,0-.09.18-.08,0,0-.07-.06.06-.06.09,0,.08-.06,0-.06-.28.22-.39,0-.3-.29,0-.07.08-.07,0-.07h-.12l-.09,0-.12-.12,0-.22,0-.1,0-.07-.07-.06-.22-.3-.19-.06-.11-.13-.08,0h-.12l-.08-.05-.06-.06-.08,0h0Z" transform="translate(0.37 0.37)" />
				</g>
			</g>
		</g>
	</g>
</svg>
