<svg xmlns="http://www.w3.org/2000/svg" viewBox="0 0 62.61 99.94">
	<defs>
		<style>
			.a{fill:#4aadd6;}
		</style>
	</defs>
	<title>
		Palau
	</title>
	<path class="a" d="M21.19,71.57c-1,.13-.87,2.38.13,2.25S22.19,71.44,21.19,71.57Z" transform="translate(0 0)" />
	<path class="a" d="M21.23,73.83a.6.6,0,0,1-.48-.24,1.36,1.36,0,0,1-.25-.67c-.08-.61.14-1.29.68-1.35a.59.59,0,0,1,.55.24,1.36,1.36,0,0,1,.25.67c.08.61-.14,1.29-.68,1.35Zm0-2.26h-.08c-.54.07-.75.74-.67,1.34a1.34,1.34,0,0,0,.25.66.58.58,0,0,0,.55.24c.54-.07.75-.74.67-1.34a1.34,1.34,0,0,0-.25-.66A.59.59,0,0,0,21.27,71.57Z" transform="translate(0 0)" />
	<path class="a" d="M19.34,52h0l-.12.19a3.4,3.4,0,0,0,.41,1l.22.16.22-.16a.75.75,0,0,0-.09-.91Z" transform="translate(0 0)" />
	<path class="a" d="M19.84,53.29h0l-.22-.16a3,3,0,0,0-.17-.33,1.55,1.55,0,0,1-.24-.64l.13-.19h0l.63.25a.75.75,0,0,1,.1.91ZM19.35,52l-.12.18a1.56,1.56,0,0,0,.24.63,2.85,2.85,0,0,1,.17.33l.21.15.22-.15a.74.74,0,0,0-.09-.9Z" transform="translate(0 0)" />
	<path class="a" d="M3.25,95.69A7.27,7.27,0,0,0,1,95.5H1c-.38.6.12,1.62.31,2.25a4.9,4.9,0,0,0-.25.75l-.34,0a1,1,0,0,1-.31.5l-.25.06L0,99.47l.06.41a5.07,5.07,0,0,0,2-.16c.59-.7,2.36-2.05,2-3.06C3.76,96.34,3.5,96,3.25,95.69Z" transform="translate(0 0)" />
	<path class="a" d="M.52,99.94a1.63,1.63,0,0,1-.46-.05h0L0,99.47l.19-.38L.44,99a1,1,0,0,0,.31-.5h0l.34,0a4.9,4.9,0,0,1,.25-.75l-.13-.38C1,96.75.72,96,1,95.5H1.6a5.25,5.25,0,0,1,1.65.19h0c.22.3.47.61.78,1,.28.79-.73,1.78-1.46,2.51-.22.22-.41.41-.54.56A7.55,7.55,0,0,1,.52,99.94Zm-.46-.06a5,5,0,0,0,2-.16c.13-.16.32-.34.54-.56C3.3,98.43,4.3,97.44,4,96.66c-.31-.36-.56-.66-.78-1a6.16,6.16,0,0,0-1.95-.19H1c-.3.48,0,1.25.19,1.86,0,.14.1.27.13.39a5,5,0,0,0-.25.75h0l-.34,0a1,1,0,0,1-.31.5l-.25.06L0,99.47Z" transform="translate(0 0)" />
	<path class="a" d="M17.78,85l-.19-.37-.19-.06-.25.09a.84.84,0,0,1-.34-.37l-.22,0a2.69,2.69,0,0,1-1.44.75l0-.59a8.58,8.58,0,0,1,2-.91c.21-.42,1-2.6.78-2.91a6.66,6.66,0,0,0-1.5.59c-.43.57-.55,1.34-1,1.94-.88,1.18-2.43,1.1-2.66,2.91-.12,1,.36,2.36.28,3.31l.19.09.28-.19.06-.47h.25l.25.22.16-.22-.12-.25-.22,0-.16-.31.06-.25a1.56,1.56,0,0,1,.59-.41l.41.06a9.74,9.74,0,0,0,2-2.06c.26-.08.71.22,1.06.22l.22-.34,0-.25Z" transform="translate(0 0)" />
	<path class="a" d="M13.25,89.54h0l-.19-.1h0a6.83,6.83,0,0,0-.14-1.55,6.62,6.62,0,0,1-.14-1.77,2.45,2.45,0,0,1,1.47-1.94,4,4,0,0,0,1.19-1,4.46,4.46,0,0,0,.5-1,4.21,4.21,0,0,1,.5-1,5.13,5.13,0,0,1,1.49-.6h0c.24.32-.57,2.5-.78,2.91a7.25,7.25,0,0,1-.72.29,4,4,0,0,0-1.25.62l0,.58h0a2.88,2.88,0,0,0,1.39-.75l.23,0h0a.87.87,0,0,0,.34.37l.25-.09.19.06.19.38.31.22,0,.25-.22.35h0a1.64,1.64,0,0,1-.51-.12,1,1,0,0,0-.54-.1,5.5,5.5,0,0,1-1.31,1.43c-.21.18-.45.38-.72.64l-.41-.06a1.56,1.56,0,0,0-.59.41l-.06.25.16.31.21,0,.13.25h0l-.16.22h0l-.25-.22H13.6l-.06.46Zm-.18-.1.18.09.28-.19.06-.47h.25l.25.22.15-.21-.12-.25-.21,0-.16-.32.06-.25a1.57,1.57,0,0,1,.6-.41l.41.06c.27-.26.51-.46.72-.63a5.54,5.54,0,0,0,1.31-1.43,1,1,0,0,1,.55.09,1.66,1.66,0,0,0,.51.12h0l.21-.34,0-.25L17.78,85l-.19-.37-.18-.06-.25.09a.87.87,0,0,1-.35-.37l-.21,0a2.87,2.87,0,0,1-1.39.75h-.05l0-.59a4,4,0,0,1,1.25-.63c.23-.08.47-.17.72-.28.19-.39,1-2.59.78-2.9h0a5.18,5.18,0,0,0-1.49.6,4.12,4.12,0,0,0-.49,1,4.48,4.48,0,0,1-.51,1,4,4,0,0,1-1.19,1,2.44,2.44,0,0,0-1.46,1.93,6.61,6.61,0,0,0,.14,1.76A6.84,6.84,0,0,1,13.07,89.44Z" transform="translate(0 0)" />
	<path class="a" d="M17.31,66.44c.75-1-1.62-.87-1.62-.87S16.56,67.44,17.31,66.44Z" transform="translate(0 0)" />
	<path class="a" d="M16.83,66.74h0c-.58-.06-1.09-1.16-1.1-1.17h0c.06,0,1.5-.07,1.74.39.07.13,0,.3-.11.5A.62.62,0,0,1,16.83,66.74ZM15.7,65.57c0,.09.54,1.1,1.09,1.16h0a.61.61,0,0,0,.48-.29c.14-.19.18-.35.11-.48C17.19,65.51,15.81,65.57,15.7,65.57Z" transform="translate(0 0)" />
	<path class="a" d="M35.28,52.22l.22.06.25-.12a1.68,1.68,0,0,0-.66-1c-.09.11-.34.1-.47.09l-.19.19.22,0C34.75,51.8,35.14,51.88,35.28,52.22Z" transform="translate(0 0)" />
	<path class="a" d="M35.5,52.29l-.23-.07a.92.92,0,0,0-.32-.37.77.77,0,0,1-.3-.37l-.23,0h0l.19-.19c.11,0,.37,0,.47-.09h0a1.7,1.7,0,0,1,.66,1h0Zm-.22-.07.22.06.24-.12a1.69,1.69,0,0,0-.65-1c-.1.11-.37.1-.47.09l-.18.18.21,0h0a.76.76,0,0,0,.3.37A.94.94,0,0,1,35.29,52.22Z" transform="translate(0 0)" />
	<path class="a" d="M30.88,55.32a2.53,2.53,0,0,0,.41,1l0,.66.5-.06c.59-.7.3-1,.09-1.75a1.15,1.15,0,0,1,.69-.09,2.52,2.52,0,0,0-.16-1.5l-.28.06a1.93,1.93,0,0,1-1.37.69,6.58,6.58,0,0,1,.22.88Z" transform="translate(0 0)" />
	<path class="a" d="M31.25,56.95h0l0-.66a2.52,2.52,0,0,1-.41-1h0l.06-.16v-.07a5.91,5.91,0,0,0-.2-.8h0a1.93,1.93,0,0,0,1.37-.69l.29-.06h0A2.36,2.36,0,0,1,32.54,55V55h0a1.15,1.15,0,0,0-.68.09c0,.13.08.26.11.37a1.15,1.15,0,0,1-.21,1.38Zm-.36-1.63a2.53,2.53,0,0,0,.4,1l0,.65.49-.06A1.14,1.14,0,0,0,32,55.5c0-.11-.08-.23-.12-.37h0a1.14,1.14,0,0,1,.69-.1v-.08a2.36,2.36,0,0,0-.16-1.41l-.28.06a1.92,1.92,0,0,1-1.37.69,6,6,0,0,1,.2.8v.07Z" transform="translate(0 0)" />
	<path class="a" d="M31.47,66.72c0-.77-.51-1.4-.56-2.22l-.22,0c-.16.34-.09,2-.19,2.53a1.26,1.26,0,0,1-.47-.34c-.46.48.21,1.06-1.56,1.34a1.15,1.15,0,0,0-.28-.53l-.31-.06a7.46,7.46,0,0,1,.06-1.19l-.75-.22-.53.19-.12.53a.77.77,0,0,1,.28.47,2.48,2.48,0,0,0,.5,2.41A4.1,4.1,0,0,0,30,69.22a3.59,3.59,0,0,1,1.25,1.22c.09,0,.18-.09.19-.16a4.94,4.94,0,0,0-.62-1.44v-.09C30.81,67.95,31.5,67.48,31.47,66.72Z" transform="translate(0 0)" />
	<path class="a" d="M31.25,70.45h0A3.51,3.51,0,0,0,30,69.24h0a4.09,4.09,0,0,1-2.65.44,2.49,2.49,0,0,1-.5-2.41.77.77,0,0,0-.28-.46h0l.13-.53.53-.19.76.22h0v.15a6.51,6.51,0,0,0,0,1l.31.06a1.15,1.15,0,0,1,.28.53c1.2-.2,1.27-.52,1.34-.87a.86.86,0,0,1,.21-.47h0a1.23,1.23,0,0,0,.46.34,9.42,9.42,0,0,0,.07-1.13,5.67,5.67,0,0,1,.12-1.4l.23,0h0a3.91,3.91,0,0,0,.29,1.13,3.63,3.63,0,0,1,.27,1.09,1.89,1.89,0,0,1-.33,1,2.25,2.25,0,0,0-.36,1v.09l.18.33a3.29,3.29,0,0,1,.45,1.11.23.23,0,0,1-.1.15ZM30,69.22h0a3.51,3.51,0,0,1,1.24,1.21.09.09,0,0,0,.08,0,.22.22,0,0,0,.1-.15,3.28,3.28,0,0,0-.45-1.1l-.18-.33v-.1a2.26,2.26,0,0,1,.36-1,1.89,1.89,0,0,0,.33-1,3.6,3.6,0,0,0-.27-1.08,4,4,0,0,1-.29-1.13l-.21,0a6,6,0,0,0-.12,1.39,9.28,9.28,0,0,1-.07,1.14h0a1.27,1.27,0,0,1-.47-.34.86.86,0,0,0-.21.46c-.07.35-.14.68-1.36.88h0a1.15,1.15,0,0,0-.28-.53l-.31-.06h0a6.46,6.46,0,0,1,0-1v-.14l-.75-.22-.53.19-.12.52a.77.77,0,0,1,.28.47,2.48,2.48,0,0,0,.5,2.4A4.12,4.12,0,0,0,30,69.22Z" transform="translate(0 0)" />
	<polygon class="a" points="38.13 43.95 38.13 43.95 38.13 43.95 38.13 43.95" />
	<path class="a" d="M39.22,55l-.37-.12c-1-1.75-.64-1.46-.69-3.53l.31-.09a2.28,2.28,0,0,0,1.16.09c.52-2.5-3.79-1.86-2.53-4.41l-.47-.31-.44.38a2.87,2.87,0,0,0,.25,1.34c.93.73,1.86,1.18,2,2.47l-.34.16-.28-.12-.25.19a7.59,7.59,0,0,1,.16,1.5l-.12.16a1.41,1.41,0,0,1-.53-.09l-.22.28.13.47-.16.22-.31.13-.19-.09a1,1,0,0,0-.22-.66l-.34.06a1.63,1.63,0,0,1-1.09,1.22,3.35,3.35,0,0,0-.5,2c-.66,1.16-2.42,1.16-2.81,2.56l-.41.19a2,2,0,0,1-.78-.19,2.24,2.24,0,0,1-.37-.78,6.36,6.36,0,0,0-2.87-1.69c.55.52,1,1.58,1.88,1.44a11.8,11.8,0,0,1,1.56,2.47,1.69,1.69,0,0,1,.81-.12,2.78,2.78,0,0,0,.13.72l.22-.16c0-1.11,1.33-1.24,1.38-2.16l.44-.22.56.19a1.07,1.07,0,0,0,.31-.53l.66-.37c.91-1.33-.2-1.48,1.72-2.53l.06-.19-.28-.25.06-.25.53-.06.66.47A1.8,1.8,0,0,0,39,56.38l.16.28.38-.31c0-.53.3-1,.25-1.47l-.28-.25Z" transform="translate(0 0)" />
	<path class="a" d="M31.31,60.76h0a2.82,2.82,0,0,1-.12-.72H31.1a1.45,1.45,0,0,0-.72.12h0a11.77,11.77,0,0,0-1.56-2.47h-.17c-.56,0-.92-.47-1.27-.93a4.38,4.38,0,0,0-.44-.52h0a5.2,5.2,0,0,1,2.49,1.37l.39.31a2.3,2.3,0,0,0,.38.78,2,2,0,0,0,.78.19l.4-.19a2.56,2.56,0,0,1,1.48-1.47,3.14,3.14,0,0,0,1.33-1.09,3.44,3.44,0,0,1,.5-2A1.64,1.64,0,0,0,35.78,53h0l.34-.06a.94.94,0,0,1,.22.66l.18.09.31-.12.15-.22-.13-.46.22-.29h0a1.41,1.41,0,0,0,.53.09l.12-.15a5,5,0,0,1,0-.56,3.1,3.1,0,0,0-.12-.94h0l.25-.19h0l.28.13.34-.15a3,3,0,0,0-1.57-2.12l-.46-.35A2.89,2.89,0,0,1,36.18,47l.44-.38.48.32h0c-.65,1.32.19,1.78,1.08,2.27s1.7.93,1.45,2.13h0a2.31,2.31,0,0,1-1.16-.09l-.3.09c0,.53,0,.9,0,1.19,0,.85,0,1,.7,2.33l.37.12.31-.34h0l.28.25a1.82,1.82,0,0,1-.12.73,2.19,2.19,0,0,0-.13.74l-.38.32h0L39,56.38a1.79,1.79,0,0,1-1.41-1.69L37,54.23l-.52.06-.06.24.28.25h0L36.6,55c-1.17.64-1.21.94-1.28,1.39a2.36,2.36,0,0,1-.44,1.14l-.66.38v0a1,1,0,0,1-.3.5l-.57-.19-.43.22a1.39,1.39,0,0,1-.64,1,1.58,1.58,0,0,0-.73,1.2ZM31.19,60h0a2.82,2.82,0,0,0,.12.71l.21-.15a1.58,1.58,0,0,1,.73-1.2,1.38,1.38,0,0,0,.64-1h0l.44-.22.57.19a1,1,0,0,0,.29-.5v0l.66-.38a2.36,2.36,0,0,0,.44-1.14c.06-.45.11-.75,1.28-1.39l.06-.18-.28-.25h0l.06-.25h0l.53-.06.66.47A1.79,1.79,0,0,0,39,56.37l.16.28.37-.31a2.15,2.15,0,0,1,.13-.74,1.86,1.86,0,0,0,.12-.73l-.28-.24-.31.34h0l-.37-.12c-.74-1.31-.74-1.48-.7-2.34,0-.3,0-.67,0-1.2h0l.31-.09a2.31,2.31,0,0,0,1.15.09c.25-1.19-.61-1.66-1.44-2.12s-1.74-1-1.09-2.28l-.46-.31-.43.37a2.92,2.92,0,0,0,.25,1.34l.46.35a3.05,3.05,0,0,1,1.57,2.13h0l-.34.16-.28-.12L37.6,51a3.14,3.14,0,0,1,.12.94,5.07,5.07,0,0,0,0,.56l-.13.16h0a1.38,1.38,0,0,1-.52-.09l-.22.28.13.46-.16.22-.31.13-.19-.1h0a1,1,0,0,0-.22-.65l-.33.06a1.63,1.63,0,0,1-1.1,1.22,3.45,3.45,0,0,0-.5,2,3.14,3.14,0,0,1-1.33,1.09,2.56,2.56,0,0,0-1.48,1.47l-.41.19a2,2,0,0,1-.79-.19,2.27,2.27,0,0,1-.38-.79l-.39-.31A5.22,5.22,0,0,0,27,56.26a4.52,4.52,0,0,1,.43.51c.35.46.71.93,1.26.93h.17a11.62,11.62,0,0,1,1.57,2.47A1.47,1.47,0,0,1,31.1,60h.1Z" transform="translate(0 0)" />
	<path class="a" d="M46.69,46.47a5.4,5.4,0,0,1-.28-1.41,2.9,2.9,0,0,0-.84-.87l-.22.25a1.09,1.09,0,0,1-.06.47,20.83,20.83,0,0,1-3,.88,1.63,1.63,0,0,1-.72-.87,13.41,13.41,0,0,0-3.47-1c0,.58,1.57,1.75,2,2l.16,0,.47-.59a14.55,14.55,0,0,0,2.31,2.5l.13-.25c1.21-1,1.87-.18,3.19-.34l.09.25a3.08,3.08,0,0,1-.56,1.09h-.19L45.69,48l-.19-.19-.12.22a3.13,3.13,0,0,1-.06,1.22,4.26,4.26,0,0,1,.53.59l.28.13.28-.19v-.41C47.05,48.76,48.14,46.95,46.69,46.47Z" transform="translate(0 0)" />
	<path class="a" d="M46.13,50l-.29-.12a4.3,4.3,0,0,0-.53-.59h0a1.73,1.73,0,0,0,.08-.84c0-.13,0-.25,0-.37l.13-.23.19.19.06.56h.18a3.14,3.14,0,0,0,.56-1.09l-.09-.24a3.65,3.65,0,0,1-1.24-.08,1.93,1.93,0,0,0-1.94.43l-.13.25h0l-.5-.48a10.42,10.42,0,0,1-1.8-2l-.46.59-.16,0c-.48-.26-2-1.42-2-2h0a13.4,13.4,0,0,1,3.47,1,1.64,1.64,0,0,0,.72.87h0a22.64,22.64,0,0,0,3-.87,1.09,1.09,0,0,0,.06-.46l.22-.26h0a2.89,2.89,0,0,1,.84.88c0,.14,0,.28.06.42a3.14,3.14,0,0,0,.22,1,.94.94,0,0,1,.7.69,2.93,2.93,0,0,1-1,2.23v.4Zm-.81-.72a4.23,4.23,0,0,1,.53.59l.28.12.28-.19v-.4a2.93,2.93,0,0,0,1-2.22.93.93,0,0,0-.69-.68h0a3.14,3.14,0,0,1-.22-1c0-.14,0-.28-.06-.42a2.89,2.89,0,0,0-.84-.87l-.22.25a1.06,1.06,0,0,1-.06.47,20.31,20.31,0,0,1-3,.88h0a1.64,1.64,0,0,1-.72-.88,13.44,13.44,0,0,0-3.46-1c0,.56,1.52,1.71,2,2l.15,0,.47-.6h0a10.4,10.4,0,0,0,1.81,2l.5.48.12-.24a1.94,1.94,0,0,1,1.95-.43,3.73,3.73,0,0,0,1.24.08h0l.09.25a3.1,3.1,0,0,1-.56,1.1h-.2L45.68,48l-.18-.18-.12.21c0,.12,0,.24,0,.37A1.76,1.76,0,0,1,45.32,49.25Z" transform="translate(0 0)" />
	<path class="a" d="M26.25,55.44l.19,0a2.56,2.56,0,0,0-.81-1.75C25.26,53.89,26,55.19,26.25,55.44Z" transform="translate(0 0)" />
	<path class="a" d="M26.25,55.45h0a3.21,3.21,0,0,1-.72-1.61.23.23,0,0,1,.1-.18h0a2.57,2.57,0,0,1,.81,1.75h0Zm-.62-1.78a.22.22,0,0,0-.09.17,3.19,3.19,0,0,0,.72,1.6l.18,0A2.56,2.56,0,0,0,25.62,53.67Z" transform="translate(0 0)" />
	<path class="a" d="M21.91,53.32a3.63,3.63,0,0,0-1.59.22,1.34,1.34,0,0,0,.22.44,1.76,1.76,0,0,0,.72.22l.13-.22a1.74,1.74,0,0,1,1.25.13l.56-.12C23.06,53.54,22.51,53.35,21.91,53.32Z" transform="translate(0 0)" />
	<path class="a" d="M21.25,54.2h0a1.8,1.8,0,0,1-.72-.22,1.35,1.35,0,0,1-.22-.44h0a3.65,3.65,0,0,1,1.6-.22c.42,0,1.14.15,1.29.66h0l-.56.13A1.74,1.74,0,0,0,21.38,54Zm-.93-.66a1.34,1.34,0,0,0,.22.43,1.75,1.75,0,0,0,.71.22l.12-.22a1.74,1.74,0,0,1,1.26.12l.55-.12c-.15-.5-.86-.62-1.28-.65A3.64,3.64,0,0,0,20.32,53.54Z" transform="translate(0 0)" />
	<path class="a" d="M27.34,72.5c-.25,0-.47.06-.53.19-.25.5,1.38,1.88,2,1C29.28,73,28.09,72.51,27.34,72.5Z" transform="translate(0 0)" />
	<path class="a" d="M28.25,74a1.38,1.38,0,0,1-.7-.23c-.46-.28-.88-.79-.74-1.06.06-.12.26-.19.52-.19h0a1.93,1.93,0,0,1,1.53.69.46.46,0,0,1-.06.51A.67.67,0,0,1,28.25,74Zm-.92-1.47c-.26,0-.46.07-.52.18-.13.27.28.78.74,1.05s1,.3,1.25-.06a.45.45,0,0,0,.05-.5,1.92,1.92,0,0,0-1.52-.68Z" transform="translate(0 0)" />
	<path class="a" d="M62.16,8.63c0-.41.21-.85.19-1.19-.11-2-1.06-1.44.09-3.94l-.06-.56a3.51,3.51,0,0,0-.59-.41A18.16,18.16,0,0,0,60.41.22,3.11,3.11,0,0,0,59.28,0,2.09,2.09,0,0,0,58,1.72c.32.35.65.64,1,1a14.29,14.29,0,0,0,1.84,3.25c.08.56-.21,1-.09,1.56l.28.19c-.09.33.25.8.31,1.16a9,9,0,0,1-1.94,3c-.67.68-1.47,1.86-2.53,1.78-.71-.06-2.08-1-2.75-.62a16.65,16.65,0,0,1-2.78,2.34L51.19,15l-.22,0c-.2.31-1.1.43-1.44.53l-.25.31c-.28,1.54.74,1.92.41,3.66a5.21,5.21,0,0,1-.16.66l-.53.41a11.15,11.15,0,0,0-1.53,0,8.17,8.17,0,0,1-.34,1.66,2.09,2.09,0,0,0,.47,1l-.34.34a6.49,6.49,0,0,0-1.72.19l-.16.19c.13.78-.5,1.51-.31,2.28s2.23.74,2.88.88l.34.41-.06.25a7.92,7.92,0,0,0-1.16,1.38l-.69-.09-.31-.37V27.41l-1-.06a3.13,3.13,0,0,0-.19.53,2.61,2.61,0,0,1-1.31.38l-.31.38c0,.42.19.81.09,1.22l-.22.22-.06,1.16-.5.25-.37,0c-.12.64.07,1.69-.69,2.06l-.06.34.28.28.56,0L43,35a3.81,3.81,0,0,0,.13.75c.6.63,2.63,1.78,2.75,2a24.58,24.58,0,0,1,.91,3.47,8.46,8.46,0,0,1-.09,1.44s0,0,0,.06h0c0,1.08,1.75,2.85,2.56,3.41l-.12.22.25.19a1.59,1.59,0,0,1,.22,1.09,1.88,1.88,0,0,1,1-.41l.41.19.06-.28-.19-.34-.25-.06-.31-.34a1.9,1.9,0,0,0-.09-.59,3.51,3.51,0,0,1-.72-.91l.13-.22.47.13.31.28a4.08,4.08,0,0,0,1.16-.25l.72-.28a15.74,15.74,0,0,1,1.09-1.91,1.12,1.12,0,0,1,.81,0l.31.34c-.34.64.35,1.24.22,1.88.28.24,1-.13,1.22-.31l.19-.5.41-.31c0-1.88.14-2-1-3.69l0-.69c.71-.41.72-1.3.66-2.19h0a9.18,9.18,0,0,1-.06-1.69c.66-.66,1.09-1,1.41-1.28h0c.77-.65.72-.76.5-3.28h0s0,0,0,0c.64-.85,2.44-1.37,3.34-2.25.51-2-2-3.08-2.31-5l.47-.84.28-.19c.37.07.7,0,1,0l.44-.59.34-.06.13-.34c-.09-1.06-.49-2.12-.53-3.19a2.38,2.38,0,0,1,.09-.62c.15-.59.63-1,.75-1.44.21-.8.26-1.73.41-2.56C62.82,12,62.29,10.42,62.16,8.63Z" transform="translate(0 0)" />
	<path class="a" d="M49.59,47.64h0a1.59,1.59,0,0,0-.22-1.09l-.25-.19h0l.12-.21c-.76-.52-2.55-2.3-2.56-3.41v0a.32.32,0,0,1,0,0c0-.17,0-.34.05-.51a3.66,3.66,0,0,0,0-.92A20.91,20.91,0,0,0,46,38.16l-.13-.41a6.24,6.24,0,0,0-1-.69,13.08,13.08,0,0,1-1.78-1.31A3.81,3.81,0,0,1,43,35l-.72-.84-.56,0-.29-.28.06-.35c.57-.28.6-.93.63-1.51a4.41,4.41,0,0,1,.05-.55h0l.38,0,.5-.25.06-1.15.22-.22a1.58,1.58,0,0,0,0-.68,2.09,2.09,0,0,1-.06-.54l.31-.38h0a2.62,2.62,0,0,0,1.28-.38v0a3.22,3.22,0,0,1,.18-.51h0l1,.06v1.35l.31.37.68.09c.14-.17.27-.35.39-.52a3.51,3.51,0,0,1,.76-.86l.06-.25-.34-.4-.57-.09c-.83-.11-2.1-.28-2.3-.79a2.23,2.23,0,0,1,.15-1.18,2.4,2.4,0,0,0,.16-1.1l.16-.19.24,0a5.4,5.4,0,0,1,1.49-.14l.34-.34a2.13,2.13,0,0,1-.47-1,2.56,2.56,0,0,0,.23-1,4.08,4.08,0,0,1,.11-.69h0a11.12,11.12,0,0,1,1.53,0l.53-.41a5.07,5.07,0,0,0,.14-.59v-.07a3.29,3.29,0,0,0-.2-2,3,3,0,0,1-.21-1.7l.25-.31.34-.09c.4-.09.94-.21,1.1-.45l.23,0h0l.18.31.4-.3a13,13,0,0,0,2.38-2c.42-.26,1.14,0,1.76.3a3.82,3.82,0,0,0,1,.33H57c.8,0,1.45-.72,2-1.35l.4-.43a9.07,9.07,0,0,0,1.94-3,2.21,2.21,0,0,0-.16-.44,1.2,1.2,0,0,1-.16-.71l-.28-.19a2,2,0,0,1,0-.82,2.21,2.21,0,0,0,.05-.74A13.94,13.94,0,0,1,59,2.69l-.19-.18c-.28-.26-.54-.5-.81-.79A2.09,2.09,0,0,1,59.28,0h.09a3.38,3.38,0,0,1,1,.22,18.13,18.13,0,0,1,1.38,2.32,3.39,3.39,0,0,1,.59.4l.06.57C61.7,5.11,61.83,5.45,62,6a4.18,4.18,0,0,1,.31,1.42,1.84,1.84,0,0,1-.09.53,2.08,2.08,0,0,0-.1.66c0,.59.13,1.17.21,1.72a10.37,10.37,0,0,1,.13,3.47c-.05.31-.1.64-.14,1a12.89,12.89,0,0,1-.27,1.6,2.14,2.14,0,0,1-.34.63,2.5,2.5,0,0,0-.41.8,2.41,2.41,0,0,0-.09.62,9.86,9.86,0,0,0,.27,1.71,11.17,11.17,0,0,1,.26,1.48l-.12.35-.35.07-.44.59h0a2.14,2.14,0,0,0-.45,0,2,2,0,0,1-.58,0l-.28.19-.47.84a4.73,4.73,0,0,0,1.21,2.1c.72.87,1.4,1.7,1.11,2.87a7.52,7.52,0,0,1-1.66,1.08,5.37,5.37,0,0,0-1.69,1.17h0a0,0,0,0,1,0,0l0,.38c.19,2.15.2,2.28-.54,2.9l-.05,0c-.31.26-.73.62-1.35,1.24a6.29,6.29,0,0,0,0,1.28c0,.13,0,.27,0,.4.06.84.07,1.78-.66,2.19l0,.68a4.07,4.07,0,0,1,1,3.09c0,.18,0,.38,0,.6L56.1,44l-.19.5c-.24.2-1,.55-1.23.31h0a1.49,1.49,0,0,0-.15-.83,1.21,1.21,0,0,1-.07-1l-.31-.34a1.11,1.11,0,0,0-.81,0,6.21,6.21,0,0,0-.7,1.17c-.12.24-.24.48-.4.74l-.72.28-.47.13a2,2,0,0,1-.69.12l-.32-.28-.46-.12-.12.22a3.59,3.59,0,0,0,.72.9,1.86,1.86,0,0,1,.1.6l.31.34.25.06.19.35-.06.29h0l-.41-.19a1.87,1.87,0,0,0-1,.41Zm-.45-1.29.25.19a1.6,1.6,0,0,1,.22,1.09,1.86,1.86,0,0,1,1-.4l.4.19.06-.27-.19-.34-.25-.06-.32-.35a1.9,1.9,0,0,0-.09-.6,3.5,3.5,0,0,1-.72-.91l.13-.23h0l.47.13.31.28a2,2,0,0,0,.69-.12l.47-.13.72-.28c.15-.25.28-.5.39-.74a6.14,6.14,0,0,1,.7-1.17,1.12,1.12,0,0,1,.82,0l.32.35h0a1.2,1.2,0,0,0,.07,1,1.52,1.52,0,0,1,.15.83c.27.23,1-.12,1.21-.31l.19-.5.41-.31c0-.22,0-.42,0-.59a4.07,4.07,0,0,0-1-3.09l0-.69c.72-.42.72-1.35.66-2.19,0-.14,0-.27,0-.4a6.32,6.32,0,0,1,0-1.29c.62-.62,1-1,1.36-1.24l.05,0c.73-.61.72-.74.53-2.89l0-.39a0,0,0,0,0,0,0,0,0,0,0,1,0,0,5.37,5.37,0,0,1,1.69-1.17,7.53,7.53,0,0,0,1.65-1.08c.29-1.16-.39-2-1.11-2.86a4.73,4.73,0,0,1-1.21-2.11l.47-.85.28-.19a2.16,2.16,0,0,0,.58,0,2.17,2.17,0,0,1,.45,0l.44-.59.35-.06.12-.34a11.18,11.18,0,0,0-.26-1.48,9.89,9.89,0,0,1-.27-1.71,2.37,2.37,0,0,1,.09-.63,2.52,2.52,0,0,1,.41-.81,2.12,2.12,0,0,0,.34-.63,12.83,12.83,0,0,0,.27-1.6c0-.32.08-.65.14-1a10.38,10.38,0,0,0-.13-3.46c-.08-.56-.17-1.13-.21-1.72a2.1,2.1,0,0,1,.1-.66,1.82,1.82,0,0,0,.09-.53A4.2,4.2,0,0,0,62,6c-.22-.57-.35-.92.4-2.52l-.06-.56a3.66,3.66,0,0,0-.59-.4A17.85,17.85,0,0,0,60.4.22a3.38,3.38,0,0,0-1-.22h-.09A2.09,2.09,0,0,0,58,1.72c.26.28.52.53.8.78l.19.18a14,14,0,0,0,1.84,3.25,2.2,2.2,0,0,1-.05.75,2,2,0,0,0,0,.82l.28.19h0a1.19,1.19,0,0,0,.16.71,2.13,2.13,0,0,1,.16.45,9.08,9.08,0,0,1-1.94,3c-.13.13-.26.28-.4.43-.57.64-1.22,1.35-2,1.35h-.11a3.82,3.82,0,0,1-1-.33c-.62-.26-1.33-.56-1.75-.3a13,13,0,0,1-2.38,2l-.4.3h0L51.18,15l-.21,0c-.15.24-.7.36-1.1.45l-.34.08-.25.31a3,3,0,0,0,.21,1.69,3.3,3.3,0,0,1,.2,2v.07a4.9,4.9,0,0,1-.14.59l-.53.41a11.42,11.42,0,0,0-1.53,0,4.11,4.11,0,0,0-.11.68,2.53,2.53,0,0,1-.23,1,2.12,2.12,0,0,0,.47,1h0l-.35.35a5.5,5.5,0,0,0-1.49.15l-.23,0-.15.19a2.38,2.38,0,0,1-.16,1.1,2.23,2.23,0,0,0-.15,1.17c.21.5,1.46.67,2.3.78l.57.09.35.41-.06.25a3.52,3.52,0,0,0-.76.86,6.31,6.31,0,0,1-.4.52l-.69-.09-.32-.38V27.41l-1-.06a3,3,0,0,0-.18.51v0a2.61,2.61,0,0,1-1.28.38h0l-.31.37a2.11,2.11,0,0,0,.06.53,1.56,1.56,0,0,1,0,.69l-.22.22-.06,1.16-.5.25-.37,0a4.35,4.35,0,0,0-.05.54c0,.58-.07,1.24-.64,1.52l-.06.34.28.28.56,0L43,35a3.89,3.89,0,0,0,.13.75,13.21,13.21,0,0,0,1.78,1.3,5.91,5.91,0,0,1,1,.7l.13.41a20.83,20.83,0,0,1,.78,3.06,3.67,3.67,0,0,1,0,.93c0,.18,0,.35-.05.51,0,0,0,0,0,0v0c0,1.1,1.8,2.88,2.56,3.4h0Z" transform="translate(0 0)" />
</svg>
