<?xml version="1.0" encoding="utf-8"?>
<!-- Generator: Adobe Illustrator 21.0.0, SVG Export Plug-In . SVG Version: 6.00 Build 0) -->
<svg version="1.1" id="圖層_1" xmlns="http://www.w3.org/2000/svg" xmlns:xlink="http://www.w3.org/1999/xlink" x="0px" y="0px" viewBox="0 0 513.4 971.1" style="enable-background:new 0 0 513.4 971.1;" xml:space="preserve">
	<style type="text/css">
		.st0{fill:#7C7C7C;stroke:#FFFFFF;stroke-width:2;stroke-linecap:round;stroke-linejoin:round;}
	</style>
	<g>
		<path id="TWN1156" class="st0" d="M254.2,534.4l1.9,5.8l-3,5l-5.6,2.4l-1.4,3.2l1,4l5.6,3.6l6.3,5.2l2.8,7.6l0.3,2.5l-15.6,3.8
		l-6.4,4.1l-4,3.9l-7.8,5.1l-0.9,5.7l2.3,6l-2.7,4.9l-7.4,4l-0.8,6.9l2.1,9.9l-3,13.2l-0.1,11.2l-4.3,5.9l-8.5,7.2l-2.3,9.8l1.3,8.1
		l3,4.6l6.2,6.4l1.2,4.9l-3.9,0.5l-5.2-0.9l-4.3,0.2l-8.5,6.7l-5.9-5.5l-7.6-8.9l-7.2,1.8l-6.6,5.9l-13.1-6.6l-9.4,4.5l-6.4,7.1
		l-8,2.8l-17.8-1.1l-1.7,4.9l-1.3,7.2l-2.6,7.9l0.5,7l-0.1,9.5l-5.7,21.2l-0.1,7.1l2.7,7.5l0.4,8.2l-8.1,20.5l-2.6-1.1l-1.6,0.1
		l-1.8,0.7h-2.2l-13-10.2l-12.1-17.1l12.7,15.4l-1.5-7.4l-3.8-7.2l-5.3-6l-9-8.4l-3.5-4.2l-1.6-4.8l2.2-4.6l1.1-4.1l-1.5-5.8
		l-2.7-5.6l-4.9-7.7l-4.6-10.2l-1-4.5l0.1-3l1.5-3.6l0.3-2.4l-0.5-1.2l-2.7-2.3l-0.5-2.3l-2.9-4.9l-0.7-2l-2.1-13.6l6.1-3.7l0.2,0.5
		l3.9,8.6l4.8,2.5l15.7,2.2l8.2-0.9l8.4,1l4.2-1.5l3.5-2.6l6.5-2.6l6.3-4.4l2.4-5.5l3-5.2l5.3-7.1l6.1-6.4l6.5-5.4l7.4-7.2l6.5-8.4
		l10-17l10.4-15.1l2.3-6.6l-1-6.7l-1.4-4.5l0.1-5l3.6-3.5l6.9,0.7l5.8-0.6l12.3-7.3l4.5-5.4l7.9-6.1l7.7-4.3l4.2-5l3.6-6.8l8.5-6.8
		l18.5-9.4l4.3,1l5.8,2.2l4.2,5.9L254.2,534.4L254.2,534.4z" />
		<polygon class="st0" points="210.5,699.8 214,706.4 214.7,711.3 220.1,712.6 225.6,716.2 222.8,730 222.7,735.2 220.7,740.2 
		210.9,744.3 206.1,747 198.5,748.6 193.1,753.1 190.7,759.7 187,766.3 184,773.8 183.2,788.5 184.4,795 186.4,801.1 187.5,808.2 
		187.5,813.6 190.1,818.6 194.7,824.2 192.2,828 186.9,831.2 184.8,835.1 184.3,839.6 187,843.5 190.4,845.2 193.5,849.6 
		193.4,855.3 194,861.4 197.2,867.3 201.8,872.2 212,876.9 216.5,876.6 217.4,928.2 215.8,935.5 213.3,941.5 209.9,944 205.9,947.7 
		206,956 207.5,965.2 207.1,971.1 202.6,964.3 195.8,959.1 188,955.6 180,953.7 179.7,960.3 177.4,962.6 174,961.8 170.3,958.7 
		170.1,956.3 171.4,949.3 165.9,940.1 165.4,937.7 165.5,935.6 165.9,932.4 165.9,921.6 166.4,918.5 168.9,914.9 169.4,911.9 
		149.5,860.3 147.9,857.4 142.4,850.6 138,840.7 136,837.9 127.8,831.4 122.4,828.4 121.5,824.7 120.8,823.4 116.4,820.5 
		106.4,815.7 101.9,812.6 97.1,808.4 94.5,806.8 102.6,786.3 102.2,778.1 99.5,770.6 99.6,763.5 105.3,742.3 105.4,732.8 
		104.9,725.8 107.5,717.9 108.8,710.7 110.5,705.8 128.3,706.9 136.3,704.1 142.7,697 152.1,692.5 165.2,699.1 171.8,693.2 
		179,691.4 186.6,700.3 192.5,705.8 201,699.1 205.3,698.9 210.5,699.8 	" />
		<polygon class="st0" points="158,594 155.7,600.6 145.3,615.7 135.3,632.7 128.8,641.1 121.4,648.3 114.9,653.7 108.8,660.1 
		103.5,667.2 100.5,672.4 98.1,677.9 91.8,682.3 85.3,684.9 81.8,687.5 77.6,689 69.2,688 61,688.9 45.3,686.7 40.5,684.2 
		36.6,675.6 36.4,675.1 30.3,678.8 29.3,672.5 27.5,668.9 23.6,665 28.3,661.6 31,655.5 29.9,650.3 23.6,649.4 22.4,651.2 
		21.3,654.6 19.5,657.3 16.2,657.2 14.9,654.9 15.4,647.9 14.6,645.5 10.5,643.7 8.2,645.8 6.4,648.7 3.6,649.4 0.7,646.9 0,643.4 
		0.7,640 1.8,637.7 4.8,636.1 8.5,635.6 11.6,634.6 12.6,631.6 11.2,630.1 1.8,627.7 1.8,625.8 9.7,625.7 8.9,623.1 4.6,619.4 
		1.8,616.2 2.5,612.2 5,610.7 7.7,609.8 9.1,607.3 8.3,603.4 6.9,600.2 7.8,597.2 9.2,593.5 11.5,590.9 11,588.6 11.5,586.3 
		14.8,577.3 16.4,575.6 19,575 15.3,572.5 16.9,568.4 22.1,570.4 31,571.7 38.2,573.5 44.4,570.7 46.9,565.8 52.7,562.2 59.3,557.1 
		64,552.3 70.1,547.7 77.9,544.2 93.1,541.4 101.6,540.9 108.8,543.3 112.8,545.7 114.9,549.9 116.6,555 126.5,565.1 127.5,572.6 
		125.7,586.8 127.3,591.4 131.8,594.9 135.6,594.9 140.9,592.5 145.9,591.9 149.6,593 158,594 	" />
		<path id="TWN1161" class="st0" d="M238.7,166.1l-0.2,0.2l-4.6,1.1l-4.4-1.7l-2.7-3.8l-4.3-2.6l-6.9-2.7l1.2-4.1l5.5-11.4l2.2-3
		l0.7-1.5v-1.7l-0.7-1.9l-1.1-2.2l1.5-3l1.8-1.8l8.3,3.6l15.1,4.8l5.4,2.8l3.8,3.9l1.9,3.7l-1,3.6l-2.4,1.4l-5.1,0.9l-5.9,2.4
		l-3.4,4.3l-2.3,5.6L238.7,166.1L238.7,166.1z" />
		<path id="TWN1162" class="st0" d="M357.5,200.7l-2.3,6.5l-1.4,4.7l0.6,4.4l-3.8,5.8l-14,14.2l-4.3,10.5l-2.8-0.8l-10.6,1l-0.8,0.6
		l-0.6-4.9l-4.6-7.8l-3.3-3.3l-1.3-4.4l-5-4l-12.5,3.2l-4.8-0.5l-6.8,0.5l-7.7,2.1l-4.1-1l0.9-5.1l1.3-4.6l-1-4l-1-2.9l1-3.1
		l0.8-3.5l0.3-3.9l-0.7-5.2l-3.9-3.4l-12.1-5.7l-6-4.5l-3.9-4.4l-4.4-11.1l2.4-3.1l2.3-5.6l3.4-4.3l5.9-2.4l5.1-0.9l2.4-1.4l1-3.6
		l-1.9-3.7l-3.8-3.9l-5.4-2.8l-15.1-4.8l-8.3-3.6l1.5-2.3l0.6-3.9l0.9-2.9l2-2.9l2.7-2.1l2.5-0.9l-0.2-1.2l0.7-2.9l2.2-6.1l2.1-3.3
		l3.1,1.1l13.7-1l4.6,3.1l4,8.7l5,2l4.3,1.2l4.1,2l6.8,2.2l3.6,4.2l-1.1,5.8l3.5,3.7l6.5,2.1l4.2,3.1l3.1,3.1l3.8,0.7l3.9-0.3
		l3.4,3.5l2.6,4.5l4.3,2.2l3.4,2.6l0.4,5l1.6,7.3l-1.9,7.8l-4.6,6.5l0.5,4.3l5.2,3.9l6.2,3.8l5.5,0.9l4,2.9l7.3,4.1L357.5,200.7
		L357.5,200.7z" />
		<polygon class="st0" points="449.8,278.6 448.7,278.6 437.6,276.9 419.1,265.8 415.3,266.7 412.9,272.7 408,277.2 401.5,277.2 
		393.2,274 378.2,270.2 371.7,267.1 369.2,265 363.3,260.3 358.4,260.3 353.7,262.6 349.7,263.2 346,260.7 341.6,258.1 336.7,257.1 
		335.3,253.3 335.9,247.8 332.3,246.8 336.6,236.3 350.6,222.1 354.4,216.3 353.8,211.9 355.2,207.2 357.5,200.7 358,199.2 
		361.9,197.6 365.2,198.2 368.6,196.9 370.8,193.1 367.7,180.7 373.1,176.8 376.2,175.9 381.9,174.3 386.8,172.5 390.6,169.2 
		395.6,165.7 402.2,162.5 406.1,159.7 405.7,157.7 404.7,154.5 404.5,150.3 406.5,145.4 411.2,141.4 415,139.1 428,133.8 
		441.5,125.7 447.7,123.8 452.7,120.2 455.8,115.2 459.1,111.1 462.8,109.1 466.3,107.9 470.9,105 472.5,101.2 470,97.6 471.4,94.7 
		482.6,92.4 486.3,89.9 494.7,85.5 500.6,84.2 503.9,86.1 504.7,87.2 492.7,93.2 487.2,97.9 468.5,120.7 465.6,125.5 463.3,132.3 
		461.7,140 461.2,147.6 461.5,155 464.8,170.5 464.6,174.5 463.1,178.4 463.3,186.5 466.8,192.8 473.3,196.8 480.9,198.2 480.9,200 
		477.7,199.7 474.6,200 472,200.8 470.1,202.2 472.8,207.2 474.1,213.7 473.3,219.3 467.3,222.7 466.9,225.2 467.6,228.2 
		469.3,230.9 469.9,233.7 467.4,236.1 461.2,239.7 454.2,247.7 453.9,250.9 454.4,257.9 453.2,260.5 451.9,262.8 451.1,266 
		450.6,272.4 450,274 449,275.3 448.5,276.7 449.8,278.6 	" />
		<path id="TWN1164" class="st0" d="M449.2,42.1L448.9,54l0.2,3l3.7,3.9l-0.4,2.5l-2.5,1.8l-4,1.5l-5.1-0.6l-10.6-4.4l-3-2.2
		l-3.7-3.4l-2.8-3.5l-1.7-3.5l-2.9-3.7l-0.6-2.9l3.2-2.2l7.2-3.1l4.4-2.9l1.4,0.9l2.4,2.7l3.9,1.4L449.2,42.1L449.2,42.1z" />
		<path id="TWN1165" class="st0" d="M238.7,166.1l4.4,11.1l3.9,4.4l6,4.5l12.1,5.7l3.9,3.4l0.7,5.2l-0.3,3.9l-0.8,3.5l-1,3.1l1,2.9
		l1,4l-1.3,4.6l-0.9,5.1l4.1,1l7.7-2.1l6.8-0.5l4.8,0.5l12.5-3.2l5,4l1.3,4.4l3.3,3.3l4.6,7.8l0.6,4.9l-3.7,2.6l-1.8,5.6l-4.9,2
		l-5.3-0.1l-4.2,3l-4.6,4.4l-5.9,3.2l-11.6,9.2l-6.8,2.9l-8.9,4.7L255,283l-5-5.6l-6-2.4l-9.9-0.8l-5.5,3.3l-0.9,7.4l-5.2,2.8
		l-12.1,0.7l-11.6-6.7l-6.6-1.2l-7.3-3.6l-15.1-11.1l-6.3-5.5l-4.7-5l-9.2-14.3l7.2-8.1l1.9-4l0.9-6.6l2.2-5.6l5.9-10.4l1.6-6.3
		l1.5-2.7l6.8-2l1.9-2.1l1.1-2.6l1.4-2.5l4.2-4.3l4.6-3.4l5.6-1.5l7.1,1.3l-0.9-5.4l2.7-3.7l3.7-3.8l1.9-5.7l0.8-1.9l3.6-1.8
		l0.3-1.3l6.9,2.7l4.3,2.6l2.7,3.8l4.4,1.7l4.6-1.1L238.7,166.1L238.7,166.1z" />
		<path id="TWN1166" class="st0" d="M411.8,90.3l-4.2,1.7l-5.8-0.1l-4.8-1l-3.7-3.3l-3.8-4.3l-5.8-4.6l-3.9-6.7l1.5-7.4l-1.2-6.3
		l-5.7-5.5l-3.8-4.2l1.6-3l1.8-2.4l2.1-4.6l3.6-4l10.9-6.4l2.9-2.5l4-2l3.8,1.2l2.1,2.2l-0.5,3.6l0.4,3.5l3.2,6.8l2.5,10l3.9,3.5
		l1.6,4.4l-1.6,6.6l0.1,5.1l4.6,2.6l3.8,3.2l-2,4.3L411.8,90.3L411.8,90.3z" />
		<path id="TWN1167" class="st0" d="M430.3,34.3l-4.4,2.9l-7.2,3.1l-3.2,2.2l0.6,2.9l2.9,3.7l1.7,3.5l2.8,3.5l3.7,3.4l3,2.2l10.6,4.4
		l5.1,0.6l4-1.5l2.5-1.8l0.4-2.5l-3.7-3.9l-0.2-3l0.3-11.9l34.6,8.4l3.2,2l-1.6,3.7l-0.4,2.9l0.7,5.2l2.4,8.7l2.6,4.1l2.2,0.9l7-1
		l3.6,0.4l4.2,1.1l3.7,1.9l2,2.5l-8.7,4.3l-0.8-1.1l-3.3-1.9l-5.9,1.3l-8.4,4.4l-3.7,2.5l-11.2,2.3l-1.4,2.9l2.5,3.6l-1.6,3.8
		l-4.6,2.9l-3.5,1.2l-3.7,2l-3.3,4.1l-3.1,5l-5,3.6l-6.2,1.9l-13.5,8.1l-13,5.3l-3.8,2.3l-4.7,4l-2,4.9l0.2,4.2l1,3.2l0.4,2
		l-3.9,2.8l-6.6,3.2l-5,3.5l-3.8,3.3l-4.9,1.8l-5.7,1.6l-2.5-5.4l-8.9-8.5l-1.4-5.6l-0.8-5.2l3.1-3.7l1.5-5.3l-8.5-12.3l-5-2
		l-7.4,0.4l-5.1-2.9l1.3-6.7l-1-5.1l-5.4-5.1l-1-5.1l1-5.8l-0.2-6.2l3.7-4l13.1-3.9l3.3-3.4l1-4.2l-0.5-4.1l-5.1-7.5l-4.2-2.2
		l-4.1-1l-3.2-2.8l-4.7-3.1l-6.3-3l-4.2-4.6l11.2-2.1l4.8-1.8l6.1-5.2l1.9-0.9l2.2-0.4h3.1l3.5,1.1l1.9,2.7l1.2,2.7l1.5,1.6l3.5-1.4
		l-3.6-5.7l-5.8-5.9l-3.1-1.9l0.9-2.7l1.8-1.5l1.9-0.9l0.8-1l2.1-5.1l3.2-5.9l6.6-5.9l9.6-4.9L391,0l10.8,1.2l4.5,3.4l10,14.2
		l3.6,7.4l1.2-0.5l2.7-0.7l3-0.4l2.2,0.6l-0.1,0.9l-1.1,1.3l-1,1.8l0.1,2.2l1.1,1.2L430.3,34.3L430.3,34.3z M411.8,90.3l7.6-9.6
		l2-4.3l-3.8-3.2l-4.6-2.6l-0.1-5.1l1.6-6.6l-1.6-4.4L409,51l-2.5-10l-3.2-6.8l-0.4-3.5l0.5-3.6l-2.1-2.2l-3.8-1.2l-4,2l-2.9,2.5
		l-10.9,6.4l-3.6,4l-2.1,4.6l-1.8,2.4l-1.6,3l3.8,4.2l5.7,5.5l1.2,6.3l-1.5,7.4l3.9,6.7l5.8,4.6l3.8,4.3l3.7,3.3l4.8,1l5.8,0.1
		L411.8,90.3L411.8,90.3z" />
		<path id="TWN1168" class="st0" d="M376.2,175.9l-3.1,0.9l-5.4,3.9l3.1,12.4l-2.2,3.8l-3.4,1.3l-3.3-0.6l-3.9,1.6l-0.5,1.5l-4.8-2.2
		l-7.3-4.1l-4-2.9l-5.5-0.9l-6.2-3.8l-5.2-3.9l-0.5-4.3l4.6-6.5l1.9-7.8l-1.6-7.3l-0.4-5l-3.4-2.6l-4.3-2.2l-2.6-4.5l-3.4-3.5
		l-3.9,0.3l-3.8-0.7l-3.1-3.1l-4.2-3.1l-6.5-2.1l-3.5-3.7l1.1-5.8l-3.6-4.2l-6.8-2.2l-4.1-2l-4.3-1.2l-5-2l-4-8.7l-4.6-3.1l-13.7,1
		l-3.1-1.1l8.9-14.2l6.9-8.3l7.2-6.1l18.4-6.1l4.3-2.7l3.7-3.2l4.5-2.5l9-3.2l20.1-3.6l4.2,4.6l6.3,3l4.7,3.1l3.2,2.8l4.1,1l4.2,2.2
		l5.1,7.5l0.5,4.1l-1,4.2l-3.3,3.4l-13.1,3.9l-3.7,4l0.2,6.2l-1,5.8l1,5.1l5.4,5.1l1,5.1l-1.3,6.7l5.1,2.9l7.4-0.4l5,2l8.5,12.3
		l-1.5,5.3l-3.1,3.7l0.8,5.2l1.4,5.6l8.9,8.5L376.2,175.9L376.2,175.9z" />
		<path id="TWN1169" class="st0" d="M161.6,366.7l0.1,3.6l-4.3,1.6l-1.2,2.9l0.5,4l-2,4.6l-1.6,5.4l-0.1,5.7l-1.2,6.6l-0.9,13.4
		l2.1,6.3l3.6,3.3l3.9,1.4l5.6,2.9l-1,3.5l-3.8,1.5l-2.5,2.3l-2.4,1.6l-1,0.7l-12-2.4l-5.8,0.1l-12.2-6l-19.7-2.3L94.1,423l-6.6-1.8
		l-7.6-0.4l-22,2.6l-7.6-4.4l0.8-1.4l1.6-7.1l1.2-3l7.1-6.8l2-2.8l2.7-7.8l4.2-7.7l5.7-16.1l2.7-4.7l3-3l2.5-1.7l2.2-1.1l1.6-1.4
		l0.6-3l1.2-2.8l5.1-4l1.2-3l0.6-10.1l0.9-2.8l2.7-2.6l11.3-13.2l5.8,1.9l4,3.5l2.7,6.3l1,7.6l4.5,5.4l11.9,3.5l4.3,3.6l3.2,5l2,4
		l0.1,4l1.2,3.3l4.3,0.8l5.4,3.5V366.7L161.6,366.7z" />
		<polygon class="st0" points="180.9,482.8 187,483.5 193.8,486.1 197.9,487.3 203,490.1 202.7,495.4 199.7,500.5 200.9,505.3 
		203.6,511.8 204,517.7 205.1,521.5 212.7,522.9 238.3,523.1 239.2,523.3 220.7,532.7 212.2,539.5 208.6,546.3 204.4,551.3 
		196.7,555.6 188.8,561.7 184.3,567.1 172,574.4 166.2,575 159.3,574.3 155.7,577.8 155.6,582.8 157,587.3 158,594 149.6,593 
		145.9,591.9 140.9,592.5 135.6,594.9 131.8,594.9 127.3,591.4 125.7,586.8 127.5,572.6 126.5,565.1 116.6,555 114.9,549.9 
		112.8,545.7 108.8,543.3 101.6,540.9 93.1,541.4 77.9,544.2 70.1,547.7 64,552.3 59.3,557.1 52.7,562.2 46.9,565.8 44.4,570.7 
		38.2,573.5 31,571.7 22.1,570.4 16.9,568.4 20.7,568.1 24,566.7 25.4,567.2 24.5,564 22.3,565.6 20.5,565.1 18,565 18,561.7 
		20.4,556.1 24.1,555.8 29.5,555.9 25.8,545.4 21.7,537.4 23.6,533.7 23.6,531.8 20.5,530.3 20.9,528.5 22.7,526.5 23.6,523.9 
		27.6,518.7 19.1,519.2 18.9,510.5 30.5,509.1 38.8,513.8 44.9,513.9 48.8,510.7 50.5,505.8 52.6,502.8 57.9,502 64.9,496.3 
		69.3,493.9 73.1,490.1 89.4,480.7 96.6,478.7 109.2,476.4 116.1,476 121.4,480.6 126.4,486.5 139,491.1 142.7,490.6 151,488.2 
		155.7,491.6 158.1,495.5 164.4,494.9 176.1,492.5 180.1,491.2 180.1,487.8 180.4,482.8 180.9,482.8 	" />
		<polygon class="st0" points="88.2,513.6 84.4,517.7 85.3,523.3 91.4,525.7 98.4,530.2 105.7,531.9 112.5,529.2 117,528.6 
		120,526.4 117.5,519.6 115,515.6 110.9,513.4 105.3,511.3 97.5,512 88.2,513.6 	" />
		<path id="TWN1171" class="st0" d="M88.2,513.6l9.3-1.6l7.8-0.7l5.6,2.1l4.1,2.2l2.5,4l2.5,6.8l-3,2.2l-4.5,0.6l-6.8,2.7l-7.3-1.7
		l-7-4.5l-6.1-2.4l-0.9-5.6L88.2,513.6L88.2,513.6z" />
		<path id="TWN1172" class="st0" d="M449.8,278.6l0.6,0.8l1.6,2.9l0.2,1.1l-1.4,2.4l-5.8,5.7l-6.2,8.6l-4.7,3.7l-1.4,2l0.7,2.1
		l-0.9,1.5l-6.6,5.1l-2.5,2.4l-2.8,6l-2.9,12.2l-7.4,10.9l-1.5,4.4l0.2,4.7l1.8,5.2l1.5,2.3l1.3,1l0.8,1.4l0.1,3.2l-1.1,3.6
		l-3.7,5.8l-0.7,3.5l-0.4,6.4l-3.2,16.3l-6.4,17l-8,40.1l-4.8,9.8l-11,64.1l-3.5-1l-10.8,5.2l-3.9,5.4l1.7,6.9l0.6,6.9l-3.6,6.9
		l-3.4,5.2l-2.7,6.6l-2.4,8.4l-3.7,7.7l-4.8,13.2l-3.1,6.1l0.1,6.7l-0.9,6.2l-6.5,3.7l-8.2-1.1l-11.7-9.7l-9.2-16l-5.7-1.5l-6.3-0.9
		l-5-4.8l-6.1-2.9l-7.8-2.8l-5-8.1l-1.2-7.4l-0.3-2.5l-2.8-7.6l-6.3-5.2l-5.6-3.6l-1-4l1.4-3.2l5.6-2.4l3-5l-1.9-5.8l6-3.5l3.1-2.8
		l-1.7-6.2l1.5-2.7l1.5-4l5.2-3.9l7.4-1.6l7.4-0.3l5.3-4.7l1.3-8.5l4-5.2l7.6-2.8l4.5-3.1l1.6-5.1l3.2-12.6l1.2-8.4l-0.9-7.2
		l-1.2-5.4l-3.2-4.1l-2.1-4l5.7-9.4l0.2-3.7l2.5-7l3.9-8.5l3-8.8l1.6-9.9l0.6-7.6l-1.8-4.5l-2-3.3l2.3-7.6l5.1-10.7l8-10.4l0.3-3.9
		l-1.5-4.5l-5.2-3.4l-2.9-3.1l-0.2-9.9l3.7-2.9l6.6-2.2l5.2-2.4l-0.2-3.7l-1.4-6.2l2.8-2l1.2-2.1l3.4-1.7l3.1-3.8l1.3-5.1l3-5
		l7.5-4.7l2.4-6.2l0.4-4.2l4.7-4.9l2.5,2.1l6.5,3.1l15,3.8l8.3,3.2h6.5l4.9-4.5l2.4-6l3.8-0.9l18.5,11.1l11.1,1.7L449.8,278.6
		L449.8,278.6z" />
		<path id="TWN1173" class="st0" d="M339.4,304.7l1.4,6.2l0.2,3.7l-5.2,2.4l-6.6,2.2l-3.7,2.9l0.2,9.9l2.9,3.1l5.2,3.4l1.5,4.5
		l-0.3,3.9l-8,10.4l-5.1,10.7l-2.3,7.6l2,3.3l1.8,4.5l-0.6,7.6l-1.6,9.9l-3,8.8l-3.9,8.5l-2.5,7l-0.2,3.7l-5.7,9.4l2.1,4l3.2,4.1
		l1.2,5.4l0.9,7.2l-1.2,8.4l-3.2,12.6l-1.6,5.1l-4.5,3.1l-7.6,2.8l-4,5.2l-1.3,8.5l-5.3,4.7l-7.4,0.3l-7.4,1.6l-5.2,3.9l-1.5,4
		l-1.5,2.7l1.7,6.2l-3.1,2.8l-6,3.5l-0.7-2l-4.2-5.9l-5.8-2.2l-4.3-1l-0.9-0.2l-25.6-0.2l-7.6-1.4l-1.1-3.8l-0.4-5.9l-2.7-6.5
		l-1.2-4.8l3-5.1l0.3-5.3l-5.1-2.8l-4.1-1.2l-6.8-2.6l-6.1-0.7l-2.6-3.5l-8.2,0.9l-6.8,2l-5.8-2.5l-4-4.7l0.9-5.7l1.9-5.2l-1-7.7
		l1-7.2l2-4.7l-1.9-7.2l2.4-1.6l2.5-2.3l3.8-1.5l1-3.5l-5.6-2.9l-3.9-1.4l-3.6-3.3l-2.1-6.3l0.9-13.4l1.2-6.6l0.1-5.7l1.6-5.4l2-4.6
		l-0.5-4l1.2-2.9l4.3-1.6l-0.1-3.6l4.3,0.2l17.9,2.5l4.2-0.6l5-4.8l7.6-14.4l3.7-8.5l6.4-3l10.1,1.4l6-0.2l5.8-7.7l3-1.9l8.9,6.7
		l3.5-0.9l2.6-5.5l4.7-3.9l6.6,0.1l5-1.9l7.9-7.6l5.1-2.9l4.4-0.8l8.8-4.7l6.2-0.2l6.3-1l11.1-4.4l4.6-0.3l4.7,1L339.4,304.7
		L339.4,304.7z" />
		<path id="TWN1174" class="st0" d="M318.1,247.6l0.8-0.6l10.6-1l2.8,0.8l3.6,1l-0.6,5.5l1.4,3.8l4.9,1l4.4,2.6l3.7,2.5l4-0.6
		l4.7-2.3h4.9l5.9,4.7l-4.7,4.9l-0.4,4.2l-2.4,6.2l-7.5,4.7l-3,5l-1.3,5.1l-3.1,3.8l-3.4,1.7l-1.2,2.1l-2.8,2l-13.4-1.3l-4.7-1
		l-4.6,0.3l-11.1,4.4l-6.3,1l-6.2,0.2l-8.8,4.7l-4.4,0.8l-5.1,2.9l-7.9,7.6l-5,1.9l-6.6-0.1l-4.7,3.9l-2.6,5.5l-3.5,0.9l-8.9-6.7
		l-3,1.9l-5.8,7.7l-6,0.2l-10.1-1.4l-6.4,3l-3.7,8.5L193,364l-5,4.8l-4.2,0.6l-17.9-2.5l-4.3-0.2v-1.4l-5.4-3.5l-4.3-0.8l-1.2-3.3
		l-0.1-4l-2-4l-3.2-5l-4.3-3.6l-11.9-3.5l-4.5-5.4l-1-7.6l-2.7-6.3l-4-3.5l-5.8-1.9l0.6-0.8l0.8-3.3l3.3-2.7l2.2-6.5l2.7-12.3
		l9.3-16.1l2.8-9.9l3.4-5.5l13.3-14.8l9.2,14.3l4.7,5l6.3,5.5l15.1,11.1l7.3,3.6l6.6,1.2l11.6,6.7l12.1-0.7l5.2-2.8l0.9-7.4l5.5-3.3
		l9.9,0.8l6,2.4l5,5.6l5.4,2.1l8.9-4.7l6.8-2.9l11.6-9.2l5.9-3.2l4.6-4.4l4.2-3l5.3,0.1l4.9-2l1.8-5.6L318.1,247.6L318.1,247.6z" />
		<path id="TWN1176" class="st0" d="M156.4,437.3l1.9,7.2l-2,4.7l-1,7.2l1,7.7l-1.9,5.2l-0.9,5.7l4,4.7l5.8,2.5l6.8-2l8.2-0.9
		l2.6,3.5h-0.5l-0.3,5v3.4l-4,1.3l-11.7,2.4l-6.3,0.6l-2.4-3.9l-4.7-3.4l-8.3,2.4l-3.7,0.5l-12.6-4.6l-5-5.9l-5.3-4.6l-6.9,0.4
		l-12.6,2.3l-7.2,2l-16.3,9.4l-3.8,3.8l-4.4,2.4l-7,5.7l-5.3,0.8l-2.1,3l-1.7,4.9l-3.9,3.2l-6.1-0.1l-8.3-4.7l-11.6,1.4l4.6-5.2
		l-0.2-16.4l0.7-12.3l2.8-9.8l4.3-7.7l1.3-10l2.3-8.8l1.3-3l6.1-8.1l1.1-2.8l0.7-1.5l5.6-4.3l0.8-1.6l7.6,4.4l22-2.6l7.6,0.4
		l6.6,1.8l11.6,4.4l19.7,2.3l12.2,6l5.8-0.1l12,2.4L156.4,437.3L156.4,437.3z" />
		<polygon class="st0" points="216.5,876.6 212,876.9 201.8,872.2 197.2,867.3 194,861.4 193.4,855.3 193.5,849.6 190.4,845.2 
		187,843.5 184.3,839.6 184.8,835.1 186.9,831.2 192.2,828 194.7,824.2 190.1,818.6 187.5,813.6 187.5,808.2 186.4,801.1 184.4,795 
		183.2,788.5 184,773.8 187,766.3 190.7,759.7 193.1,753.1 198.5,748.6 206.1,747 210.9,744.3 220.7,740.2 222.7,735.2 222.8,730 
		225.6,716.2 220.1,712.6 214.7,711.3 214,706.4 210.5,699.8 214.4,699.3 213.2,694.4 207,688 204,683.4 202.7,675.3 205,665.5 
		213.5,658.3 217.8,652.4 217.9,641.2 220.9,628 218.8,618.1 219.6,611.2 227,607.2 229.7,602.3 227.4,596.3 228.3,590.6 
		236.1,585.5 240.1,581.6 246.5,577.5 262.1,573.7 263.3,581.1 268.3,589.2 276.1,592 282.2,594.9 287.2,599.7 293.5,600.6 
		299.2,602.1 308.4,618.1 320.1,627.8 328.3,628.9 334.8,625.2 335.7,619 335.6,612.3 338.7,606.2 343.5,593 347.2,585.3 
		349.6,576.9 352.3,570.3 355.7,565.1 359.3,558.2 358.7,551.3 357,544.4 360.9,539 371.7,533.8 375.2,534.8 370.6,561.2 
		368.4,566.1 361.3,575.5 358.7,580.4 356.6,586.5 355.1,597.9 355.3,608.1 354.3,617.8 349.4,627.7 347.3,629.8 342.6,633.3 
		340.4,635.5 339.4,637.8 337.7,643.6 332.9,652 330,665.1 327.9,671 317.6,685.8 316.3,688.5 302.4,700.3 299.1,704.1 298.7,706.8 
		299.3,713 299.1,715.8 297.9,719 295.7,722.5 291,728.6 286.3,733.1 270.2,743.8 259.4,755.7 256.7,757.1 254.6,759.8 249.4,773.3 
		246.8,778.3 238.8,788.3 235.5,794.3 233.6,806.6 228.8,823.4 219.3,840.1 217.9,845.8 216.2,861.9 216.5,876.6 	" />
		<circle id="_x30_" class="st0" cx="408.4" cy="35.1" r="0" />
		<circle id="_x31_" class="st0" cx="184.3" cy="203.2" r="0" />
		<circle id="_x32_" class="st0" cx="84.1" cy="698.5" r="0" />
	</g>
</svg>
