<?xml version="1.0" encoding="utf-8"?>
<!-- Generator: Adobe Illustrator 21.0.0, SVG Export Plug-In . SVG Version: 6.00 Build 0)  -->
<svg version="1.1" id="圖層_1" xmlns="http://www.w3.org/2000/svg" xmlns:xlink="http://www.w3.org/1999/xlink" x="0px" y="0px"
	 viewBox="0 0 23.5 26.4" style="enable-background:new 0 0 23.5 26.4;" xml:space="preserve">
<style type="text/css">
	.st0{fill:#5DB4E5;}
</style>
<title>資產 1</title>
<g id="圖層_2">
	<g id="圖層_2-2">
		<path id="_複合路徑_" class="st0" d="M11.8,0.4c-0.3,0-0.6,0.2-0.7,0.4L1.6,25c-0.1,0.3-0.1,0.5,0.1,0.8
			C1.9,25.9,2.2,26,2.5,26l9.1-2.5l9.4,2.5c0.2,0.1,0.5,0,0.7-0.2l0,0c0.2-0.2,0.2-0.5,0.1-0.7L12.5,0.9C12.4,0.6,12.2,0.4,11.8,0.4
			L11.8,0.4z M11.1,5l-0.2,17.1l-7.4,2L11.1,5z M20,24.2l-7.6-2l0.2-17.2L20,24.2z"/>
	</g>
</g>
</svg>
