<?xml version="1.0" encoding="utf-8"?>
<!-- Generator: Adobe Illustrator 19.0.0, SVG Export Plug-In . SVG Version: 6.00 Build 0)  -->
<svg version="1.1" id="圖層_1" xmlns="http://www.w3.org/2000/svg" xmlns:xlink="http://www.w3.org/1999/xlink" x="0px" y="0px"
	 viewBox="0 0 300 133" style="enable-background:new 0 0 300 133;" xml:space="preserve">
<style type="text/css">
	.st0{fill:#5DB4E5;}

</style>
<g id="XMLID_272_">
	<path id="XMLID_1235_" class="st0" d="M7.6,23.3v86.4c0,11,8.8,19.9,19.7,19.9h85.5c10.9,0,19.7-8.9,19.7-19.9V23.3
		c0-11-8.8-19.9-19.7-19.9H27.3C16.5,3.4,7.6,12.3,7.6,23.3z M95.4,59.4h6.1v20.8h-6.1V59.4z M59.8,66.7h20.6v6.1H59.8V66.7z
		 M38.7,59.4h6.1v20.8h-6.1V59.4z"/>
	<g id="XMLID_867_">
		<rect id="XMLID_1232_" x="163.3" y="58.8" class="st0" width="8.1" height="27.7"/>
		<path id="XMLID_1226_" class="st0" d="M175.4,69.3h12.9v5.9h-12.9V69.3z"/>
		<path id="XMLID_1220_" class="st0" d="M201.5,79.1h14.7v7.4h-23.5V49.1h8.8V79.1z"/>
		<rect id="XMLID_1217_" x="220.2" y="58.8" class="st0" width="8.1" height="27.7"/>
		<path id="XMLID_1038_" class="st0" d="M258.7,86.5h-8.1V70.9c0-1.9-0.1-3.1-0.2-3.8c-0.1-0.7-0.5-1.3-1-1.8
			c-0.6-0.5-1.3-0.7-2.1-0.7c-2.8,0-4.3,2.1-4.3,6.3v15.5H235V58.8h7.5v4.7c1.2-2.2,2.5-3.7,3.7-4.3c1.2-0.6,2.5-1,3.9-1
			c2.6,0,4.7,0.7,6.3,2.1c1.6,1.4,2.4,4.2,2.4,8.3V86.5z"/>
		<path id="XMLID_879_" class="st0" d="M283.5,68.2l8.9,18.3h-8.9l-5.7-12.5l-4.8,5.5v7h-7.6V49.1h7.6v22.4l1.2-1.5
			c0.5-0.7,0.9-1.2,1.3-1.7l8-9.5h7.9L283.5,68.2z"/>
		<path id="XMLID_869_" class="st0" d="M228.4,50.7c0,2.3-1.9,4.2-4.1,4.2c-2.3,0-4.1-1.9-4.1-4.2c0-2.3,1.9-4.2,4.1-4.2
			C226.6,46.5,228.4,48.4,228.4,50.7z"/>
		<path id="XMLID_868_" class="st0" d="M171.5,50.7c0,2.3-1.9,4.2-4.2,4.2c-2.3,0-4.1-1.9-4.1-4.2c0-2.3,1.9-4.2,4.1-4.2
			C169.7,46.5,171.5,48.4,171.5,50.7z"/>
	</g>
</g>
</svg>
