<?xml version="1.0" encoding="utf-8"?>
<!-- Generator: Adobe Illustrator 19.0.0, SVG Export Plug-In . SVG Version: 6.00 Build 0)  -->
<svg version="1.1" id="圖層_1" xmlns="http://www.w3.org/2000/svg" xmlns:xlink="http://www.w3.org/1999/xlink" x="0px" y="0px"
	 viewBox="0 0 153.1 68" style="enable-background:new 0 0 153.1 68;" xml:space="preserve">
<style type="text/css">
	.st0{fill:#FFFFFF;}
</style>
<g id="XMLID_272_">
	<path id="XMLID_1235_" class="st0" d="M1,11.3v45.3c0,5.8,4.7,10.5,10.4,10.5h45.4c5.8,0,10.5-4.7,10.5-10.5V11.3
		c0-5.8-4.7-10.5-10.5-10.5H11.4C5.7,0.9,1,5.6,1,11.3z M47.6,30.3h3.2v10.9h-3.2V30.3z M28.6,34.1h11v3.2h-11V34.1z M17.5,30.3h3.2
		v10.9h-3.2V30.3z"/>
	<g id="XMLID_867_">
		<rect id="XMLID_1232_" x="83.6" y="30" class="st0" width="4.3" height="14.5"/>
		<path id="XMLID_1226_" class="st0" d="M90,35.5h6.9v3.1H90V35.5z"/>
		<path id="XMLID_1220_" class="st0" d="M103.8,40.6h7.8v3.9H99.2V24.9h4.7V40.6z"/>
		<rect id="XMLID_1217_" x="113.8" y="30" class="st0" width="4.3" height="14.5"/>
		<path id="XMLID_1038_" class="st0" d="M134.2,44.5H130v-8.2c0-1,0-1.7-0.1-2c-0.1-0.4-0.3-0.7-0.6-0.9c-0.3-0.3-0.7-0.4-1.1-0.4
			c-1.5,0-2.3,1.1-2.3,3.3v8.2h-4.3V30h4v2.5c0.7-1.2,1.3-1.9,2-2.3c0.6-0.3,1.3-0.5,2.1-0.5c1.4,0,2.5,0.4,3.3,1.1
			c0.8,0.7,1.3,2.2,1.3,4.4V44.5z"/>
		<path id="XMLID_879_" class="st0" d="M147.4,34.9l4.7,9.6h-4.7l-3-6.6l-2.5,2.9v3.7h-4V24.9h4v11.8l0.6-0.8
			c0.3-0.4,0.5-0.7,0.7-0.9l4.2-5h4.2L147.4,34.9z"/>
		<path id="XMLID_869_" class="st0" d="M118.2,25.7c0,1.2-1,2.2-2.2,2.2c-1.2,0-2.2-1-2.2-2.2c0-1.2,1-2.2,2.2-2.2
			C117.2,23.5,118.2,24.5,118.2,25.7z"/>
		<path id="XMLID_868_" class="st0" d="M88,25.7c0,1.2-1,2.2-2.2,2.2c-1.2,0-2.2-1-2.2-2.2c0-1.2,1-2.2,2.2-2.2
			C87,23.5,88,24.5,88,25.7z"/>
	</g>
</g>
</svg>
